<?xml version="1.0" encoding="utf-8"?>
<!-- Generator: Adobe Illustrator 17.1.0, SVG Export Plug-In . SVG Version: 6.00 Build 0)  -->
<!DOCTYPE svg PUBLIC "-//W3C//DTD SVG 1.1//EN" "http://www.w3.org/Graphics/SVG/1.1/DTD/svg11.dtd">
<svg version="1.1" id="Layer_1" xmlns="http://www.w3.org/2000/svg" xmlns:xlink="http://www.w3.org/1999/xlink" x="0px" y="0px"
	 viewBox="0 0 29 27.6" enable-background="new 0 0 29 27.6" xml:space="preserve">
<g>
	<path fill="#F4C70C" d="M28.7,0.9c0-0.3-0.2-0.5-0.4-0.6c-0.3-0.1-0.5,0-0.7,0.1l-5,4.9c-0.3,0.3-0.3,0.7,0,0.9
		C22.8,6.6,23,7,23,7.5c0,1.2-1.4,2.2-3.1,2.2c-1.7,0-3.1-1-3.1-2.2c0-0.9,0.7-1.6,1.8-2c0.2-0.1,0.4-0.3,0.5-0.5
		c0.1-0.2,0-0.5-0.2-0.6l-4.2-4.2C14.7,0.1,14.5,0,14.3,0c-0.2,0-0.4,0.1-0.5,0.2L9.7,4.4C9.5,4.5,9.5,4.8,9.5,5
		C9.6,5.2,9.7,5.4,10,5.5c1.1,0.4,1.8,1.1,1.8,2c0,1.2-1.4,2.2-3.1,2.2c-1.7,0-3.1-1-3.1-2.2c0-0.5,0.3-0.9,0.5-1.2
		c0.2-0.3,0.2-0.7,0-0.9l-5-4.9C1,0.2,0.7,0.2,0.4,0.3C0.2,0.4,0,0.6,0,0.9v22.6c0,0.1,0,0.1,0,0.2c0,0,0,0.1,0,0.1
		c0,2.8,9,3.5,14.3,3.5c0,0,0,0,0,0c5.3,0,14.3-0.7,14.3-3.5c0-0.1,0-0.1,0-0.1c0-0.1,0-0.1,0-0.2V0.9z"/>
	<g>
		<g>
			<polygon fill="#DFA405" points="11.6,4.8 14.3,1.6 17.4,4.8 			"/>
			<polygon fill="#DFA405" points="1.1,2.2 4.5,5.9 1.1,5.9 			"/>
			<polygon fill="#DFA405" points="27.3,2.2 23.9,5.9 27.3,5.9 			"/>
		</g>
		<path fill="#CCCCCC" d="M27.3,23.8c-0.2-0.7-4.9-2.2-13-2.2c-8.1,0-12.8,1.4-13,2.2c0.2,0.7,4.9,2.2,13,2.2
			C22.4,26,27.1,24.6,27.3,23.8L27.3,23.8z"/>
		<path fill="#CCCCCC" d="M27.3,25.4l0-1.6l-25.9,0l0,1.6c0.2,0.7,4.9,2.2,13,2.2C22.4,27.6,27.1,26.2,27.3,25.4L27.3,25.4z"/>
		<g>
			<g>
				<path fill="#DFA405" d="M27.3,22.1v-1.5c-0.2-0.8-4.9-2.2-13-2.2c-8.1,0-12.7,1.4-13,2.2v1.5c2.7-1.5,8.9-1.9,13-1.9
					C18.4,20.3,24.6,20.7,27.3,22.1L27.3,22.1z"/>
				<path fill="#DFA405" d="M27.3,19.4v-1.5c-0.2-0.8-4.9-2.2-13-2.2c-8.1,0-12.7,1.4-13,2.2v1.5c2.7-1.5,8.9-1.9,13-1.9
					C18.4,17.6,24.6,18,27.3,19.4L27.3,19.4z"/>
				<path fill="#DFA405" d="M27.3,16.5V15c-0.2-0.8-4.9-2.2-13-2.2c-8.1,0-12.7,1.4-13,2.2v1.5c2.7-1.5,8.9-1.9,13-1.9
					C18.4,14.6,24.6,15.1,27.3,16.5L27.3,16.5z"/>
			</g>
			<g>
				<g>
					<circle fill="#F4C70C" cx="3.7" cy="20.5" r="0.6"/>
					<circle fill="#F4C70C" cx="7.3" cy="19.8" r="0.6"/>
					<circle fill="#F4C70C" cx="10.8" cy="19.5" r="0.6"/>
				</g>
				<g>
					<circle fill="#F4C70C" cx="25" cy="20.5" r="0.6"/>
					<circle fill="#F4C70C" cx="21.3" cy="19.8" r="0.6"/>
					<circle fill="#F4C70C" cx="17.8" cy="19.5" r="0.6"/>
				</g>
			</g>
		</g>
		<g opacity="2.000000e-002">
			<path fill="#020202" d="M28.7,1.2c0-0.3-0.2-0.5-0.4-0.6c-0.3-0.1-0.5,0-0.7,0.1l-5,4.9c-0.3,0.3-0.3,0.7,0,0.9
				C22.8,6.8,23,7.2,23,7.7c0,1.2-1.4,2.2-3.1,2.2c-1.7,0-3.1-1-3.1-2.2c0-0.9,0.7-1.6,1.8-2c0.2-0.1,0.4-0.3,0.5-0.5
				c0.1-0.2,0-0.5-0.2-0.6l-4.2-4.2c-0.1-0.1-0.3-0.2-0.5-0.2v27.3c0,0,0,0,0,0c5.3,0,14.3-0.7,14.3-3.5c0-0.1,0-0.1,0-0.1
				c0-0.1,0-0.1,0-0.2V1.2z"/>
		</g>
		<g>
			<polygon fill="#FFFFFF" points="19.7,11.1 20.5,12.4 21.8,13.2 20.5,13.9 19.7,15.2 19,13.9 17.7,13.2 19,12.4 			"/>
			<polygon fill="#FFFFFF" points="25.4,10.3 26.7,12.7 29,13.9 26.7,15.2 25.4,17.5 24.2,15.2 21.9,13.9 24.2,12.7 			"/>
		</g>
	</g>
</g>
</svg>
