<?xml version="1.0" standalone="no"?>
<!DOCTYPE svg PUBLIC "-//W3C//DTD SVG 1.1//EN" "http://www.w3.org/Graphics/SVG/1.1/DTD/svg11.dtd" >
<svg xmlns="http://www.w3.org/2000/svg">
<metadata>Generated by IcoMoon</metadata>
<defs>
<font id="hub-fonts" horiz-adv-x="1024">
<font-face units-per-em="1024" ascent="960" descent="-64" />
<missing-glyph horiz-adv-x="1024" />
<glyph unicode="&#x20;" horiz-adv-x="512" d="" />
<glyph unicode="&#xe900;" glyph-name="appscale" d="M214.4 64c-4.8 0-8 1.6-12.8 3.2-16 6.4-24 25.6-17.6 41.6l80 188.8c0 0 0 1.6 1.6 1.6l217.6 513.6c4.8 11.2 16 19.2 28.8 19.2s24-8 28.8-19.2l216-510.4c1.6-1.6 1.6-3.2 1.6-4.8l80-190.4c6.4-16 0-35.2-17.6-41.6-16-6.4-35.2 0-41.6 17.6l-72 169.6h-392l-72-169.6c-4.8-11.2-17.6-19.2-28.8-19.2zM342.4 318.4h339.2l-169.6 400-169.6-400z" />
<glyph unicode="&#xe901;" glyph-name="arrow-down" d="M512 64c-1.6 0-3.2 0-4.8 0v0c0 0 0 0 0 0-4.8 0-9.6 3.2-14.4 6.4-1.6 0-1.6 1.6-1.6 1.6l-256 225.6c-12.8 11.2-14.4 32-3.2 44.8s32 14.4 44.8 3.2l203.2-179.2v633.6c0 17.6 14.4 32 32 32s32-14.4 32-32v-633.6l201.6 179.2c12.8 11.2 33.6 11.2 44.8-3.2 4.8-6.4 8-14.4 8-20.8 0-9.6-3.2-17.6-11.2-24l-254.4-225.6c0 0 0 0 0 0s0 0 0 0c-4.8-4.8-11.2-8-19.2-8v0 0c0 0-1.6 0-1.6 0z" />
<glyph unicode="&#xe902;" glyph-name="arrow-left" d="M385.6 161.6c-9.6 0-17.6 3.2-24 11.2l-225.6 254.4c0 0-1.6 1.6-1.6 1.6-3.2 4.8-4.8 9.6-6.4 14.4 0 0 0 0 0 0 0 1.6 0 4.8 0 6.4 0 0 0 0 0 0 0 6.4 3.2 12.8 8 19.2 0 0 0 0 0 0s0 0 0 0v0c0 0 0 0 0 0s0 0 0 0l225.6 254.4c11.2 12.8 32 14.4 44.8 3.2 6.4-6.4 11.2-14.4 11.2-24 0-8-3.2-14.4-8-20.8l-179.2-201.6h633.6c17.6 0 32-14.4 32-32s-14.4-32-32-32h-633.6l179.2-201.6c11.2-12.8 11.2-33.6-3.2-44.8-4.8-6.4-12.8-8-20.8-8z" />
<glyph unicode="&#xe903;" glyph-name="arrow-right" d="M638.4 161.6c-8 0-14.4 3.2-20.8 8-12.8 11.2-14.4 32-3.2 44.8l179.2 201.6h-633.6c-17.6 0-32 14.4-32 32s14.4 32 32 32h633.6l-179.2 201.6c-4.8 6.4-8 14.4-8 20.8 0 9.6 3.2 17.6 11.2 24 12.8 11.2 33.6 11.2 44.8-3.2l225.6-254.4c0 0 0 0 0 0s0 0 0 0v0c0 0 0 0 0 0s0 0 0 0c4.8-4.8 8-12.8 8-19.2 0 0 0 0 0 0 0-1.6 0-4.8 0-6.4 0 0 0 0 0 0 0-4.8-3.2-9.6-6.4-14.4 0-1.6-1.6-1.6-1.6-1.6l-225.6-256c-6.4-6.4-16-9.6-24-9.6z" />
<glyph unicode="&#xe904;" glyph-name="arrow-up" d="M512 64c-17.6 0-32 14.4-32 32v633.6l-201.6-179.2c-12.8-11.2-33.6-11.2-44.8 3.2-11.2 12.8-11.2 33.6 3.2 44.8l254.4 225.6c0 0 1.6 1.6 1.6 1.6 4.8 3.2 9.6 4.8 14.4 6.4 1.6 0 4.8 0 6.4 0v0c0 0 0 0 0 0 6.4 0 14.4-3.2 19.2-8v0c0 0 0 0 0 0l254.4-225.6c6.4-6.4 11.2-14.4 11.2-24 0-8-3.2-14.4-8-20.8-11.2-12.8-32-14.4-44.8-3.2l-201.6 179.2v-633.6c0-17.6-14.4-32-32-32z" />
<glyph unicode="&#xe905;" glyph-name="bazaar" d="M644.8 105.6h-265.6c-11.2 0-22.4 6.4-27.2 16l-144 252.8c-48 6.4-80 46.4-80 100.8 0 59.2 38.4 100.8 96 100.8h576c56 0 96-41.6 96-100.8 0-54.4-32-94.4-80-100.8l-142.4-252.8c-6.4-9.6-16-16-28.8-16zM396.8 169.6h228.8l142.4 251.2c6.4 9.6 16 16 27.2 16h4.8c20.8 0 32 12.8 32 36.8 0 25.6-11.2 36.8-32 36.8h-576c-20.8 0-32-12.8-32-36.8 0-25.6 11.2-36.8 32-36.8 0 0 1.6 0 1.6 0 12.8 0 24-4.8 30.4-16l140.8-251.2zM520 219.2c-17.6 0-32 14.4-32 32v160c0 17.6 14.4 32 32 32s32-14.4 32-32v-161.6c0-16-14.4-30.4-32-30.4zM430.4 212.8c-11.2 0-22.4 6.4-27.2 16l-91.2 161.6c-8 16-3.2 35.2 12.8 43.2s35.2 3.2 43.2-12.8l91.2-161.6c8-16 3.2-35.2-12.8-43.2-4.8-1.6-11.2-3.2-16-3.2zM593.6 212.8c-4.8 0-11.2 1.6-16 4.8-16 8-20.8 28.8-12.8 43.2l91.2 161.6c8 16 28.8 20.8 43.2 12.8 16-8 20.8-28.8 12.8-43.2l-91.2-161.6c-4.8-11.2-16-17.6-27.2-17.6zM452.8 520c-17.6 0-32 14.4-32 32v131.2c0 60.8 41.6 107.2 96 107.2h9.6c56 0 96-41.6 96-102.4v-131.2c0-17.6-14.4-32-32-32s-32 14.4-32 32v131.2c0 14.4-4.8 38.4-32 38.4h-9.6c-20.8 0-32-22.4-32-43.2v-131.2c0-19.2-14.4-32-32-32z" />
<glyph unicode="&#xe906;" glyph-name="burger" d="M864 710.4h-704c-17.6 0-32 14.4-32 32s14.4 32 32 32h704c17.6 0 32-14.4 32-32s-14.4-32-32-32zM864 121.6h-704c-17.6 0-32 14.4-32 32s14.4 32 32 32h704c17.6 0 32-14.4 32-32s-14.4-32-32-32zM864 416h-704c-17.6 0-32 14.4-32 32s14.4 32 32 32h704c17.6 0 32-14.4 32-32s-14.4-32-32-32z" />
<glyph unicode="&#xe907;" glyph-name="calendar" d="M713.6 64h-403.2c-83.2 0-150.4 67.2-150.4 150.4v404.8c0 83.2 67.2 150.4 150.4 150.4 17.6 0 32-14.4 32-32s-14.4-32-32-32c-48 0-86.4-38.4-86.4-86.4v-403.2c0-48 38.4-86.4 86.4-86.4h403.2c48 0 86.4 38.4 86.4 86.4v403.2c0 48-38.4 86.4-86.4 86.4-17.6 0-32 14.4-32 32s14.4 32 32 32c83.2 0 150.4-67.2 150.4-150.4v-403.2c0-84.8-67.2-152-150.4-152zM585.6 705.6h-150.4c-17.6 0-32 14.4-32 32s14.4 32 32 32h150.4c17.6 0 32-14.4 32-32s-14.4-32-32-32zM819.2 537.6h-620.8c-17.6 0-32 14.4-32 32s14.4 32 32 32h620.8c17.6 0 32-14.4 32-32s-14.4-32-32-32zM696 356.8h-368c-17.6 0-32 14.4-32 32s14.4 32 32 32h368c17.6 0 32-14.4 32-32s-14.4-32-32-32zM592 244.8h-156.8c-17.6 0-32 14.4-32 32s14.4 32 32 32h156.8c17.6 0 32-14.4 32-32s-14.4-32-32-32zM372.8 628.8c-17.6 0-32 14.4-32 32v139.2c0 17.6 14.4 32 32 32s32-14.4 32-32v-139.2c0-17.6-14.4-32-32-32zM651.2 628.8c-17.6 0-32 14.4-32 32v139.2c0 17.6 14.4 32 32 32s32-14.4 32-32v-139.2c0-17.6-14.4-32-32-32z" />
<glyph unicode="&#xe908;" glyph-name="compass" d="M646.4 320c-6.4 0-11.2 1.6-17.6 4.8-14.4 9.6-19.2 28.8-9.6 44.8l176 276.8-320-70.4c-17.6-3.2-33.6 6.4-38.4 24-3.2 17.6 6.4 33.6 24 38.4l396.8 86.4c12.8 3.2 25.6-1.6 33.6-12.8s8-24 1.6-35.2l-219.2-342.4c-6.4-9.6-16-14.4-27.2-14.4zM512 251.2c-11.2 0-22.4 1.6-35.2 3.2-51.2 9.6-97.6 38.4-128 81.6s-41.6 96-32 147.2c16 94.4 99.2 163.2 193.6 163.2 11.2 0 22.4-1.6 35.2-3.2 51.2-9.6 97.6-38.4 128-81.6s41.6-96 32-147.2c-16-96-97.6-163.2-193.6-163.2zM512 580.8c-64 0-120-46.4-131.2-110.4-6.4-35.2 1.6-70.4 22.4-99.2s51.2-48 86.4-54.4c8-1.6 16-1.6 24-1.6 64 0 120 46.4 131.2 110.4 6.4 35.2-1.6 70.4-22.4 99.2s-51.2 48-86.4 54.4c-8 1.6-16 1.6-24 1.6zM160 169.6c-9.6 0-20.8 4.8-25.6 14.4-8 11.2-8 24-1.6 35.2l217.6 342.4c9.6 14.4 28.8 19.2 44.8 9.6 14.4-9.6 19.2-28.8 9.6-44.8l-176-278.4 320 72c17.6 3.2 33.6-6.4 38.4-24 3.2-17.6-6.4-33.6-24-38.4l-395.2-86.4c-3.2-1.6-6.4-1.6-8-1.6z" />
<glyph unicode="&#xe909;" glyph-name="dashboard" d="M491.2 64c-83.2 0-166.4 28.8-230.4 83.2-84.8 68.8-132.8 171.2-132.8 280 0 200 163.2 363.2 363.2 363.2h32v-331.2h331.2v-32c-1.6-200-163.2-363.2-363.2-363.2zM459.2 723.2c-150.4-16-267.2-142.4-267.2-297.6 0-89.6 40-172.8 108.8-230.4 52.8-43.2 120-68.8 190.4-68.8 153.6 0 281.6 116.8 297.6 267.2h-329.6v329.6zM896 395.2h-436.8v436.8h32c222.4 0 404.8-182.4 404.8-404.8v-32zM523.2 459.2h307.2c-14.4 161.6-145.6 292.8-307.2 307.2v-307.2z" />
<glyph unicode="&#xe90a;" glyph-name="downloads" d="M512 249.6c-8 0-16 3.2-22.4 9.6l-137.6 136c-12.8 12.8-12.8 32 0 44.8s32 12.8 44.8 0l81.6-81.6v441.6c0 17.6 14.4 32 32 32s32-14.4 32-32v-440l81.6 81.6c12.8 12.8 32 12.8 44.8 0s12.8-32 0-44.8l-136-136c-4.8-8-12.8-11.2-20.8-11.2zM512 64c-184 0-334.4 150.4-334.4 334.4 0 145.6 92.8 273.6 232 318.4 17.6 4.8 35.2-3.2 40-20.8s-3.2-35.2-20.8-40c-112-36.8-187.2-139.2-187.2-257.6 0-148.8 121.6-270.4 270.4-270.4s270.4 121.6 270.4 270.4c0 118.4-75.2 220.8-187.2 257.6-17.6 4.8-25.6 24-20.8 40 4.8 17.6 24 25.6 40 20.8 139.2-44.8 232-172.8 232-318.4 0-184-150.4-334.4-334.4-334.4z" />
<glyph unicode="&#xe90b;" glyph-name="environments" d="M259.2 571.2v0c-35.2 0-67.2 12.8-92.8 38.4-51.2 51.2-51.2 134.4 0 184 24 25.6 57.6 38.4 92.8 38.4s67.2-12.8 92.8-38.4c51.2-51.2 51.2-134.4 0-184-25.6-25.6-59.2-38.4-92.8-38.4zM259.2 768c-17.6 0-35.2-6.4-46.4-19.2-25.6-25.6-25.6-68.8 0-94.4 12.8-12.8 28.8-19.2 46.4-19.2s35.2 6.4 46.4 19.2c25.6 25.6 25.6 68.8 0 94.4-12.8 12.8-28.8 19.2-46.4 19.2zM764.8 571.2v0c-35.2 0-67.2 12.8-92.8 38.4-51.2 51.2-51.2 134.4 0 184 25.6 25.6 59.2 38.4 92.8 38.4 35.2 0 67.2-12.8 92.8-38.4 51.2-51.2 51.2-134.4 0-184-24-25.6-57.6-38.4-92.8-38.4zM764.8 768c-17.6 0-35.2-6.4-46.4-19.2-25.6-25.6-25.6-68.8 0-94.4 12.8-12.8 28.8-19.2 46.4-19.2s35.2 6.4 46.4 19.2c25.6 25.6 25.6 68.8 0 94.4-11.2 12.8-28.8 19.2-46.4 19.2zM667.2 668.8h-310.4c-17.6 0-32 14.4-32 32s14.4 32 32 32h308.8c17.6 0 32-14.4 32-32s-12.8-32-30.4-32zM667.2 163.2h-310.4c-17.6 0-32 14.4-32 32s14.4 32 32 32h308.8c17.6 0 32-14.4 32-32s-12.8-32-30.4-32zM259.2 64c-35.2 0-67.2 12.8-92.8 38.4-51.2 51.2-51.2 134.4 0 184 24 24 57.6 38.4 92.8 38.4s67.2-12.8 92.8-38.4c51.2-51.2 51.2-134.4 0-184-25.6-25.6-59.2-38.4-92.8-38.4zM259.2 260.8c-17.6 0-35.2-6.4-46.4-19.2-25.6-25.6-25.6-68.8 0-94.4 12.8-12.8 28.8-19.2 46.4-19.2s35.2 6.4 46.4 19.2c25.6 25.6 25.6 68.8 0 94.4-12.8 12.8-28.8 19.2-46.4 19.2zM259.2 260.8c-17.6 0-32 14.4-32 32v310.4c0 17.6 14.4 32 32 32s32-14.4 32-32v-310.4c0-17.6-14.4-32-32-32zM764.8 64c-35.2 0-67.2 12.8-92.8 38.4-51.2 51.2-51.2 134.4 0 184 24 24 57.6 38.4 92.8 38.4s67.2-12.8 92.8-38.4c51.2-51.2 51.2-134.4 0-184-24-25.6-57.6-38.4-92.8-38.4zM764.8 260.8c-17.6 0-35.2-6.4-46.4-19.2-25.6-25.6-25.6-68.8 0-94.4 12.8-12.8 28.8-19.2 46.4-19.2s35.2 6.4 46.4 19.2c25.6 25.6 25.6 68.8 0 94.4-11.2 12.8-28.8 19.2-46.4 19.2zM764.8 260.8c-17.6 0-32 14.4-32 32v310.4c0 17.6 14.4 32 32 32s32-14.4 32-32v-310.4c0-17.6-14.4-32-32-32z" />
<glyph unicode="&#xe90c;" glyph-name="globus" d="M512 64c-211.2 0-384 172.8-384 384s172.8 384 384 384 384-172.8 384-384c0-211.2-172.8-384-384-384zM512 768c-176 0-320-144-320-320s144-320 320-320 320 144 320 320c0 176-144 320-320 320zM334.4 112c-8 0-16 3.2-20.8 8-12.8 11.2-14.4 32-1.6 44.8l8 11.2 22.4 75.2-25.6 44.8-100.8 59.2c-9.6 6.4-16 16-16 27.2v96c0 14.4 9.6 27.2 22.4 30.4l100.8 30.4 48 40-94.4 132.8c-9.6 14.4-6.4 33.6 8 44.8 14.4 9.6 33.6 6.4 44.8-8l112-156.8c9.6-12.8 8-32-4.8-43.2l-75.2-64c-3.2-3.2-8-4.8-11.2-6.4l-84.8-25.6v-54.4l91.2-54.4c4.8-3.2 8-6.4 11.2-11.2l38.4-64c4.8-8 6.4-17.6 3.2-25.6l-28.8-96c-1.6-4.8-3.2-8-6.4-12.8l-16-16c-6.4-3.2-16-6.4-24-6.4zM636.8 224c-4.8 0-9.6 1.6-14.4 3.2l-67.2 32c-6.4 3.2-11.2 8-14.4 12.8l-36.8 64c-4.8 8-4.8 17.6-3.2 27.2l20.8 59.2v41.6c0 17.6 14.4 32 32 32h70.4l86.4 123.2c0 1.6 1.6 1.6 1.6 3.2l54.4 64c11.2 12.8 32 14.4 44.8 3.2s14.4-32 3.2-44.8l-54.4-62.4-94.4-136c-6.4-8-16-14.4-25.6-14.4h-52.8v-16c0-3.2 0-6.4-1.6-11.2l-17.6-49.6 24-43.2 36.8-17.6 44.8 44.8 30.4 59.2c4.8 9.6 16 16 27.2 17.6s22.4-4.8 28.8-14.4l59.2-89.6 12.8-6.4c16-8 22.4-27.2 14.4-43.2s-27.2-22.4-43.2-14.4l-20.8 9.6c-4.8 3.2-9.6 6.4-12.8 11.2l-33.6 51.2-8-16c-1.6-3.2-3.2-6.4-6.4-8l-65.6-64c-1.6-4.8-9.6-8-19.2-8z" />
<glyph unicode="&#xe90d;" glyph-name="heart" d="M512 126.4c-8 0-16 3.2-22.4 8l-73.6 68.8-225.6 209.6c-40 41.6-62.4 92.8-62.4 148.8s22.4 107.2 60.8 147.2c40 40 91.2 60.8 147.2 60.8s107.2-22.4 147.2-60.8c11.2-11.2 20.8-22.4 28.8-35.2 8 12.8 17.6 24 28.8 35.2 40 40 91.2 60.8 147.2 60.8s107.2-22.4 147.2-60.8c40-40 60.8-91.2 60.8-147.2s-22.4-107.2-60.8-147.2l-300.8-280c-6.4-4.8-14.4-8-22.4-8zM336 705.6c-38.4 0-75.2-14.4-102.4-41.6s-41.6-64-41.6-102.4 14.4-75.2 41.6-102.4l278.4-257.6 278.4 259.2c27.2 27.2 41.6 62.4 41.6 100.8s-14.4 75.2-41.6 102.4c-27.2 27.2-64 41.6-102.4 41.6s-75.2-14.4-102.4-41.6c-24-24-38.4-56-41.6-89.6 0-8-3.2-14.4-8-19.2-12.8-12.8-35.2-12.8-46.4 0-6.4 4.8-9.6 12.8-9.6 20.8-3.2 33.6-17.6 64-41.6 88-27.2 27.2-64 41.6-102.4 41.6z" />
<glyph unicode="&#xe90e;" glyph-name="hosting-services" d="M512 532.8c-142.4 0-384 27.2-384 129.6s241.6 129.6 384 129.6 384-27.2 384-129.6c0-100.8-241.6-129.6-384-129.6zM192 664c9.6-19.2 115.2-65.6 320-65.6s310.4 46.4 320 65.6c-9.6 19.2-115.2 65.6-320 65.6s-310.4-46.4-320-65.6zM512 318.4c-142.4 0-384 27.2-384 129.6 0 17.6 14.4 32 32 32s32-14.4 32-32c6.4-17.6 112-65.6 320-65.6s313.6 48 320 67.2c0 17.6 14.4 32 32 32s32-14.4 32-32c0-104-241.6-131.2-384-131.2zM512 102.4c-142.4 0-384 27.2-384 129.6 0 17.6 14.4 32 32 32s32-14.4 32-32c6.4-17.6 112-65.6 320-65.6s313.6 48 320 67.2c0 17.6 14.4 32 32 32s32-14.4 32-32c0-104-241.6-131.2-384-131.2z" />
<glyph unicode="&#xe90f;" glyph-name="location" d="M512 64c-17.6 0-33.6 4.8-48 16-126.4 92.8-216 228.8-249.6 382.4 0 1.6 0 3.2 0 3.2-3.2 20.8-6.4 41.6-6.4 62.4 0 168 136 304 304 304s304-136 304-304c0-22.4-1.6-43.2-6.4-65.6 0-1.6 0-1.6 0-3.2-33.6-150.4-121.6-283.2-244.8-376l-9.6-6.4c-1.6 0-1.6-1.6-3.2-1.6-12.8-8-25.6-11.2-40-11.2zM278.4 473.6c32-137.6 110.4-259.2 225.6-342.4 3.2-1.6 9.6-4.8 16-1.6l6.4 4.8c110.4 83.2 188.8 201.6 219.2 336 0 1.6 0 1.6 0 3.2 4.8 17.6 6.4 35.2 6.4 54.4 0 132.8-107.2 240-240 240s-240-107.2-240-240c0-17.6 1.6-35.2 4.8-51.2 1.6-1.6 1.6-1.6 1.6-3.2zM512 392c-75.2 0-136 60.8-136 136s60.8 136 136 136c75.2 0 136-60.8 136-136s-60.8-136-136-136zM512 600c-40 0-72-32-72-72s32-72 72-72c40 0 72 32 72 72s-32 72-72 72z" />
<glyph unicode="&#xe910;" glyph-name="organizations" d="M800 528h-576c-17.6 0-32 14.4-32 32s14.4 32 32 32h576c17.6 0 32-14.4 32-32s-14.4-32-32-32zM800 528c-8 0-14.4 3.2-20.8 8l-267.2 222.4-268.8-222.4c-12.8-11.2-33.6-9.6-44.8 4.8-11.2 12.8-9.6 33.6 4.8 44.8l288 240c11.2 9.6 28.8 9.6 41.6 0l288-240c12.8-11.2 16-32 4.8-44.8-6.4-9.6-16-12.8-25.6-12.8zM729.6 192h-435.2c-17.6 0-32 14.4-32 32v243.2c0 17.6 14.4 32 32 32s32-14.4 32-32v-211.2h371.2v211.2c0 17.6 14.4 32 32 32s32-14.4 32-32v-243.2c0-17.6-14.4-32-32-32zM598.4 198.4c-17.6 0-32 14.4-32 32v224c0 17.6 14.4 32 32 32s32-14.4 32-32v-222.4c0-19.2-14.4-33.6-32-33.6zM433.6 203.2c-17.6 0-32 14.4-32 32v219.2c0 17.6 14.4 32 32 32s32-14.4 32-32v-219.2c0-17.6-14.4-32-32-32zM827.2 64h-630.4c-12.8 0-24 6.4-28.8 17.6s-4.8 24 3.2 33.6l97.6 128c11.2 14.4 30.4 17.6 44.8 6.4s17.6-30.4 6.4-44.8l-57.6-76.8h500.8l-59.2 76.8c-11.2 14.4-8 33.6 6.4 44.8s33.6 8 44.8-6.4l97.6-128c8-9.6 8-22.4 3.2-33.6-6.4-11.2-17.6-17.6-28.8-17.6z" />
<glyph unicode="&#xe911;" glyph-name="peer" d="M259.2 166.4c-35.2 0-67.2 14.4-92.8 38.4-51.2 51.2-51.2 134.4 0 187.2 24 25.6 57.6 38.4 92.8 38.4s67.2-14.4 92.8-38.4c51.2-51.2 51.2-134.4 0-187.2-25.6-24-59.2-38.4-92.8-38.4zM259.2 366.4c-17.6 0-33.6-6.4-46.4-19.2-25.6-27.2-25.6-70.4 0-96 12.8-12.8 28.8-19.2 46.4-19.2s33.6 6.4 46.4 19.2c25.6 27.2 25.6 70.4 0 96-12.8 12.8-28.8 19.2-46.4 19.2zM764.8 166.4c-35.2 0-67.2 14.4-92.8 38.4-51.2 51.2-51.2 134.4 0 187.2 24 25.6 57.6 38.4 92.8 38.4s67.2-14.4 92.8-38.4c51.2-51.2 51.2-134.4 0-187.2-24-24-57.6-38.4-92.8-38.4zM764.8 366.4c-17.6 0-33.6-6.4-46.4-19.2-25.6-27.2-25.6-70.4 0-96 12.8-12.8 28.8-19.2 46.4-19.2s33.6 6.4 46.4 19.2c25.6 27.2 25.6 70.4 0 96-11.2 12.8-28.8 19.2-46.4 19.2zM512 465.6c-35.2 0-67.2 14.4-92.8 38.4-51.2 51.2-51.2 134.4 0 187.2 24 25.6 57.6 38.4 92.8 38.4s67.2-14.4 92.8-38.4c51.2-51.2 51.2-134.4 0-187.2-25.6-25.6-57.6-38.4-92.8-38.4zM512 665.6c-17.6 0-33.6-6.4-46.4-19.2-25.6-27.2-25.6-70.4 0-96 12.8-12.8 28.8-19.2 46.4-19.2s33.6 6.4 46.4 19.2c25.6 27.2 25.6 70.4 0 96-12.8 11.2-28.8 19.2-46.4 19.2zM328 337.6c-6.4 0-12.8 1.6-19.2 6.4-14.4 9.6-17.6 30.4-6.4 44.8l113.6 156.8c9.6 14.4 30.4 17.6 44.8 6.4 14.4-9.6 17.6-30.4 6.4-44.8l-113.6-156.8c-6.4-8-16-12.8-25.6-12.8zM696 337.6c-9.6 0-19.2 4.8-25.6 12.8l-113.6 156.8c-11.2 14.4-8 33.6 6.4 44.8s33.6 8 44.8-6.4l113.6-156.8c11.2-14.4 8-33.6-6.4-44.8-6.4-4.8-12.8-6.4-19.2-6.4z" />
<glyph unicode="&#xe912;" glyph-name="search" d="M161.6 68.8c0 0 0 0 0 0-8 0-17.6 3.2-22.4 9.6l-1.6 1.6c-6.4 6.4-9.6 16-9.6 24s3.2 16 9.6 22.4l256 248c-38.4 49.6-59.2 110.4-57.6 174.4 1.6 75.2 32 145.6 84.8 196.8 110.4 107.2 289.6 105.6 396.8-6.4 107.2-110.4 105.6-289.6-6.4-396.8 0 0 0 0-1.6 0-102.4-97.6-262.4-102.4-372.8-14.4l-28.8-27.2-224-222.4c-4.8-6.4-12.8-9.6-22.4-9.6zM460.8 395.2c84.8-84.8 224-86.4 308.8-3.2 0 0 0 0 0 0 83.2 83.2 84.8 219.2 1.6 304-83.2 86.4-220.8 88-307.2 4.8-41.6-40-65.6-94.4-65.6-152s20.8-112 62.4-153.6v0z" />
<glyph unicode="&#xe913;" glyph-name="solid-bell" d="M569.6 750.4c4.8-9.6 8-19.2 8-22.4s-8-4.8-17.6-1.6c0 0-22.4 4.8-48 4.8s-48-4.8-48-4.8c-9.6-1.6-17.6-1.6-17.6 1.6s3.2 12.8 8 22.4c0 0 22.4 49.6 57.6 49.6 36.8 0 57.6-49.6 57.6-49.6zM596.8 163.2c9.6 1.6 12.8-3.2 6.4-11.2 0 0-44.8-57.6-91.2-57.6s-91.2 57.6-91.2 57.6c-6.4 8-3.2 12.8 6.4 11.2l67.2-8c9.6-1.6 25.6-1.6 35.2 0l67.2 8zM758.4 320v0l-44.8 158.4c-1.6 4.8-3.2 9.6-4.8 14.4l-1.6 6.4c0 1.6-1.6 3.2-1.6 6.4 0 1.6-1.6 3.2-1.6 4.8-1.6 3.2-1.6 6.4-3.2 9.6 0 0 0 1.6-1.6 6.4 0 1.6-1.6 3.2-1.6 4.8 0 0 0 1.6 0 1.6-32 91.2-65.6 163.2-185.6 163.2-116.8 0-152-70.4-184-160 0-1.6-1.6-3.2-1.6-3.2 0-1.6-1.6-3.2-1.6-3.2-1.6-4.8-3.2-8-3.2-8-1.6-3.2-1.6-6.4-3.2-9.6 0-1.6-1.6-3.2-1.6-4.8s-1.6-3.2-1.6-6.4l-1.6-6.4c-1.6-6.4-3.2-11.2-4.8-14.4l-43.2-160c-3.2-11.2 3.2-25.6 12.8-32 0 0 1.6-1.6 4.8-3.2 1.6-1.6 4.8-3.2 9.6-4.8 9.6-4.8 22.4-11.2 40-17.6 6.4-3.2 12.8-4.8 20.8-8 14.4-6.4 32-11.2 49.6-16 1.6 0 4.8-1.6 6.4-1.6 4.8-1.6 8-1.6 12.8-3.2 27.2-4.8 57.6-9.6 89.6-9.6s62.4 4.8 89.6 11.2c4.8 1.6 9.6 1.6 12.8 3.2 1.6 0 4.8 1.6 6.4 1.6 28.8 8 56 17.6 76.8 27.2 8 3.2 16 6.4 22.4 9.6 3.2 1.6 4.8 1.6 6.4 3.2 8 4.8 14.4 6.4 16 8 1.6 0 1.6 1.6 1.6 1.6s0 0 1.6 0c11.2 6.4 16 19.2 12.8 30.4z" />
<glyph unicode="&#xe914;" glyph-name="solid-chat" d="M843.2 720h-422.4c-11.2 0-20.8-9.6-20.8-20.8v-329.6c0-11.2 9.6-20.8 20.8-20.8h182.4c11.2 0 20.8-9.6 20.8-20.8v-54.4c0-1.6 0-1.6 0-1.6 0-9.6 6.4-11.2 14.4-3.2l65.6 65.6c8 8 24 14.4 35.2 14.4h107.2c11.2 0 20.8 9.6 20.8 20.8v329.6c-3.2 11.2-12.8 20.8-24 20.8zM588.8 515.2c0-11.2-9.6-20.8-20.8-20.8h-40c-11.2 0-20.8 9.6-20.8 20.8v40c0 11.2 9.6 20.8 20.8 20.8h40c11.2 0 20.8-9.6 20.8-20.8v-40zM756.8 515.2c0-11.2-9.6-20.8-20.8-20.8h-40c-11.2 0-20.8 9.6-20.8 20.8v40c0 11.2 9.6 20.8 20.8 20.8h40c11.2 0 20.8-9.6 20.8-20.8v-40zM563.2 313.6c11.2 0 20.8-9.6 20.8-20.8v-12.8c0-11.2-9.6-20.8-20.8-20.8h-142.4c-11.2 0-20.8-9.6-20.8-20.8v-54.4c0-11.2-6.4-14.4-14.4-6.4l-65.6 68.8c-8 8-24 14.4-33.6 14.4h-105.6c-11.2 0-20.8 9.6-20.8 20.8v329.6c0 11.2 9.6 20.8 20.8 20.8h160c11.2 0 20.8-9.6 20.8-20.8v-276.8c0-11.2 9.6-20.8 20.8-20.8h180.8z" />
<glyph unicode="&#xe915;" glyph-name="user-1" d="M528 318.4h-32c-92.8 0-168 75.2-168 168v176c0 94.4 75.2 169.6 168 169.6h32c92.8 0 168-75.2 168-168v-176c0-94.4-75.2-169.6-168-169.6zM496 768c-57.6 0-104-46.4-104-104v-176c0-57.6 46.4-104 104-104h32c57.6 0 104 46.4 104 104v176c0 57.6-46.4 104-104 104h-32zM172.8 64c-17.6 0-32 14.4-32 32v60.8c-1.6 67.2 144 116.8 276.8 148.8v41.6c0 17.6 14.4 32 32 32s32-14.4 32-32v-67.2c0-14.4-9.6-27.2-25.6-32-120-27.2-236.8-70.4-252.8-94.4v-59.2c1.6-16-12.8-30.4-30.4-30.4zM851.2 64c-17.6 0-32 14.4-32 32v59.2c-16 24-131.2 67.2-252.8 94.4-17.6 3.2-28.8 20.8-24 38.4 3.2 17.6 20.8 28.8 38.4 24 139.2-30.4 304-83.2 302.4-155.2v-59.2c0-19.2-14.4-33.6-32-33.6z" />
<glyph unicode="&#xe916;" glyph-name="user-2" d="M528 318.4h-32c-92.8 0-168 75.2-168 168v176c0 94.4 75.2 169.6 168 169.6h32c92.8 0 168-75.2 168-168v-176c0-94.4-75.2-169.6-168-169.6zM496 768c-57.6 0-104-46.4-104-104v-176c0-57.6 46.4-104 104-104h32c57.6 0 104 46.4 104 104v176c0 57.6-46.4 104-104 104h-32zM851.2 64h-678.4c-17.6 0-32 14.4-32 32v60.8c-1.6 67.2 144 116.8 276.8 148.8v41.6c0 17.6 14.4 32 32 32s32-14.4 32-32v-67.2c0-14.4-9.6-27.2-25.6-32-120-27.2-236.8-70.4-252.8-94.4v-25.6h648c17.6 0 32-14.4 32-32s-14.4-32-32-32zM851.2 64c-17.6 0-32 14.4-32 32v59.2c-16 24-131.2 67.2-252.8 94.4-17.6 3.2-28.8 20.8-24 38.4 3.2 17.6 20.8 28.8 38.4 24 139.2-30.4 304-83.2 302.4-155.2v-59.2c0-19.2-14.4-33.6-32-33.6z" />
<glyph unicode="&#xe917;" glyph-name="users" d="M585.6 324.8h-25.6c-81.6 0-148.8 72-148.8 160v166.4c0 88 67.2 160 148.8 160h27.2c81.6 0 148.8-72 148.8-160v-166.4c0-88-67.2-160-150.4-160zM560 747.2c-46.4 0-84.8-43.2-84.8-96v-166.4c0-52.8 38.4-96 84.8-96h27.2c46.4 0 84.8 43.2 84.8 96v166.4c0 52.8-38.4 96-84.8 96h-27.2zM864 84.8h-582.4c-17.6 0-32 14.4-32 32v57.6c-1.6 62.4 123.2 110.4 236.8 140.8v38.4c0 17.6 14.4 32 32 32s32-14.4 32-32v-62.4c0-14.4-9.6-27.2-24-30.4-102.4-25.6-200-65.6-212.8-86.4v-22.4h550.4c17.6 0 32-14.4 32-32s-14.4-35.2-32-35.2zM864 84.8c-17.6 0-32 14.4-32 32v56c-12.8 20.8-112 60.8-212.8 86.4-17.6 4.8-27.2 20.8-24 38.4 4.8 17.6 22.4 27.2 38.4 24 120-30.4 264-80 262.4-147.2v-56c0-19.2-14.4-33.6-32-33.6zM403.2 336h-20.8c-68.8 0-126.4 60.8-126.4 134.4v132.8c0 75.2 56 134.4 126.4 134.4h20.8c17.6 0 32-14.4 32-32s-14.4-32-32-32h-20.8c-33.6 0-62.4-32-62.4-70.4v-132.8c0-38.4 27.2-70.4 62.4-70.4h20.8c17.6 0 32-14.4 32-32s-14.4-32-32-32zM160 84.8c-17.6 0-32 14.4-32 32v107.2c-1.6 43.2 62.4 83.2 190.4 116.8v25.6c0 17.6 14.4 32 32 32s32-14.4 32-32v-51.2c0-14.4-9.6-27.2-24-30.4-75.2-19.2-152-48-166.4-65.6v-102.4c0-17.6-14.4-32-32-32z" />
<glyph unicode="&#xe918;" glyph-name="views" d="M512 320c-70.4 0-128 57.6-128 128s57.6 128 128 128 128-57.6 128-128-57.6-128-128-128zM512 512c-35.2 0-64-28.8-64-64s28.8-64 64-64 64 28.8 64 64c0 35.2-28.8 64-64 64zM512 192c-240 0-374.4 230.4-379.2 240-6.4 9.6-6.4 22.4 0 32 4.8 9.6 139.2 240 379.2 240s374.4-230.4 379.2-240c6.4-9.6 6.4-22.4 0-32-4.8-9.6-139.2-240-379.2-240zM198.4 448c33.6-48 145.6-192 313.6-192s281.6 144 313.6 192c-33.6 48-145.6 192-313.6 192s-281.6-144-313.6-192z" />
<glyph unicode="&#xe919;" glyph-name="wifi" d="M512 116.8c-52.8 0-97.6 43.2-97.6 97.6s43.2 97.6 97.6 97.6 97.6-43.2 97.6-97.6-44.8-97.6-97.6-97.6zM512 248c-17.6 0-33.6-14.4-33.6-33.6s14.4-33.6 33.6-33.6 33.6 14.4 33.6 33.6-16 33.6-33.6 33.6zM662.4 324.8c-9.6 0-19.2 3.2-24 11.2-32 38.4-76.8 59.2-126.4 59.2s-94.4-22.4-126.4-59.2c-11.2-14.4-32-16-44.8-4.8-14.4 11.2-16 32-4.8 44.8 43.2 52.8 107.2 83.2 176 83.2s132.8-30.4 176-83.2c11.2-14.4 9.6-33.6-4.8-44.8-6.4-4.8-12.8-6.4-20.8-6.4zM763.2 440c-9.6 0-19.2 4.8-24 11.2-56 68.8-139.2 107.2-227.2 107.2s-171.2-38.4-227.2-107.2c-11.2-14.4-32-16-44.8-4.8s-16 32-4.8 44.8c68.8 83.2 168 131.2 276.8 131.2s208-48 276.8-131.2c11.2-14.4 9.6-33.6-4.8-44.8-6.4-4.8-12.8-6.4-20.8-6.4zM864 547.2c-9.6 0-19.2 4.8-25.6 11.2-80 99.2-200 155.2-328 155.2s-246.4-56-328-155.2c-11.2-14.4-32-16-44.8-4.8-14.4 11.2-16 32-4.8 44.8 92.8 113.6 230.4 179.2 376 179.2s284.8-65.6 376-179.2c11.2-14.4 9.6-33.6-4.8-44.8-1.6-3.2-9.6-6.4-16-6.4z" />
<glyph unicode="&#xe91a;" glyph-name="angle-down" d="M512 275.2c-8 0-16 3.2-22.4 9.6l-280 280c-12.8 12.8-12.8 32 0 44.8s32 12.8 44.8 0l257.6-256 257.6 257.6c12.8 12.8 32 12.8 44.8 0s12.8-32 0-44.8l-280-281.6c-6.4-6.4-14.4-9.6-22.4-9.6z" />
<glyph unicode="&#xe91b;" glyph-name="angle-left" d="M652.8 136c-8 0-16 3.2-22.4 9.6l-281.6 280c-12.8 12.8-12.8 32 0 44.8l280 280c12.8 12.8 32 12.8 44.8 0s12.8-32 0-44.8l-256-257.6 257.6-257.6c12.8-12.8 12.8-32 0-44.8-6.4-6.4-14.4-9.6-22.4-9.6z" />
<glyph unicode="&#xe91c;" glyph-name="angle-right" d="M372.8 136c-8 0-16 3.2-22.4 9.6-12.8 12.8-12.8 32 0 44.8l256 257.6-257.6 257.6c-12.8 12.8-12.8 32 0 44.8s32 12.8 44.8 0l280-280c12.8-12.8 12.8-32 0-44.8l-278.4-280c-6.4-6.4-14.4-9.6-22.4-9.6z" />
<glyph unicode="&#xe91d;" glyph-name="angle-up" d="M792 275.2c-8 0-16 3.2-22.4 9.6l-257.6 257.6-257.6-257.6c-12.8-12.8-32-12.8-44.8 0s-12.8 32 0 44.8l280 280c12.8 12.8 32 12.8 44.8 0l280-280c12.8-12.8 12.8-32 0-44.8-6.4-6.4-14.4-9.6-22.4-9.6z" />
<glyph unicode="&#xe91e;" glyph-name="close" d="M792 136c-8 0-16 3.2-22.4 9.6l-560 560c-12.8 12.8-12.8 32 0 44.8s32 12.8 44.8 0l560-560c12.8-12.8 12.8-32 0-44.8-6.4-6.4-14.4-9.6-22.4-9.6zM232 136c-8 0-16 3.2-22.4 9.6-12.8 12.8-12.8 32 0 44.8l560 560c12.8 12.8 32 12.8 44.8 0s12.8-32 0-44.8l-560-560c-6.4-6.4-14.4-9.6-22.4-9.6z" />
<glyph unicode="&#xe91f;" glyph-name="new" d="M512 144c-22.4 0-40 17.6-40 40v382.4c0 22.4 17.6 40 40 40s40-17.6 40-40v-382.4c0-22.4-17.6-40-40-40zM704 336h-384c-22.4 0-40 17.6-40 40s17.6 40 40 40h384c22.4 0 40-17.6 40-40s-17.6-40-40-40zM512-64c-41.6 0-83.2 6.4-124.8 17.6-20.8 6.4-33.6 28.8-27.2 49.6s28.8 33.6 49.6 27.2c129.6-36.8 268.8-1.6 363.2 92.8 144 144 144 377.6 0 520-70.4 70.4-163.2 108.8-260.8 108.8s-190.4-38.4-260.8-107.2c-120-121.6-142.4-307.2-52.8-452.8 11.2-19.2 4.8-43.2-12.8-54.4-19.2-11.2-43.2-4.8-54.4 12.8-110.4 177.6-83.2 403.2 64 550.4 84.8 84.8 196.8 131.2 316.8 131.2s232-46.4 316.8-131.2c174.4-174.4 174.4-459.2 0-633.6-84.8-84.8-200-131.2-316.8-131.2z" />
<glyph unicode="&#xe920;" glyph-name="send" d="M182.4 340.8l83.2-32c27.2-11.2 70.4-4.8 94.4 12.8l360 283.2c24 19.2 25.6 16 6.4-6.4l-284.8-304c-20.8-22.4-14.4-49.6 12.8-59.2l9.6-3.2c28.8-11.2 73.6-28.8 102.4-40l68.8-24c36.8-12.8 73.6 8 84.8 43.2l144 488c8 28.8-8 41.6-33.6 27.2l-651.2-339.2c-27.2-14.4-25.6-35.2 3.2-46.4z" />
<glyph unicode="&#xe921;" glyph-name="sound" d="M192 348.8c0-11.2 8-24 17.6-28.8l417.6-188.8c9.6-4.8 17.6 0 17.6 11.2v611.2c0 11.2-8 16-17.6 11.2l-417.6-188.8c-9.6-4.8-17.6-17.6-17.6-28.8v-198.4zM896 448c0-64-80-123.2-99.2-137.6 0 0 0 0 0 0-3.2-1.6-4.8-3.2-4.8-3.2-9.6-6.4-25.6-12.8-35.2-14.4-9.6-3.2-19.2 4.8-19.2 16l-1.6 179.2-1.6 99.2c0 11.2 8 17.6 19.2 16s27.2-9.6 36.8-14.4c1.6-1.6 105.6-68.8 105.6-140.8z" />
<glyph unicode="&#xe922;" glyph-name="sound-mute" d="M896 448c0-64-80-123.2-99.2-137.6 0 0 0 0 0 0-3.2-1.6-4.8-3.2-4.8-3.2-9.6-6.4-25.6-12.8-35.2-14.4-9.6-3.2-19.2 4.8-19.2 16l-1.6 179.2-1.6 99.2c0 11.2 8 17.6 19.2 16s27.2-9.6 36.8-14.4c1.6-1.6 105.6-68.8 105.6-140.8zM628.8 131.2c9.6-4.8 17.6 0 17.6 11.2v345.6l-292.8-232 275.2-124.8zM792 737.6c-12.8 16-33.6 17.6-49.6 6.4l-96-76.8v86.4c0 11.2-8 16-17.6 11.2l-419.2-188.8c-9.6-4.8-17.6-17.6-17.6-28.8v-200c0-11.2 8-24 17.6-28.8l-84.8-67.2c-16-12.8-17.6-33.6-6.4-49.6 6.4-8 17.6-12.8 27.2-12.8 8 0 16 3.2 22.4 8l619.2 491.2c14.4 12.8 17.6 35.2 4.8 49.6z" />
<glyph unicode="&#xe923;" glyph-name="plus" d="M512 64c-17.6 0-32 14.4-32 32v704c0 17.6 14.4 32 32 32s32-14.4 32-32v-704c0-17.6-14.4-32-32-32zM864 416h-704c-17.6 0-32 14.4-32 32s14.4 32 32 32h704c17.6 0 32-14.4 32-32s-14.4-32-32-32z" />
<glyph unicode="&#xe924;" glyph-name="solid-star" d="M542.4 763.2l67.2-182.4c4.8-12.8 16-20.8 28.8-20.8l193.6-8c30.4-1.6 41.6-38.4 19.2-57.6l-152-120c-9.6-8-14.4-20.8-11.2-33.6l52.8-187.2c8-28.8-24-52.8-49.6-35.2l-161.6 107.2c-11.2 8-25.6 8-35.2 0l-161.6-107.2c-25.6-16-57.6 6.4-49.6 35.2l52.8 185.6c3.2 12.8-1.6 25.6-11.2 33.6l-152 120c-24 19.2-11.2 56 19.2 57.6l193.6 9.6c12.8 0 24 9.6 28.8 20.8l67.2 182.4c11.2 28.8 49.6 28.8 60.8 0z" />
<glyph unicode="&#xe925;" glyph-name="info" d="M512-64c-41.6 0-83.2 6.4-124.8 17.6-20.8 6.4-33.6 28.8-27.2 49.6s28.8 33.6 49.6 27.2c129.6-36.8 268.8-1.6 363.2 92.8 144 144 144 377.6 0 520-70.4 70.4-163.2 108.8-260.8 108.8s-190.4-38.4-260.8-107.2c-120-121.6-142.4-307.2-52.8-452.8 11.2-19.2 4.8-43.2-12.8-54.4-19.2-11.2-43.2-4.8-54.4 12.8-110.4 177.6-83.2 403.2 64 550.4 84.8 84.8 196.8 131.2 316.8 131.2s232-46.4 316.8-131.2c174.4-174.4 174.4-459.2 0-633.6-84.8-84.8-200-131.2-316.8-131.2zM512 158.4c-22.4 0-40 17.6-40 40v230.4c0 22.4 17.6 40 40 40s40-17.6 40-40v-230.4c0-22.4-17.6-40-40-40zM512 510.4c-22.4 0-40 17.6-40 40v19.2c0 22.4 17.6 40 40 40s40-17.6 40-40v-19.2c0-22.4-17.6-40-40-40z" />
<glyph unicode="&#xe926;" glyph-name="upload" d="M288 504c-17.6 0-32 14.4-32 32 0 115.2 100.8 208 224 208 97.6 0 182.4-57.6 212.8-144 6.4-16-3.2-35.2-19.2-41.6s-35.2 3.2-41.6 19.2c-20.8 59.2-83.2 100.8-153.6 100.8-88 0-160-64-160-144 1.6-16-12.8-30.4-30.4-30.4zM704 270.4c-17.6 0-32 14.4-32 32s14.4 32 32 32c70.4 0 128 51.2 128 113.6s-57.6 113.6-128 113.6c-11.2 0-22.4-1.6-33.6-4.8-17.6-4.8-35.2 6.4-38.4 24-4.8 17.6 6.4 35.2 24 38.4 16 3.2 32 6.4 48 6.4 105.6 0 192-80 192-177.6s-86.4-177.6-192-177.6zM384 270.4h-96c-17.6 0-32 14.4-32 32s14.4 32 32 32h96c17.6 0 32-14.4 32-32s-14.4-32-32-32zM704 270.4h-64c-17.6 0-32 14.4-32 32s14.4 32 32 32h64c17.6 0 32-14.4 32-32s-14.4-32-32-32zM288 270.4c-88 0-160 67.2-160 148.8s72 148.8 160 148.8c17.6 0 32-14.4 32-32s-14.4-32-32-32c-52.8 0-96-38.4-96-84.8s43.2-84.8 96-84.8c17.6 0 32-14.4 32-32s-14.4-32-32-32zM512 152c-17.6 0-32 14.4-32 32v292.8c0 17.6 14.4 32 32 32s32-14.4 32-32v-292.8c0-17.6-14.4-32-32-32zM416 356.8c-8 0-17.6 3.2-24 11.2-11.2 12.8-11.2 33.6 1.6 44.8l96 88c12.8 11.2 33.6 11.2 44.8-1.6s11.2-33.6-1.6-44.8l-96-88c-4.8-6.4-12.8-9.6-20.8-9.6zM608 356.8c-8 0-16 3.2-20.8 8l-96 88c-12.8 11.2-14.4 32-1.6 44.8 11.2 12.8 32 14.4 44.8 1.6l96-88c12.8-11.2 14.4-32 1.6-44.8-6.4-4.8-16-9.6-24-9.6z" />
<glyph unicode="&#xe927;" glyph-name="edit" d="M864 64h-704c-17.6 0-32 14.4-32 32v704c0 17.6 14.4 32 32 32h211.2c17.6 0 32-14.4 32-32s-14.4-32-32-32h-179.2v-640h640v209.6c0 17.6 14.4 32 32 32s32-14.4 32-32v-241.6c0-17.6-14.4-32-32-32zM483.2 387.2c-8 0-16 3.2-22.4 9.6-12.8 12.8-12.8 32 0 44.8l352 352c12.8 12.8 32 12.8 44.8 0s12.8-32 0-44.8l-352-352c-6.4-6.4-14.4-9.6-22.4-9.6z" />
<glyph unicode="&#xe928;" glyph-name="solid-subutai-console" d="M808 566.4h-86.4c-30.4 3.2-81.6 16-88 84.8v94.4c0 30.4-24 54.4-54.4 54.4h-126.4c-30.4 0-54.4-24-54.4-54.4v-126.4c0-30.4 24-54.4 54.4-54.4h75.2c80-3.2 96-48 99.2-88v-91.2c0-30.4 24-54.4 54.4-54.4h126.4c30.4 0 54.4 24 54.4 54.4v126.4c-1.6 30.4-25.6 54.4-54.4 54.4zM569.6 329.6h-86.4c-30.4 3.2-81.6 16-88 84.8v94.4c0 30.4-24 54.4-54.4 54.4h-126.4c-30.4 0-54.4-24-54.4-54.4v-124.8c0-30.4 24-54.4 54.4-54.4h73.6c80-3.2 96-48 99.2-88v-91.2c0-30.4 24-54.4 54.4-54.4h126.4c30.4 0 54.4 24 54.4 54.4v126.4c1.6 28.8-22.4 52.8-52.8 52.8z" />
<glyph unicode="&#xe929;" glyph-name="solid-caret-down" d="M347.2 614.4h329.6c14.4 0 25.6-16 17.6-28.8l-164.8-331.2c-8-14.4-28.8-14.4-36.8 0l-164.8 329.6c-6.4 14.4 3.2 30.4 19.2 30.4z" />
<glyph unicode="&#xe92a;" glyph-name="solid-caret-left" d="M697.6 283.2v329.6c0 14.4-16 25.6-28.8 17.6l-331.2-164.8c-14.4-8-14.4-28.8 0-36.8l329.6-164.8c14.4-6.4 30.4 3.2 30.4 19.2z" />
<glyph unicode="&#xe92b;" glyph-name="solid-caret-right" d="M326.4 283.2v329.6c0 14.4 16 25.6 28.8 17.6l329.6-164.8c14.4-8 14.4-28.8 0-36.8l-328-164.8c-14.4-6.4-30.4 3.2-30.4 19.2z" />
<glyph unicode="&#xe92c;" glyph-name="solid-caret-up" d="M347.2 262.4h329.6c14.4 0 25.6 16 17.6 28.8l-164.8 331.2c-8 14.4-28.8 14.4-36.8 0l-164.8-329.6c-6.4-14.4 3.2-30.4 19.2-30.4z" />
<glyph unicode="&#xe92d;" glyph-name="check" d="M419.2 196.8c-17.6 0-33.6 6.4-44.8 19.2l-187.2 187.2c-25.6 25.6-25.6 65.6 0 91.2s65.6 25.6 91.2 0l140.8-140.8 328 328c25.6 25.6 65.6 25.6 91.2 0s25.6-65.6 0-91.2l-374.4-374.4c-12.8-11.2-28.8-19.2-44.8-19.2z" />
<glyph unicode="&#xe92e;" glyph-name="extra" d="M593.686 747.2c0 46.4-36.8 84.8-81.6 84.8s-81.6-38.4-81.6-84.8 36.8-84.8 81.6-84.8c44.8-1.6 81.6 36.8 81.6 84.8v0zM593.686 448c0 46.4-36.8 84.8-81.6 84.8s-81.6-38.4-81.6-84.8c0-46.4 36.8-84.8 81.6-84.8s81.6 38.4 81.6 84.8v0zM593.686 148.8c0 46.4-36.8 84.8-81.6 84.8s-81.6-38.4-81.6-84.8c0-46.4 36.8-84.8 81.6-84.8s81.6 38.4 81.6 84.8v0z" />
<glyph unicode="&#xe92f;" glyph-name="time" d="M676.8 305.6h-185.6c-11.2 0-20.8 4.8-28.8 11.2-8 8-11.2 17.6-11.2 28.8v259.2c0 22.4 17.6 40 40 40 0 0 0 0 0 0 22.4 0 40-17.6 40-40v-219.2h145.6c22.4 0 40-17.6 40-40s-17.6-40-40-40zM520-64c-115.2 0-230.4 44.8-316.8 131.2-174.4 174.4-174.4 459.2 0 633.6 84.8 84.8 196.8 131.2 316.8 131.2s232-46.4 316.8-131.2c115.2-115.2 158.4-284.8 113.6-441.6-6.4-20.8-28.8-33.6-49.6-27.2s-33.6 28.8-27.2 49.6c36.8 129.6 1.6 268.8-92.8 363.2-70.4 68.8-163.2 107.2-260.8 107.2s-190.4-38.4-260.8-107.2c-144-144-144-377.6 0-520 120-120 307.2-142.4 452.8-54.4 19.2 11.2 43.2 6.4 54.4-12.8s4.8-43.2-12.8-54.4c-72-46.4-153.6-67.2-233.6-67.2z" />
<glyph unicode="&#xe930;" glyph-name="unverifyed" d="M648 200c-9.6 0-20.8 3.2-28.8 11.2l-270.4 272c-16 16-16 41.6 0 56 16 16 41.6 16 56 0l270.4-270.4c16-16 16-41.6 0-56-8-8-17.6-12.8-27.2-12.8zM376 200c-9.6 0-20.8 3.2-28.8 11.2-16 16-16 41.6 0 56l270.4 270.4c16 16 41.6 16 56 0 16-16 16-41.6 0-56l-268.8-270.4c-8-6.4-17.6-11.2-28.8-11.2zM512-64c-41.6 0-83.2 6.4-124.8 17.6-20.8 6.4-33.6 28.8-27.2 49.6s28.8 33.6 49.6 27.2c129.6-36.8 268.8-1.6 363.2 92.8 144 144 144 377.6 0 520-70.4 70.4-163.2 108.8-260.8 108.8s-190.4-38.4-260.8-107.2c-120-121.6-142.4-307.2-52.8-452.8 11.2-19.2 4.8-43.2-12.8-54.4-19.2-11.2-43.2-4.8-54.4 12.8-110.4 177.6-83.2 403.2 64 550.4 84.8 84.8 196.8 131.2 316.8 131.2s232-46.4 316.8-131.2c174.4-174.4 174.4-459.2 0-633.6-84.8-84.8-200-131.2-316.8-131.2z" />
<glyph unicode="&#xe931;" glyph-name="verifyed" d="M512 222.4c-9.6 0-19.2 3.2-27.2 11.2l-204.8 192c-16 14.4-17.6 40-1.6 56 14.4 16 40 17.6 56 1.6l174.4-163.2 324.8 385.6c14.4 17.6 40 19.2 56 4.8 17.6-14.4 19.2-40 4.8-56l-352-417.6c-6.4-8-17.6-12.8-28.8-14.4 0 0-1.6 0-1.6 0zM512-64c-152 0-299.2 76.8-384 214.4-60.8 102.4-80 222.4-51.2 339.2s99.2 214.4 201.6 276.8c139.2 84.8 315.2 88 456 6.4 19.2-11.2 25.6-35.2 14.4-54.4s-35.2-25.6-54.4-14.4c-115.2 65.6-259.2 64-374.4-6.4-83.2-51.2-142.4-131.2-166.4-227.2-22.4-96-8-193.6 43.2-278.4 107.2-172.8 332.8-227.2 507.2-121.6 145.6 89.6 211.2 264 158.4 427.2-6.4 20.8 4.8 43.2 25.6 49.6s43.2-4.8 49.6-25.6c64-198.4-16-411.2-193.6-520-72-44.8-152-65.6-232-65.6z" />
<glyph unicode="&#xe932;" glyph-name="settings" d="M512 296c-88 0-160 72-160 160s72 160 160 160 160-72 160-160c0-88-72-160-160-160zM859.2 500.8c-1.6 11.2-9.6 20.8-19.2 24l-56 19.2c-3.2 9.6-6.4 17.6-11.2 27.2l25.6 52.8c4.8 9.6 3.2 22.4-3.2 30.4-20.8 28.8-46.4 54.4-75.2 75.2-9.6 6.4-20.8 8-30.4 3.2l-52.8-25.6c-8 4.8-17.6 8-27.2 11.2l-19.2 56c-3.2 11.2-12.8 17.6-24 19.2-38.4 6.4-67.2 6.4-107.2 0-11.2-1.6-20.8-9.6-24-19.2l-19.2-56c-9.6-3.2-17.6-6.4-27.2-11.2l-52.8 25.6c-9.6 4.8-22.4 3.2-30.4-3.2-28.8-20.8-54.4-46.4-75.2-75.2-6.4-9.6-8-20.8-3.2-30.4l25.6-52.8c-4.8-8-8-17.6-11.2-27.2l-56-19.2c-11.2-3.2-17.6-12.8-19.2-24-3.2-19.2-4.8-36.8-4.8-52.8s1.6-33.6 4.8-52.8c1.6-11.2 9.6-20.8 19.2-24l56-19.2c3.2-9.6 6.4-17.6 11.2-27.2l-25.6-52.8c-4.8-9.6-3.2-22.4 3.2-30.4 20.8-28.8 46.4-54.4 75.2-75.2 9.6-6.4 20.8-8 30.4-3.2l52.8 25.6c8-4.8 17.6-8 27.2-11.2l19.2-56c3.2-11.2 12.8-17.6 24-19.2 19.2-3.2 36.8-4.8 52.8-4.8s33.6 1.6 52.8 4.8c11.2 1.6 20.8 9.6 24 19.2l19.2 56c9.6 3.2 17.6 6.4 27.2 11.2l52.8-25.6c9.6-4.8 22.4-3.2 30.4 3.2 28.8 20.8 54.4 46.4 75.2 75.2 6.4 9.6 8 20.8 3.2 30.4l-25.6 52.8c4.8 8 8 17.6 11.2 27.2l56 19.2c11.2 3.2 17.6 12.8 19.2 24 3.2 19.2 4.8 36.8 4.8 52.8 1.6 16 0 33.6-3.2 52.8z" />
<glyph unicode="&#xe933;" glyph-name="last-login" d="M819.2 420.7h-337.6c-17.6 0-32 14.4-32 32s14.4 32 32 32h260.8l-52.8 54.4c-12.8 12.8-12.8 32 0 44.8s32 12.8 44.8 0l107.2-107.2c9.6-9.6 11.2-22.4 6.4-35.2-3.2-12.8-16-20.8-28.8-20.8zM712 313.6c-8 0-16 3.2-22.4 9.6-12.8 12.8-12.8 32 0 44.8l52.8 52.8h-260.8c-17.6 0-32 14.4-32 32s14.4 32 32 32h337.6c12.8 0 24-8 28.8-19.2s1.6-25.6-6.4-35.2l-107.2-107.2c-6.4-6.4-14.4-9.6-22.4-9.6zM539.2 64h-216c-83.2 0-150.4 67.2-150.4 150.4v467.2c0 83.2 67.2 150.4 150.4 150.4h217.6c83.2 0 150.4-67.2 150.4-150.4 0-17.6-14.4-32-32-32s-32 14.4-32 32c0 48-38.4 86.4-86.4 86.4h-217.6c-48 0-86.4-38.4-86.4-86.4v-467.2c0-48 38.4-86.4 86.4-86.4h217.6c48 0 86.4 38.4 86.4 86.4 0 17.6 14.4 32 32 32s32-14.4 32-32c-1.6-83.2-68.8-150.4-152-150.4z" />
<glyph unicode="&#xe934;" glyph-name="kurjun" d="M475.2 412.8c-6.4 0-12.8 1.6-17.6 4.8l-148.8 102.4c-14.4 9.6-17.6 30.4-8 44.8s30.4 17.6 44.8 8l148.8-102.4c14.4-9.6 17.6-30.4 8-44.8-6.4-8-17.6-12.8-27.2-12.8zM321.6 318.4c-11.2 0-22.4 6.4-28.8 16-8 16-3.2 35.2 12.8 43.2l158.4 86.4c16 8 35.2 3.2 43.2-12.8s3.2-35.2-12.8-43.2l-158.4-86.4c-3.2-3.2-8-3.2-14.4-3.2zM697.6 299.2h-142.4c-17.6 0-32 14.4-32 32s14.4 32 32 32h142.4c17.6 0 32-14.4 32-32s-12.8-32-32-32zM776 134.4h-528c-65.6 0-120 54.4-120 120v387.2c0 65.6 54.4 120 120 120h528c65.6 0 120-54.4 120-120v-387.2c0-67.2-54.4-120-120-120zM248 697.6c-30.4 0-56-25.6-56-56v-387.2c0-30.4 25.6-56 56-56h528c30.4 0 56 25.6 56 56v387.2c0 30.4-25.6 56-56 56h-528z" />
<glyph unicode="&#xe935;" glyph-name="invitation" d="M731.2 256c-6.4 0-12.8 1.6-19.2 6.4l-116.8 86.4c-14.4 11.2-17.6 30.4-6.4 44.8s30.4 17.6 44.8 6.4l116.8-86.4c14.4-11.2 17.6-30.4 6.4-44.8-6.4-8-16-12.8-25.6-12.8zM302.4 256c-9.6 0-19.2 4.8-25.6 12.8-11.2 14.4-8 33.6 6.4 44.8l116.8 86.4c14.4 11.2 33.6 8 44.8-6.4s8-33.6-6.4-44.8l-116.8-86.4c-6.4-3.2-12.8-6.4-19.2-6.4zM512 416c-9.6 0-19.2 4.8-25.6 12.8-11.2 14.4-8 33.6 6.4 44.8l332.8 246.4c14.4 11.2 33.6 8 44.8-6.4s8-33.6-6.4-44.8l-332.8-246.4c-6.4-4.8-12.8-6.4-19.2-6.4zM804.8 153.6h-585.6c-17.6 0-32 14.4-32 32s14.4 32 32 32h587.2c14.4 0 27.2 11.2 27.2 27.2v406.4c0 14.4-11.2 27.2-27.2 27.2h-294.4c-17.6 0-32 14.4-32 32s14.4 32 32 32h292.8c49.6 0 91.2-40 91.2-91.2v-406.4c0-49.6-40-91.2-91.2-91.2zM512 416c-6.4 0-12.8 1.6-19.2 6.4l-332.8 246.4c-14.4 11.2-17.6 30.4-6.4 44.8s30.4 17.6 44.8 6.4l332.8-246.4c14.4-11.2 17.6-30.4 6.4-44.8-6.4-8-16-12.8-25.6-12.8zM804.8 153.6h-585.6c-49.6 0-91.2 40-91.2 91.2v406.4c0 49.6 40 91.2 91.2 91.2h292.8c17.6 0 32-14.4 32-32s-14.4-32-32-32h-292.8c-14.4 0-27.2-11.2-27.2-27.2v-406.4c0-14.4 11.2-27.2 27.2-27.2h587.2c14.4 0 27.2 11.2 27.2 27.2v414.4c0 17.6 14.4 32 32 32s32-14.4 32-32v-414.4c-1.6-49.6-41.6-91.2-92.8-91.2z" />
<glyph unicode="&#xe936;" glyph-name="github" d="M417.6 64c-17.6 0-32 14.4-32 32v33.6c0 6.4 0 12.8 0 19.2-4.8 0-11.2 0-17.6 0-16 0-32 1.6-48 4.8-19.2 3.2-38.4 11.2-54.4 24-17.6 12.8-30.4 30.4-36.8 51.2l-6.4 12.8c-3.2 6.4-8 16-16 24-8 9.6-12.8 12.8-14.4 14.4s-3.2 1.6-4.8 3.2l-4.8 3.2c-4.8 3.2-9.6 8-14.4 12.8s-8 11.2-11.2 17.6c-8 17.6-1.6 36.8 16 48 8 4.8 19.2 6.4 33.6 6.4 1.6 0 3.2 0 4.8 0l12.8-1.6c14.4-3.2 27.2-9.6 43.2-19.2 16-11.2 28.8-25.6 40-41.6 8-12.8 16-22.4 24-28.8 8-4.8 16-8 22.4-8 11.2 0 20.8 1.6 28.8 1.6 1.6 0 4.8 1.6 6.4 1.6 1.6 4.8 3.2 11.2 4.8 16-6.4 1.6-12.8 3.2-17.6 4.8-20.8 4.8-43.2 14.4-65.6 27.2-24 12.8-43.2 28.8-59.2 49.6-16 19.2-28.8 44.8-38.4 75.2s-14.4 64-14.4 102.4c0 51.2 14.4 96 44.8 134.4-11.2 40-8 83.2 11.2 129.6 3.2 9.6 11.2 16 20.8 19.2 19.2 6.4 43.2 3.2 73.6-9.6 25.6-9.6 43.2-19.2 56-25.6 6.4-3.2 11.2-6.4 16-9.6 73.6 17.6 152 17.6 225.6 0l11.2 8c17.6 11.2 38.4 20.8 62.4 30.4 28.8 11.2 52.8 12.8 70.4 8 9.6-3.2 16-9.6 19.2-19.2 19.2-46.4 22.4-89.6 11.2-129.6 28.8-38.4 44.8-83.2 44.8-134.4 0-38.4-4.8-72-14.4-102.4s-22.4-56-38.4-75.2c-16-19.2-35.2-35.2-59.2-48-22.4-12.8-44.8-20.8-65.6-27.2-4.8-1.6-11.2-3.2-17.6-4.8 6.4-17.6 9.6-40 9.6-64v-129.6c0-17.6-14.4-32-32-32s-32 14.4-32 32v129.6c0 30.4-6.4 51.2-20.8 62.4-9.6 8-12.8 22.4-9.6 33.6 3.2 12.8 14.4 20.8 27.2 22.4 20.8 1.6 41.6 6.4 57.6 9.6 16 4.8 33.6 11.2 51.2 20.8 16 9.6 30.4 20.8 40 33.6 11.2 12.8 19.2 30.4 27.2 54.4s11.2 51.2 11.2 83.2c0 41.6-12.8 75.2-40 105.6-8 9.6-11.2 22.4-6.4 33.6 9.6 24 11.2 51.2 1.6 81.6-4.8-1.6-9.6-3.2-16-4.8-19.2-8-36.8-16-51.2-24l-22.4-14.4c-8-4.8-17.6-6.4-25.6-3.2-70.4 19.2-148.8 19.2-219.2 0-9.6-3.2-19.2-1.6-27.2 4.8-6.4 4.8-14.4 9.6-24 16-6.4 3.2-19.2 11.2-46.4 20.8-8 3.2-12.8 4.8-17.6 6.4-8-30.4-8-57.6 1.6-81.6 4.8-11.2 1.6-24-6.4-33.6-27.2-28.8-40-64-40-105.6 0-32 3.2-59.2 11.2-83.2 6.4-22.4 16-41.6 27.2-54.4s24-24 40-33.6c17.6-9.6 35.2-17.6 51.2-20.8 17.6-4.8 36.8-8 57.6-9.6 12.8-1.6 22.4-9.6 27.2-22.4s0-25.6-9.6-33.6c-11.2-9.6-17.6-24-19.2-43.2-1.6-11.2-8-20.8-17.6-24-3.2-1.6-8-3.2-11.2-4.8 6.4 0 12.8-3.2 17.6-8 8-6.4 11.2-14.4 11.2-24 0-16 0-33.6 0-54.4v-33.6c3.2-24-9.6-38.4-28.8-38.4 0 0 0 0 0 0z" />
<glyph unicode="&#xe937;" glyph-name="cloud-provider" d="M288 513.6c-17.6 0-32 14.4-32 32 0 123.2 104 227.2 227.2 227.2 96 0 184-64 216-153.6 6.4-16-3.2-35.2-19.2-41.6s-35.2 3.2-41.6 19.2c-22.4 64-88 112-155.2 112-88 0-163.2-75.2-163.2-163.2 0-17.6-14.4-32-32-32zM704 256c-17.6 0-32 14.4-32 32s14.4 32 32 32c72 0 128 56 128 128s-56 128-128 128c-11.2 0-20.8 0-30.4-3.2-17.6-4.8-35.2 3.2-40 20.8-4.8 16 3.2 35.2 20.8 40 19.2 6.4 35.2 6.4 49.6 6.4 105.6 0 192-86.4 192-192s-86.4-192-192-192zM385.6 252.8h-97.6c-17.6 0-32 14.4-32 32s14.4 32 32 32h97.6c17.6 0 32-14.4 32-32s-14.4-32-32-32zM708.8 252.8h-67.2c-17.6 0-32 14.4-32 32s14.4 32 32 32h67.2c17.6 0 32-14.4 32-32s-14.4-32-32-32zM288 252.8c-88 0-160 72-160 160s72 160 160 160c17.6 0 32-14.4 32-32s-14.4-32-32-32c-52.8 0-96-43.2-96-96s43.2-96 96-96c17.6 0 32-14.4 32-32s-14.4-32-32-32zM513.6 123.2c-17.6 0-32 14.4-32 32v323.2c0 17.6 14.4 32 32 32s32-14.4 32-32v-323.2c0-17.6-14.4-32-32-32zM417.6 348.8c-8 0-16 3.2-22.4 9.6-12.8 12.8-12.8 32 0 44.8l97.6 97.6c12.8 12.8 32 12.8 44.8 0s12.8-32 0-44.8l-97.6-97.6c-6.4-6.4-14.4-9.6-22.4-9.6zM611.2 348.8c-8 0-16 3.2-22.4 9.6l-97.6 97.6c-12.8 12.8-12.8 32 0 44.8s32 12.8 44.8 0l97.6-97.6c12.8-12.8 12.8-32 0-44.8-4.8-6.4-14.4-9.6-22.4-9.6z" />
<glyph unicode="&#xe938;" glyph-name="billing" d="M715.2 64h-406.4c-49.6 0-91.2 40-91.2 91.2v585.6c0 49.6 40 91.2 91.2 91.2h20.8c17.6 0 32-14.4 32-32s-14.4-32-32-32h-20.8c-14.4 0-27.2-11.2-27.2-27.2v-587.2c0-14.4 11.2-27.2 27.2-27.2h404.8c14.4 0 27.2 11.2 27.2 27.2v587.2c0 14.4-11.2 27.2-27.2 27.2h-232c-17.6 0-32 14.4-32 32s14.4 32 32 32h232c49.6 0 91.2-40 91.2-91.2v-587.2c0-49.6-40-89.6-89.6-89.6zM668.8 536h-307.2c-17.6 0-32 14.4-32 32s14.4 32 32 32h307.2c17.6 0 32-14.4 32-32s-14.4-32-32-32zM662.4 438.4h-294.4c-17.6 0-32 14.4-32 32s14.4 32 32 32h296c17.6 0 32-14.4 32-32s-16-32-33.6-32zM537.6 339.2h-164.8c-17.6 0-32 14.4-32 32s14.4 32 32 32h164.8c17.6 0 32-14.4 32-32s-14.4-32-32-32zM662.4 339.2h-51.2c-17.6 0-32 14.4-32 32s14.4 32 32 32h51.2c17.6 0 32-14.4 32-32s-14.4-32-32-32z" />
</font>
</defs>
</svg>
