<?xml version="1.0" encoding="utf-8"?>
<!-- Generator: Adobe Illustrator 17.1.0, SVG Export Plug-In . SVG Version: 6.00 Build 0)  -->
<!DOCTYPE svg PUBLIC "-//W3C//DTD SVG 1.1//EN" "http://www.w3.org/Graphics/SVG/1.1/DTD/svg11.dtd">
<svg version="1.1" id="Layer_1" xmlns="http://www.w3.org/2000/svg" xmlns:xlink="http://www.w3.org/1999/xlink" x="0px" y="0px"
	 viewBox="0 0 550 182.6" enable-background="new 0 0 550 182.6" xml:space="preserve">
<g>
	<line fill="none" stroke="#D4D9E3" stroke-miterlimit="10" x1="21.1" y1="5" x2="550" y2="5"/>
	<line fill="none" stroke="#D4D9E3" stroke-miterlimit="10" x1="21.1" y1="44.8" x2="550" y2="44.8"/>
	<line fill="none" stroke="#D4D9E3" stroke-miterlimit="10" x1="21.1" y1="84.9" x2="550" y2="84.9"/>
	<line fill="none" stroke="#D4D9E3" stroke-miterlimit="10" x1="21.1" y1="125.1" x2="550" y2="125.1"/>
	<line fill="none" stroke="#D4D9E3" stroke-miterlimit="10" x1="21.1" y1="165.2" x2="550" y2="165.2"/>
	<line fill="none" stroke="#D4D9E3" stroke-miterlimit="10" x1="96.8" y1="165.4" x2="96.8" y2="5"/>
	<line fill="none" stroke="#D4D9E3" stroke-miterlimit="10" x1="172.5" y1="165.4" x2="172.5" y2="5"/>
	<line fill="none" stroke="#D4D9E3" stroke-miterlimit="10" x1="247.2" y1="165.4" x2="247.2" y2="5"/>
	<line fill="none" stroke="#D4D9E3" stroke-miterlimit="10" x1="322.9" y1="165.4" x2="322.9" y2="5"/>
	<line fill="none" stroke="#D4D9E3" stroke-miterlimit="10" x1="398.6" y1="165.4" x2="398.6" y2="5"/>
	<line fill="none" stroke="#D4D9E3" stroke-miterlimit="10" x1="474.3" y1="165.4" x2="474.3" y2="5"/>
	<line fill="none" stroke="#D4D9E3" stroke-miterlimit="10" x1="474.3" y1="165.4" x2="474.3" y2="5"/>
	<g>
		<g>
			<path fill="#697490" d="M10.6,171.4c-1,0-1.8-0.4-2.3-1.2c-0.5-0.8-0.8-1.9-0.8-3.4s0.3-2.7,0.8-3.4c0.5-0.8,1.3-1.2,2.3-1.2
				c1,0,1.8,0.4,2.3,1.2s0.8,1.9,0.8,3.4c0,1.5-0.3,2.7-0.8,3.4C12.4,171.1,11.6,171.4,10.6,171.4z M10.6,170.6
				c0.7,0,1.2-0.3,1.6-0.9c0.3-0.6,0.5-1.5,0.5-2.8c0-1.3-0.2-2.2-0.5-2.8c-0.4-0.6-0.9-0.9-1.6-0.9c-0.7,0-1.2,0.3-1.6,0.9
				c-0.3,0.6-0.5,1.5-0.5,2.8c0,1.3,0.2,2.2,0.5,2.8S9.9,170.6,10.6,170.6z"/>
		</g>
	</g>
	<g>
		<g>
			<path fill="#697490" d="M4.7,121L4.7,121l-1.9,1H2.7l-0.2-0.6l0-0.1l2.5-1.6h0.8v8.9h-1V121z"/>
			<path fill="#697490" d="M10.6,128.9c-1,0-1.8-0.4-2.3-1.2c-0.5-0.8-0.8-1.9-0.8-3.4s0.3-2.7,0.8-3.4c0.5-0.8,1.3-1.2,2.3-1.2
				c1,0,1.8,0.4,2.3,1.2s0.8,1.9,0.8,3.4c0,1.5-0.3,2.7-0.8,3.4C12.4,128.5,11.6,128.9,10.6,128.9z M10.6,128c0.7,0,1.2-0.3,1.6-0.9
				c0.3-0.6,0.5-1.5,0.5-2.8c0-1.3-0.2-2.2-0.5-2.8c-0.4-0.6-0.9-0.9-1.6-0.9c-0.7,0-1.2,0.3-1.6,0.9c-0.3,0.6-0.5,1.5-0.5,2.8
				c0,1.3,0.2,2.2,0.5,2.8S9.9,128,10.6,128z"/>
		</g>
	</g>
	<g>
		<g>
			<path fill="#697490" d="M1.2,87.8c0-0.4,0-0.7,0.1-1c0.1-0.3,0.2-0.6,0.4-0.9c0.2-0.3,0.4-0.5,0.7-0.8c0.3-0.2,0.6-0.5,1-0.7
				c0.6-0.4,1-0.7,1.3-1c0.3-0.3,0.4-0.7,0.4-1.1c0-1-0.6-1.5-1.7-1.5c-0.6,0-1.2,0.1-1.9,0.3l-0.1-0.9c0.4-0.1,0.8-0.2,1.2-0.2
				c0.4,0,0.7-0.1,1-0.1c1.7,0,2.6,0.8,2.6,2.3c0,0.3,0,0.6-0.1,0.8c-0.1,0.2-0.2,0.5-0.4,0.7c-0.2,0.2-0.4,0.4-0.6,0.7
				S4.5,84.8,4.2,85c-0.4,0.2-0.7,0.4-0.9,0.6c-0.2,0.2-0.4,0.4-0.6,0.6c-0.2,0.2-0.3,0.4-0.3,0.6c-0.1,0.2-0.1,0.4-0.1,0.7v0.5h4
				V89h-5V87.8z"/>
			<path fill="#697490" d="M10.6,89.1c-1,0-1.8-0.4-2.3-1.2c-0.5-0.8-0.8-1.9-0.8-3.4s0.3-2.7,0.8-3.4c0.5-0.8,1.3-1.2,2.3-1.2
				c1,0,1.8,0.4,2.3,1.2s0.8,1.9,0.8,3.4c0,1.5-0.3,2.7-0.8,3.4C12.4,88.7,11.6,89.1,10.6,89.1z M10.6,88.2c0.7,0,1.2-0.3,1.6-0.9
				c0.3-0.6,0.5-1.5,0.5-2.8c0-1.3-0.2-2.2-0.5-2.8c-0.4-0.6-0.9-0.9-1.6-0.9c-0.7,0-1.2,0.3-1.6,0.9c-0.3,0.6-0.5,1.5-0.5,2.8
				c0,1.3,0.2,2.2,0.5,2.8S9.9,88.2,10.6,88.2z"/>
		</g>
	</g>
	<g>
		<g>
			<path fill="#697490" d="M3.2,49.1c-0.3,0-0.6,0-0.9,0c-0.3,0-0.6-0.1-0.8-0.1v-0.8h0.1c0.2,0,0.4,0.1,0.7,0.1s0.5,0,0.8,0
				c0.7,0,1.2-0.1,1.6-0.4c0.3-0.3,0.5-0.7,0.5-1.3c0-0.6-0.2-1-0.5-1.3C4.3,45,3.8,44.8,3,44.8H2.4V44H3C4.3,44,5,43.5,5,42.4
				c0-1.1-0.6-1.6-1.8-1.6c-0.2,0-0.4,0-0.7,0c-0.3,0-0.5,0.1-0.8,0.1H1.6l0-0.8C1.8,40.1,2.1,40,2.4,40s0.6,0,0.9,0
				c0.9,0,1.6,0.2,2,0.6C5.8,41,6,41.5,6,42.3c0,0.5-0.1,1-0.4,1.3C5.4,44,5,44.2,4.6,44.4v0c0.5,0.1,1,0.4,1.2,0.7
				c0.3,0.4,0.4,0.9,0.4,1.5c0,0.8-0.3,1.4-0.8,1.8S4.2,49.1,3.2,49.1z"/>
			<path fill="#697490" d="M10.6,49.1c-1,0-1.8-0.4-2.3-1.2c-0.5-0.8-0.8-1.9-0.8-3.4s0.3-2.7,0.8-3.4c0.5-0.8,1.3-1.2,2.3-1.2
				c1,0,1.8,0.4,2.3,1.2s0.8,1.9,0.8,3.4c0,1.5-0.3,2.7-0.8,3.4C12.4,48.7,11.6,49.1,10.6,49.1z M10.6,48.2c0.7,0,1.2-0.3,1.6-0.9
				c0.3-0.6,0.5-1.5,0.5-2.8c0-1.3-0.2-2.2-0.5-2.8c-0.4-0.6-0.9-0.9-1.6-0.9c-0.7,0-1.2,0.3-1.6,0.9c-0.3,0.6-0.5,1.5-0.5,2.8
				c0,1.3,0.2,2.2,0.5,2.8S9.9,48.2,10.6,48.2z"/>
		</g>
	</g>
	<g>
		<g>
			<path fill="#697490" d="M0.3,7.8L0.3,7.8l3-6.3h0.1l0.9,0.1l0,0.1L1.4,7.5v0h3l0.3-3.1h0.7v3.1h1.2v0.8H5.3v2.1h-1V8.4H0.5
				L0.3,7.8z"/>
			<path fill="#697490" d="M10.6,10.6c-1,0-1.8-0.4-2.3-1.2C7.7,8.7,7.5,7.6,7.5,6s0.3-2.7,0.8-3.4c0.5-0.8,1.3-1.2,2.3-1.2
				c1,0,1.8,0.4,2.3,1.2s0.8,1.9,0.8,3.4c0,1.5-0.3,2.7-0.8,3.4C12.4,10.2,11.6,10.6,10.6,10.6z M10.6,9.7c0.7,0,1.2-0.3,1.6-0.9
				c0.3-0.6,0.5-1.5,0.5-2.8c0-1.3-0.2-2.2-0.5-2.8c-0.4-0.6-0.9-0.9-1.6-0.9C9.9,2.3,9.4,2.6,9,3.2C8.7,3.8,8.5,4.8,8.5,6
				c0,1.3,0.2,2.2,0.5,2.8S9.9,9.7,10.6,9.7z"/>
		</g>
	</g>
	<g>
		<g>
			<path fill="#697490" d="M89.4,180.1c-0.2,0-0.4,0-0.6,0c-0.2,0-0.5,0-0.7-0.1c-0.2,0-0.5-0.1-0.7-0.1c-0.2,0-0.5-0.1-0.7-0.2
				l0-0.9c0.2,0.1,0.4,0.1,0.6,0.2c0.2,0,0.4,0.1,0.7,0.1c0.2,0,0.4,0.1,0.7,0.1c0.2,0,0.4,0,0.6,0c0.7,0,1.1-0.1,1.5-0.4
				c0.3-0.3,0.5-0.6,0.5-1.1c0-0.3,0-0.5-0.1-0.7c-0.1-0.2-0.2-0.3-0.4-0.5s-0.4-0.3-0.6-0.4c-0.2-0.1-0.5-0.2-0.8-0.3
				c-0.4-0.1-0.8-0.3-1.1-0.4s-0.6-0.3-0.8-0.5s-0.4-0.4-0.5-0.7c-0.1-0.3-0.1-0.6-0.1-0.9c0-0.4,0.1-0.7,0.2-1
				c0.1-0.3,0.3-0.6,0.6-0.8c0.3-0.2,0.6-0.4,0.9-0.5c0.4-0.1,0.8-0.2,1.2-0.2c0.3,0,0.7,0,1,0.1c0.4,0,0.8,0.1,1.2,0.2l0,0.9
				c-0.4-0.1-0.8-0.2-1.1-0.2c-0.4-0.1-0.7-0.1-1-0.1c-0.6,0-1.1,0.1-1.4,0.4s-0.5,0.7-0.5,1.1c0,0.2,0,0.4,0.1,0.6s0.2,0.3,0.3,0.5
				s0.4,0.3,0.6,0.4s0.5,0.2,0.9,0.3c0.4,0.1,0.7,0.3,1,0.4c0.3,0.1,0.6,0.3,0.8,0.5c0.2,0.2,0.4,0.4,0.5,0.7s0.2,0.6,0.2,1
				c0,0.8-0.3,1.4-0.8,1.8S90.4,180.1,89.4,180.1z"/>
			<path fill="#697490" d="M97.1,180.1c-0.6,0-1.1-0.1-1.5-0.2c-0.4-0.1-0.8-0.4-1-0.7c-0.3-0.3-0.5-0.7-0.6-1.2
				c-0.1-0.5-0.2-1-0.2-1.7V171h1v5.3c0,1,0.2,1.7,0.6,2.2s1,0.7,1.8,0.7c0.8,0,1.4-0.2,1.8-0.7s0.6-1.2,0.6-2.2V171h1v5.4
				c0,0.6-0.1,1.2-0.2,1.7c-0.1,0.5-0.3,0.9-0.6,1.2c-0.3,0.3-0.6,0.5-1,0.7S97.7,180.1,97.1,180.1z"/>
			<path fill="#697490" d="M102.5,171h0.9l4.3,6.2l0.7,1h0.1V171h0.9v8.9h-0.9l-4.3-6.2l-0.6-1h-0.1v7.3h-0.9V171z"/>
		</g>
	</g>
	<g>
		<g>
			<path fill="#697490" d="M160.9,171h1.4l2.3,5.7l0.6,1.7h0.1l0.6-1.7l2.3-5.7h1.4v8.9h-1v-7.5l-0.1,0l-0.8,2.1l-2,5h-1l-2-5
				l-0.8-2.1l-0.1,0v7.5h-0.9V171z"/>
			<path fill="#697490" d="M174.8,180.1c-1.2,0-2.1-0.4-2.7-1.1s-0.9-1.9-0.9-3.4c0-1.5,0.3-2.7,0.9-3.4s1.5-1.2,2.7-1.2
				c1.2,0,2.1,0.4,2.7,1.2s0.9,1.9,0.9,3.4s-0.3,2.7-0.9,3.4S176,180.1,174.8,180.1z M174.8,179.2c0.9,0,1.5-0.3,2-0.9
				c0.4-0.6,0.6-1.5,0.6-2.8c0-1.3-0.2-2.2-0.6-2.8c-0.4-0.6-1.1-0.9-2-0.9c-0.9,0-1.5,0.3-2,0.9s-0.6,1.5-0.6,2.8
				c0,1.3,0.2,2.2,0.6,2.8C173.2,178.9,173.9,179.2,174.8,179.2z"/>
			<path fill="#697490" d="M180.1,171h0.9l4.3,6.2l0.7,1h0.1V171h0.9v8.9H186l-4.3-6.2l-0.6-1H181v7.3h-0.9V171z"/>
		</g>
	</g>
	<g>
		<g>
			<path fill="#697490" d="M238.1,171.9h-2.7V171h6.4v0.9h-2.7v8h-1V171.9z"/>
			<path fill="#697490" d="M246.3,180.1c-0.6,0-1.1-0.1-1.5-0.2c-0.4-0.1-0.8-0.4-1-0.7c-0.3-0.3-0.5-0.7-0.6-1.2
				c-0.1-0.5-0.2-1-0.2-1.7V171h1v5.3c0,1,0.2,1.7,0.6,2.2s1,0.7,1.8,0.7c0.8,0,1.4-0.2,1.8-0.7s0.6-1.2,0.6-2.2V171h1v5.4
				c0,0.6-0.1,1.2-0.2,1.7c-0.1,0.5-0.3,0.9-0.6,1.2c-0.3,0.3-0.6,0.5-1,0.7S246.9,180.1,246.3,180.1z"/>
			<path fill="#697490" d="M251.6,171h5.3v0.9h-4.3v3.1h4v0.9h-4v3.2h4.4v0.9h-5.4V171z"/>
		</g>
	</g>
	<g>
		<g>
			<path fill="#697490" d="M310.3,171h1.1l1.5,6.1l0.4,1.6h0.1l0.4-1.6l1.6-6.1h1.1l1.6,6.1l0.4,1.6h0.1l0.4-1.6l1.6-6.1h1.1
				l-2.4,8.9h-1.3l-1.6-6l-0.3-1.5h-0.1l-0.3,1.5l-1.6,6h-1.3L310.3,171z"/>
			<path fill="#697490" d="M322.8,171h5.3v0.9h-4.3v3.1h4v0.9h-4v3.2h4.4v0.9h-5.4V171z"/>
			<path fill="#697490" d="M331.8,180.1c-0.4,0-0.8,0-1.1,0c-0.4,0-0.7-0.1-0.9-0.1v-8.9c0.4,0,0.8-0.1,1.2-0.1c0.4,0,0.8,0,1.1,0
				c1.5,0,2.6,0.4,3.3,1.1s1,1.9,1,3.5c0,0.8-0.1,1.5-0.3,2.1c-0.2,0.6-0.5,1.1-0.8,1.4s-0.9,0.7-1.4,0.8S332.6,180.1,331.8,180.1z
				 M332.1,179.2c1.1,0,2-0.3,2.5-0.9c0.5-0.6,0.8-1.5,0.8-2.9c0-1.3-0.3-2.2-0.8-2.8c-0.5-0.6-1.3-0.9-2.4-0.9c-0.2,0-0.4,0-0.7,0
				c-0.2,0-0.5,0-0.7,0.1v7.2c0.3,0,0.5,0.1,0.7,0.1C331.6,179.2,331.8,179.2,332.1,179.2z"/>
		</g>
	</g>
	<g>
		<g>
			<path fill="#697490" d="M388.8,171.9h-2.7V171h6.4v0.9h-2.7v8h-1V171.9z"/>
			<path fill="#697490" d="M393.7,171h1v3.9h4.6V171h1v8.9h-1v-4.1h-4.6v4.1h-1V171z"/>
			<path fill="#697490" d="M405.7,180.1c-0.6,0-1.1-0.1-1.5-0.2c-0.4-0.1-0.8-0.4-1-0.7c-0.3-0.3-0.5-0.7-0.6-1.2
				c-0.1-0.5-0.2-1-0.2-1.7V171h1v5.3c0,1,0.2,1.7,0.6,2.2s1,0.7,1.8,0.7c0.8,0,1.4-0.2,1.8-0.7s0.6-1.2,0.6-2.2V171h1v5.4
				c0,0.6-0.1,1.2-0.2,1.7c-0.1,0.5-0.3,0.9-0.6,1.2c-0.3,0.3-0.6,0.5-1,0.7S406.3,180.1,405.7,180.1z"/>
		</g>
	</g>
	<path opacity="0.1" fill="#52DC90" d="M474.3,38.9c0,0-54.2,40.9-75.7,40.9c-21.5,0-54.2-41.8-75.7-40.9c-22.7,1-53,50.1-75.7,50
		c-22.5-0.1-52.2-49.5-74.7-50c-22.1-0.5-75.7,46-75.7,46v80.5h377.5L474.3,38.9z"/>
	<g>
		<g>
			<path fill="#697490" d="M465.8,171h5.2v0.9h-4.2v3.2h3.8v0.9h-3.8v4h-1V171z"/>
			<path fill="#697490" d="M475.6,176.6c-0.2,0-0.3,0-0.5,0c-0.2,0-0.3,0-0.5,0c-0.2,0-0.3,0-0.5,0c-0.2,0-0.4,0-0.6,0v3.3h-1v-8.9
				c0.4-0.1,0.7-0.1,1.1-0.1s0.7,0,1,0c1.3,0,2.3,0.2,2.9,0.7c0.6,0.5,0.9,1.2,0.9,2.2c0,0.7-0.1,1.3-0.4,1.7
				c-0.3,0.4-0.8,0.7-1.4,0.9l2.1,3.5h-1.1L475.6,176.6z M474.7,175.8c0.5,0,0.9,0,1.2-0.1c0.3-0.1,0.6-0.2,0.8-0.4
				c0.2-0.2,0.4-0.4,0.5-0.6c0.1-0.3,0.1-0.6,0.1-0.9c0-0.7-0.2-1.2-0.6-1.5c-0.4-0.3-1.1-0.5-2-0.5c-0.2,0-0.4,0-0.6,0
				c-0.2,0-0.4,0-0.6,0.1v3.9c0.1,0,0.3,0,0.5,0.1C474.3,175.8,474.5,175.8,474.7,175.8z"/>
			<path fill="#697490" d="M480,171h1v8.9h-1V171z"/>
		</g>
	</g>
	<path fill="none" stroke="#52DC90" stroke-width="3" stroke-miterlimit="10" d="M474.3,38.9c0,0-54.2,40.9-75.7,40.9
		c-21.5,0-54.2-41.8-75.7-40.9c-22.7,1-53,50.1-75.7,50c-22.5-0.1-52.2-49.5-74.7-50c-22.1-0.5-75.7,46-75.7,46"/>
	<path fill="none" stroke="#EA5761" stroke-width="3" stroke-miterlimit="10" d="M96.8,125.1c0,0,55.3-29.5,75.7-31.4
		c19.8-1.8,57.9,16.3,77.8,16.6c19,0.2,54.1-19.5,73.1-21.3c19.1-1.8,56.1,15.7,75.2,14.6c20.5-1.1,75.7-31.5,75.7-31.5"/>
	<circle fill="#52DC90" stroke="#FFFFFF" stroke-miterlimit="10" cx="96.8" cy="84.9" r="3.5"/>
	<circle fill="#52DC90" stroke="#FFFFFF" stroke-miterlimit="10" cx="172.5" cy="38.9" r="3.5"/>
	<circle fill="#52DC90" stroke="#FFFFFF" stroke-miterlimit="10" cx="247.2" cy="89" r="3.5"/>
	<circle fill="#52DC90" stroke="#FFFFFF" stroke-miterlimit="10" cx="398.6" cy="79.3" r="3.5"/>
	<circle fill="#52DC90" stroke="#FFFFFF" stroke-miterlimit="10" cx="474.3" cy="38.9" r="3.5"/>
	<circle fill="#52DC90" stroke="#FFFFFF" stroke-miterlimit="10" cx="322.9" cy="38.4" r="3.5"/>
	<circle fill="#EA5761" stroke="#FFFFFF" stroke-miterlimit="10" cx="96.8" cy="125.1" r="3.5"/>
	<circle fill="#EA5761" stroke="#FFFFFF" stroke-miterlimit="10" cx="172.5" cy="93.7" r="3.5"/>
	<circle fill="#EA5761" stroke="#FFFFFF" stroke-miterlimit="10" cx="247.2" cy="110.8" r="3.5"/>
	<circle fill="#EA5761" stroke="#FFFFFF" stroke-miterlimit="10" cx="323.4" cy="89.8" r="3.5"/>
	<circle fill="#EA5761" stroke="#FFFFFF" stroke-miterlimit="10" cx="398.6" cy="103.1" r="3.5"/>
	<circle fill="#EA5761" stroke="#FFFFFF" stroke-miterlimit="10" cx="474.3" cy="71.6" r="3.5"/>
	<path opacity="0.2" fill="#EA5761" d="M96.8,165.2v-40.2c0,0,55.3-29.5,75.7-31.4c19.8-1.8,57.9,16.3,77.8,16.6
		c19,0.2,54.1-19.5,73.1-21.3c19.1-1.8,56.1,15.7,75.2,14.6c20.5-1.1,75.7-31.5,75.7-31.5l0,93.1H96.8z"/>
</g>
</svg>