<svg  xmlns="http://www.w3.org/2000/svg" style="width:0; height:0; visibility:hidden;">
    <symbol viewBox="0 0 206 146" id="appscale">
        <g id="Page-1" stroke="none" stroke-width="1" fill="none" fill-rule="evenodd">
            <g id="Components" transform="translate(-2816.000000, -576.000000)">
                <g id="Group-28" transform="translate(2817.000000, 578.000000)">
                    <path d="M36.2842847,131.681393 C34.8697005,129.91024 33.9867312,128.578488 33.9867312,126.091847 L33.9867312,46.0194545 C33.9867312,40.3833879 38.3572768,35.8141652 43.7482784,35.8141652 L139.970553,35.8141652" id="Stroke-65-Copy-2" stroke="#697490" stroke-width="3" stroke-linecap="round" stroke-linejoin="round"></path>
                    <path d="M183.377976,76.3407207 L183.377976,126.183941 C183.377976,128.60651 182.504006,129.883385 181.013304,131.603177" id="Stroke-66-Copy-2" stroke="#697490" stroke-width="3" stroke-linecap="round" stroke-linejoin="round"></path>
                    <path d="M178.199048,83.6794373 L178.199048,115.735864 C178.199048,121.37193 173.828502,125.941153 168.437501,125.941153 L49.4031466,125.941153 C44.012145,125.941153 39.6415993,121.37193 39.6415993,115.735864 L39.6415993,50.7318446 C39.6415993,45.095778 44.012145,40.5265554 49.4031466,40.5265554 L140.596468,40.5265554" id="Stroke-67-Copy-2" stroke="#697490" stroke-width="3" stroke-linecap="round" stroke-linejoin="round"></path>
                    <path d="M195.600253,131.946925 L23.4853858,131.946925 C20.9556327,131.946925 18.9070826,134.090195 18.9070826,136.733349 L18.9070826,136.733349 C18.9070826,139.376503 20.9556327,141.519773 23.4853858,141.519773 L195.600253,141.519773 C198.128479,141.519773 200.178557,139.376503 200.178557,136.733349 L200.178557,136.733349 C200.178557,134.090195 198.128479,131.946925 195.600253,131.946925 L195.600253,131.946925 Z" id="Stroke-68-Copy-2" stroke="#697490" stroke-width="3" stroke-linecap="round" stroke-linejoin="round"></path>
                    <path d="M137.611645,136.733349 L81.5140645,136.733349 C80.2552985,136.733349 79.2256767,135.656923 79.2256767,134.339338 L79.2256767,134.339338 C79.2256767,133.023351 80.2552985,131.946925 81.5140645,131.946925 L137.611645,131.946925 C138.870411,131.946925 139.90156,133.023351 139.90156,134.339338 L139.90156,134.339338 C139.90156,135.656923 138.870411,136.733349 137.611645,136.733349" id="Fill-69-Copy-2" fill="#4E8AD1"></path>
                    <path d="M137.611645,136.733349 L81.5140645,136.733349 C80.2552985,136.733349 79.2256767,135.656923 79.2256767,134.339338 L79.2256767,134.339338 C79.2256767,133.023351 80.2552985,131.946925 81.5140645,131.946925 L137.611645,131.946925 C138.870411,131.946925 139.90156,133.023351 139.90156,134.339338 L139.90156,134.339338 C139.90156,135.656923 138.870411,136.733349 137.611645,136.733349 L137.611645,136.733349 Z" id="Stroke-70-Copy-2" stroke="#697490" stroke-width="3" stroke-linecap="round" stroke-linejoin="round" fill="#D4D9E3"></path>
                    <path d="M54.7212479,57.49116 L106.660623,57.49116" id="Stroke-71-Copy-2" stroke="#697490" stroke-width="3" stroke-linecap="round" stroke-linejoin="round"></path>
                    <path d="M54.7212479,70.6858525 L114.298766,70.6858525" id="Stroke-72-Copy-2" stroke="#697490" stroke-width="3" stroke-linecap="round" stroke-linejoin="round"></path>
                    <path d="M173.329892,68.6330736 C163.594793,71.2762276 153.560916,65.529963 150.916637,55.7990041 C148.272359,46.0696423 154.021068,36.0384339 163.756166,33.39528 C173.489667,30.7537231 183.525142,36.4983906 186.16942,46.2293495 C188.812101,55.9603084 183.06499,65.9899197 173.329892,68.6330736 L173.329892,68.6330736 Z M197.858568,48.6537046 L202.840357,47.3009847 L199.651245,35.5625065 L193.920112,37.1180545 C192.309578,34.195413 190.457785,31.9211826 188.359937,30.0318466 L191.263051,24.5826374 L180.548532,18.3380864 L177.605474,23.4519105 C174.349257,22.418605 170.727155,21.9267069 167.400637,22.0576668 L166.016984,16.9646046 L155.056411,19.9399495 L156.440063,25.0330117 C151.9376,27.0261574 150.055449,28.9458377 147.769067,31.4819879 L142.322334,28.5769141 L136.078322,39.2868781 L141.349303,42.7940479 C140.494506,45.4835169 139.984824,48.3997701 140.074298,51.7360533 L133.889403,53.4161729 L137.078514,65.153054 L142.515661,63.6773596 C144.180518,67.4272844 146.521224,70.3371493 149.489846,73.0074535 L146.454118,77.974347 L157.10313,83.976143 L160.57025,78.5924138 C163.82487,79.6241222 166.40364,80.2709363 171.297552,79.7135582 L172.916074,85.6738304 L183.876647,82.6984856 L182.256528,76.7382133 C185.193194,75.1698888 188.086722,72.9771091 190.373104,70.440959 L195.541829,73.4210951 L201.646836,62.7494609 L196.569183,60.2276844 C197.778681,56.4218621 198.318721,52.729432 197.858568,48.6537046 L197.858568,48.6537046 Z" id="Stroke-77-Copy" stroke="#697490" stroke-width="3" stroke-linecap="round" stroke-linejoin="round" fill="#D4D9E3"></path>
                    <path d="M54.7212479,84.823023 L134.157939,84.823023" id="Stroke-79-Copy-2" stroke="#697490" stroke-width="3" stroke-linecap="round" stroke-linejoin="round"></path>
                    <path d="M161.204605,113.456609 L58.4135264,113.456609 C56.3833079,113.456609 54.7212479,111.720592 54.7212479,109.596486 L54.7212479,101.877838 C54.7212479,99.7553296 56.3833079,98.0177154 58.4135264,98.0177154 L161.204605,98.0177154 C163.234823,98.0177154 164.896883,99.7553296 164.896883,101.877838 L164.896883,109.596486 C164.896883,111.720592 163.234823,113.456609 161.204605,113.456609" id="Fill-80-Copy-2" fill="#D4D9E3"></path>
                    <g id="Group-16-Copy-3" transform="translate(18.371687, 16.500000) scale(-1, 1) translate(-18.371687, -16.500000) translate(0.871687, 0.000000)" stroke="#697490" stroke-width="3">
                        <g id="Group-10-Copy-3" transform="translate(7.579649, 7.500000) rotate(-270.000000) translate(-7.579649, -7.500000) translate(0.079649, 0.000000)" stroke-linecap="round" stroke-linejoin="round">
                            <path d="M7.53982426,0 L7.53982426,14.9709517" id="Stroke-36"></path>
                            <path d="M14.9773199,7.53982426 L-3.91313592e-16,7.53982426" id="Stroke-37"></path>
                        </g>
                        <ellipse id="big-dot-copy-2" transform="translate(29.216819, 27.331863) rotate(-270.000000) translate(-29.216819, -27.331863) " cx="29.216819" cy="27.331863" rx="5.6548682" ry="5.6548682"></ellipse>
                    </g>
                </g>
            </g>
        </g>
    </symbol>
    <symbol viewBox="0 0 125 100" id="cloud-providers">
        <g id="Page-1" stroke="none" stroke-width="1" fill="none" fill-rule="evenodd" stroke-linecap="round" stroke-linejoin="round">
            <g id="Environment-creation-Copy" transform="translate(-1117.000000, -292.000000)" stroke="#697490" stroke-width="5">
                <g id="Group-16" transform="translate(1120.000000, 295.000000)">
                    <path d="M22,32.3449412 C22,14.5048235 36.4974118,0 54.3449412,0 C68.7311765,0 80.968,9.48705882 85.1778824,22.4798824" id="Stroke-2"></path>
                    <path d="M85.1778824,22.9190588 C87.3865882,22.3261176 89.7064706,22 92.0782353,22 C106.953647,22 119.027412,34.0737647 119.027412,48.9565882 C119.027412,63.832 106.953647,75.9057647 92.0782353,75.9057647" id="Stroke-3"></path>
                    <path d="M36.1724706,76 L20,76" id="Stroke-4"></path>
                    <path d="M92.7841176,76 L82,76" id="Stroke-5"></path>
                    <path d="M21.5608235,75.7687059 C9.65011765,75.7687059 0,66.1185882 0,54.2078824 C0,42.2971765 9.65011765,32.6470588 21.5608235,32.6470588" id="Stroke-6"></path>
                    <path d="M60,93.9057647 L60,40" id="Stroke-7"></path>
                    <path d="M60.1724706,40 L44,56.1724706" id="Stroke-8"></path>
                    <path d="M60,40 L76.1724706,56.1724706" id="Stroke-9"></path>
                </g>
            </g>
        </g>
    </symbol>
    <symbol viewBox="0 0 188 171" id="environment">
        <g id="Page-1" stroke="none" stroke-width="1" fill="none" fill-rule="evenodd">
            <g id="Components" transform="translate(-2843.000000, -303.000000)">
                <g id="Group-26" transform="translate(2845.000000, 305.000000)">
                    <polygon id="Fill-1" fill="#D4D9E3" points="62.2035502 157.050413 92.4202213 157.050413 92.4202213 149.854007 62.2035502 149.854007"></polygon>
                    <path d="M7.53982426,51.841604 L7.53982426,48.8902151 C7.53982426,43.7715998 11.729128,39.5840774 16.8499206,39.5840774 L137.171772,39.5840774 C142.292565,39.5840774 146.481868,43.7715998 146.481868,48.8886181 L146.481868,51.841604 L7.53982426,51.841604 Z" id="Fill-7" fill="#D4D9E3"></path>
                    <path d="M126.765582,150.351937 L17.327612,150.351937 C7.79702596,150.351937 0,142.556629 0,133.030096 L0,48.4220195 C0,38.8954858 7.79702596,31.1017751 17.327612,31.1017751 L137.877942,31.1017751 C147.408528,31.1017751 155.205554,38.8954858 155.205554,48.4220195 L155.205554,80.8377872" id="Stroke-3" stroke="#697490" stroke-width="3" stroke-linecap="round" stroke-linejoin="round"></path>
                    <path d="M113.097364,150.351937 L113.097364,97.0193926 C113.097364,86.6824156 120.950555,78.2256767 130.549794,78.2256767 L155.508875,78.2256767" id="Stroke-3-Copy" stroke="#697490" stroke-width="3" stroke-linecap="round" stroke-linejoin="round" transform="translate(134.303120, 114.288807) rotate(-180.000000) translate(-134.303120, -114.288807) "></path>
                    <path d="M127.11533,125.51932 L17.7908009,125.51932 C12.671606,125.51932 8.4823023,121.331798 8.4823023,116.21478 L8.4823023,48.8918122 C8.4823023,43.7731969 12.671606,39.5840774 17.7923987,39.5840774 L138.11425,39.5840774 C143.233445,39.5840774 147.422749,43.7715998 147.422749,48.8902151 L147.422749,80.0682521" id="Stroke-5" stroke="#697490" stroke-width="3" stroke-linecap="round" stroke-linejoin="round"></path>
                    <path d="M106.500018,125.469868 L106.500018,86.5909335 C106.500018,81.4723182 110.689321,77.2831987 115.810114,77.2831987 L147.422749,77.2831987" id="Stroke-5-Copy" stroke="#697490" stroke-width="3" stroke-linecap="round" stroke-linejoin="round" transform="translate(126.961383, 101.376533) rotate(-180.000000) translate(-126.961383, -101.376533) "></path>
                    <path d="M82.0041269,138.075095 C82.0041269,140.938645 79.6809967,143.260787 76.8162287,143.260787 C73.949863,143.260787 71.6283305,140.938645 71.6283305,138.075095 C71.6283305,135.211545 73.949863,132.889403 76.8162287,132.889403 C79.6809967,132.889403 82.0041269,135.211545 82.0041269,138.075095" id="Fill-11" fill="#D4D9E3"></path>
                    <path d="M82.0041269,138.075095 C82.0041269,140.938645 79.6809967,143.260787 76.8162287,143.260787 C73.949863,143.260787 71.6283305,140.938645 71.6283305,138.075095 C71.6283305,135.211545 73.949863,132.889403 76.8162287,132.889403 C79.6809967,132.889403 82.0041269,135.211545 82.0041269,138.075095 L82.0041269,138.075095 Z" id="Stroke-13" stroke="#697490" stroke-width="3" stroke-linecap="round" stroke-linejoin="round"></path>
                    <path d="M91.0407039,150.796485 C91.0407039,150.796485 89.2446363,167.209387 102.729657,167.209387 L75.7580183,167.209387 L77.4436458,167.209387 L50.8938138,167.209387 C64.3804318,167.209387 62.3718634,150.807665 62.3718634,150.807665" id="Stroke-15" stroke="#697490" stroke-width="3" stroke-linecap="round" stroke-linejoin="round"></path>
                    <g id="Group-10" transform="translate(148.911529, 0.000000)" stroke="#697490" stroke-width="3" stroke-linecap="round" stroke-linejoin="round">
                        <path d="M7.53982426,0 L7.53982426,14.9709517" id="Stroke-36"></path>
                        <path d="M14.9773199,7.53982426 L0,7.53982426" id="Stroke-37"></path>
                    </g>
                    <ellipse id="big-dot" stroke="#697490" stroke-width="3" cx="178.128348" cy="27.331863" rx="5.6548682" ry="5.6548682"></ellipse>
                    <g id="Group-3" transform="translate(56.548682, 64.088506)" stroke-width="3">
                        <ellipse id="Oval" stroke="#697490" transform="translate(7.832345, 8.287868) rotate(-45.000000) translate(-7.832345, -8.287868) " cx="7.83234481" cy="8.28786753" rx="5.37987715" ry="5.35588127"></ellipse>
                        <path d="M13.2052796,8.20667097 L30.567777,8.20667097" id="Shape" stroke="#697490"></path>
                        <path d="M13.2052796,35.8109279 L30.567777,35.8109279" id="Shape" stroke="#D4D9E3"></path>
                        <ellipse id="Oval" stroke="#697490" transform="translate(7.800677, 36.297569) rotate(-45.000000) translate(-7.800677, -36.297569) " cx="7.80067659" cy="36.2975693" rx="5.37987715" ry="5.35588127"></ellipse>
                        <path d="M7.46060997,13.6332831 L7.46060997,30.9183384" id="Shape" stroke="#697490"></path>
                        <ellipse id="Oval" stroke="#D4D9E3" transform="translate(35.935870, 36.329096) rotate(-45.000000) translate(-35.935870, -36.329096) " cx="35.9358699" cy="36.3290963" rx="5.37987715" ry="5.35588127"></ellipse>
                        <path d="M35.8109279,13.6332831 L35.8109279,30.9183384" id="Shape" stroke="#D4D9E3"></path>
                        <ellipse id="Oval" stroke="#697490" transform="translate(35.967538, 8.319395) rotate(-45.000000) translate(-35.967538, -8.319395) " cx="35.9675381" cy="8.3193945" rx="5.37987715" ry="5.35588127"></ellipse>
                    </g>
                </g>
            </g>
        </g>
    </symbol>
    <symbol viewBox="0 0 131 93" id="friends">
        <g id="Page-1" stroke="none" stroke-width="1" fill="none" fill-rule="evenodd" stroke-linecap="round" stroke-linejoin="round">
            <g id="User's-Profile-Peers-Copy-6" transform="translate(-756.000000, -319.000000)" stroke="#697490" stroke-width="5">
                <g id="Page-1" transform="translate(759.000000, 322.000000)">
                    <path d="M61.0693556,38.9297444 C61.0693556,48.2827444 53.4866889,55.8706333 44.1284667,55.8706333 L40.3058,55.8706333 C30.9475778,55.8706333 23.3649111,48.2827444 23.3649111,38.9297444 L23.3649111,17.0747444 C23.3649111,7.71652222 30.9475778,0.133855556 40.3058,0.133855556 L44.1284667,0.133855556 C53.4866889,0.133855556 61.0693556,7.71652222 61.0693556,17.0747444 L61.0693556,38.9297444 L61.0693556,38.9297444 Z" id="Stroke-1"></path>
                    <path d="M34.4845889,56.2826667 L34.4845889,64.586 C34.4845889,64.586 -0.112633333,72.3305556 0.132811111,79.8244444 L0.132811111,87.3235556 L42.2187,87.3235556" id="Stroke-3"></path>
                    <path d="M49.9512444,64.586 C49.9512444,64.586 84.5484667,72.3305556 84.3030222,79.8244444 L84.3030222,87.3235556 L42.2171333,87.3235556" id="Stroke-5"></path>
                    <path d="M84.7291556,8 L125.467711,8" id="Stroke-7"></path>
                    <path d="M84.7291556,28 L125.467711,28" id="Stroke-9"></path>
                    <path d="M84.7291556,47 L125.467711,47" id="Stroke-11"></path>
                </g>
            </g>
        </g>
    </symbol>
    <symbol viewBox="0 0 93 99" id="github">
        <g id="Page-1" stroke="none" stroke-width="1" fill="none" fill-rule="evenodd">
            <g id="Environment-creation-Copy" transform="translate(-717.000000, -298.000000)" stroke="#697490" stroke-width="5">
                <path d="M782.324121,395.997675 L782.324121,378.489735 C782.324121,373.123737 780.895091,369.19559 778.037608,366.707037 C781.170615,366.375113 783.987377,365.875775 786.489046,365.211347 C788.989561,364.546919 791.574407,363.468604 794.240699,361.974658 C796.906412,360.481875 799.133135,358.642345 800.921156,356.45636 C802.707155,354.270083 804.163045,351.367643 805.289403,347.742935 C806.414316,344.118809 806.979806,339.956978 806.979806,335.254827 C806.979806,328.561137 804.80709,322.862344 800.464548,318.159612 C802.499501,313.126119 802.279139,307.483712 799.80635,301.232101 C798.266417,300.733635 796.038539,301.038237 793.125027,302.144164 C790.213247,303.250672 787.682985,304.467918 785.540306,305.796193 L782.40701,307.786861 C777.293345,306.349011 772.015348,305.629941 766.573595,305.629941 C761.131843,305.629941 755.855001,306.349011 750.741625,307.786861 C749.861911,307.179401 748.694253,306.430393 747.236919,305.546524 C745.779586,304.662364 743.485281,303.595966 740.351696,302.351108 C737.218688,301.106831 734.854492,300.732763 733.260263,301.23123 C730.841193,307.48255 730.649134,313.125247 732.68351,318.15874 C728.340678,322.861472 726.168829,328.558811 726.168829,335.253956 C726.168829,339.956106 726.732297,344.104858 727.858944,347.701372 C728.985013,351.296434 730.428484,354.20178 732.187335,356.414797 C733.945897,358.62665 736.158468,360.480712 738.825626,361.973786 C741.491339,363.468895 744.07532,364.54721 746.575834,365.211638 C749.077793,365.875194 751.894554,366.374241 755.027561,366.705583 C752.829431,368.696833 751.482422,371.545503 750.987691,375.253627 C749.832741,375.806445 748.595769,376.222367 747.277353,376.499066 C745.957492,376.774313 744.390989,376.912663 742.577264,376.912663 C740.763539,376.912663 738.96281,376.318863 737.176811,375.129229 C735.389368,373.939594 733.865319,372.210803 732.600333,369.941981 C731.555708,368.172499 730.222851,366.734358 728.601473,365.62814 C726.979229,364.521051 725.619224,363.858657 724.519726,363.636891 L722.8712,363.388966 C721.71625,363.388966 720.920291,363.510167 720.479856,363.759836 C720.039421,364.009505 719.902525,364.327768 720.067724,364.715787 C720.232635,365.103515 720.479567,365.490662 720.809388,365.877519 C721.139497,366.264375 721.496466,366.597752 721.88116,366.874161 L722.458491,367.290082 C723.667737,367.843191 724.863121,368.893604 726.045219,370.443064 C727.227317,371.991071 728.092591,373.403343 728.642196,374.674651 L729.466747,376.584227 C730.181551,378.685052 731.390797,380.386813 733.094197,381.686895 C734.798463,382.986977 736.639625,383.816785 738.619127,384.174576 C740.597762,384.535565 742.508816,384.72972 744.349689,384.755587 C746.191428,384.782327 747.716921,384.687866 748.926167,384.464937 L750.822781,384.134757 C750.822781,386.235291 750.836066,388.697105 750.864369,391.519035 C750.891806,394.340964 750.905958,396 750.905958,396" id="Page-1"></path>
            </g>
        </g>
    </symbol>
    <symbol viewBox="0 0 121 108" id="installed-product">
        <g id="Page-1" stroke="none" stroke-width="1" fill="none" fill-rule="evenodd">
            <g id="User's-Profile-Peers-Copy-2" transform="translate(-752.000000, -344.000000)">
                <g id="Page-1" transform="translate(755.000000, 345.000000)">
                    <g id="Group-20" transform="translate(0.000000, 0.609082)">
                        <path d="M87.0347461,53.2544141 L80.8188281,63.23625" id="Stroke-1" stroke="#697490" stroke-width="5" stroke-linecap="round" stroke-linejoin="round"></path>
                        <path d="M58.96875,53.3199707 L58.96875,77.2313965" id="Stroke-4" stroke="#697490" stroke-width="5" stroke-linecap="round" stroke-linejoin="round"></path>
                        <path d="M101.067217,95.2006152 C103.31624,91.946709 104.636943,87.9989551 104.636943,83.7449512 C104.636943,76.787334 101.110283,70.6527637 95.746123,67.0304004 C92.530498,64.8579395 88.6497363,63.589873 84.4770801,63.589873 C73.3420215,63.589873 64.3172168,72.6146777 64.3172168,83.7449512 C64.3172168,94.8800098 73.3420215,103.904814 84.4770801,103.904814 C87.2572559,103.904814 89.9130176,103.340166 92.3247363,102.320928" id="Stroke-8" stroke="#697490" stroke-width="5" stroke-linecap="round" stroke-linejoin="round"></path>
                        <path d="M84.21875,73.726748 L84.21875,93.7095605" id="Fill-10" fill="#5C636E"></path>
                        <path d="M84.21875,73.726748 L84.21875,93.7095605" id="Stroke-12" stroke="#697490" stroke-width="5" stroke-linecap="round" stroke-linejoin="round"></path>
                        <path d="M74.4847168,83.125 L94.4675293,83.125" id="Fill-14" fill="#5C636E"></path>
                        <polyline id="Stroke-16" stroke="#697490" stroke-width="5" stroke-linecap="round" stroke-linejoin="round" points="74.4847168 83.125 84.0000004 94.3909178 94.4675293 83.125"></polyline>
                        <g id="Group-9" stroke="#697490" stroke-width="5" stroke-linecap="round" stroke-linejoin="round">
                            <path d="M96.4093457,65.243623 L103.797627,53.2903027 L104.524971,53.2903027 C110.827021,53.2903027 114.851338,49.2659863 114.851338,42.9639355 C114.851338,36.6618848 110.827021,32.6375684 104.524971,32.6375684 L57.4294629,32.6375684 L10.3291699,32.6375684 C4.02711914,32.6375684 0.00758789063,36.6618848 0.00758789063,42.9639355 C0.00758789063,49.2659863 4.02711914,53.2903027 10.3291699,53.2903027 L11.0565137,53.2903027 L35.690498,93.141084 L57.4294629,93.141084 L65.4733105,93.141084" id="Stroke-2"></path>
                            <path d="M44.0760059,77.1988574 L29.1606738,53.2539355" id="Stroke-6"></path>
                            <path d="M47.7227734,31.6987207 L47.7227734,12.170498 C47.7227734,5.93543945 51.8284375,0.901455078 58.0539258,0.901455078 L59.499043,0.901455078 C65.7245312,0.901455078 69.8301953,5.00711914 69.8301953,11.2326074 L69.8301953,30.7608301" id="Stroke-18"></path>
                        </g>
                    </g>
                </g>
            </g>
        </g>
    </symbol>
    <symbol viewBox="0 0 128 93" id="invitation">
        <g id="Page-1" stroke="none" stroke-width="1" fill="none" fill-rule="evenodd" stroke-linecap="round" stroke-linejoin="round">
            <g id="User's-Profile-Peers-Copy-3" transform="translate(-752.000000, -356.000000)" stroke="#697490" stroke-width="5">
                <g id="Group-12" transform="translate(755.000000, 359.000000)">
                    <path d="M80.6666667,58.6666667 L100.217333,73.1986578" id="Stroke-1028"></path>
                    <path d="M22,73.1986578 L41.5433333,58.6666667" id="Stroke-1030"></path>
                    <path d="M61.1809524,48.8190476 L111.504381,12.5714286" id="Stroke-1032"></path>
                    <path d="M63.558,0 L112.449333,0 C117.846667,0 122.224667,4.38382956 122.224667,9.78834976 L122.224667,77.4476556 C122.224667,82.8521758 117.846667,87.2360053 112.449333,87.2360053 L14.6666667,87.2360053" id="Stroke-1034"></path>
                    <path d="M61.1809524,48.6095238 L10.6857143,12.3619048" id="Stroke-1036"></path>
                    <path d="M64.5333333,0 L10.1828425,0 C4.56050788,0 0,4.38382956 0,9.78834976 L0,77.4476556 C0,82.8521758 4.56050788,87.2360053 10.1828425,87.2360053 L112.041824,87.2360053 C117.664159,87.2360053 122.224667,82.8521758 122.224667,77.4476556 L122.224667,8.49596449" id="Stroke-1038"></path>
                </g>
            </g>
        </g>
    </symbol>
    <symbol viewBox="0 0 105 99" id="organization">
        <g id="Page-1" stroke="none" stroke-width="1" fill="none" fill-rule="evenodd" stroke-linecap="round" stroke-linejoin="round">
            <g id="User's-Profile-Peers-Copy-7" transform="translate(-768.000000, -315.000000)" stroke="#697490" stroke-width="5">
                <g id="Group-12" transform="translate(771.000000, 317.000000)">
                    <path d="M4.35832059,32.4117647 L94.5172324,32.4117647" id="Stroke-994"></path>
                    <polyline id="Stroke-996" points="94.5147735 32.6582066 49.4383912 0.817129474 4.35586176 32.6582066"></polyline>
                    <polyline id="Stroke-998" points="83.3738441 44.9686946 83.3738441 77.1298444 15.4980206 77.1298444 15.4980206 44.9686946"></polyline>
                    <path d="M62.5882353,46.719246 L62.5882353,76.3198143" id="Stroke-1000"></path>
                    <path d="M36.8823529,75.7449145 L36.8823529,46.7167839" id="Stroke-1002"></path>
                    <polyline id="Stroke-1004" points="15.4986353 77.1286134 0.260076471 94.2094155 98.6130176 94.2094155 83.3744588 77.1286134"></polyline>
                </g>
            </g>
        </g>
    </symbol>
    <symbol viewBox="0 0 188 171" id="peer">
        <g id="Page-1" stroke="none" stroke-width="1" fill="none" fill-rule="evenodd">
            <g id="Components" transform="translate(-2471.000000, -303.000000)">
                <g id="Group-25" transform="translate(2473.000000, 305.000000)">
                    <polygon id="Fill-1-Copy" fill="#D4D9E3" points="62.2035502 157.050413 92.4202213 157.050413 92.4202213 149.854007 62.2035502 149.854007"></polygon>
                    <path d="M7.53982426,51.841604 L7.53982426,48.8902151 C7.53982426,43.7715998 11.729128,39.5840774 16.8499206,39.5840774 L137.171772,39.5840774 C142.292565,39.5840774 146.481868,43.7715998 146.481868,48.8886181 L146.481868,51.841604 L7.53982426,51.841604 Z" id="Fill-7-Copy" fill="#D4D9E3"></path>
                    <path d="M126.765582,150.351937 L17.327612,150.351937 C7.79702596,150.351937 0,142.556629 0,133.030096 L0,48.4220195 C0,38.8954858 7.79702596,31.1017751 17.327612,31.1017751 L137.877942,31.1017751 C147.408528,31.1017751 155.205554,38.8954858 155.205554,48.4220195 L155.205554,80.8377872" id="Stroke-3-Copy-2" stroke="#697490" stroke-width="3" stroke-linecap="round" stroke-linejoin="round"></path>
                    <path d="M113.097364,150.351937 L113.097364,97.0193926 C113.097364,86.6824156 120.950555,78.2256767 130.549794,78.2256767 L155.508875,78.2256767" id="Stroke-3-Copy-3" stroke="#697490" stroke-width="3" stroke-linecap="round" stroke-linejoin="round" transform="translate(134.303120, 114.288807) rotate(-180.000000) translate(-134.303120, -114.288807) "></path>
                    <path d="M127.11533,125.51932 L17.7908009,125.51932 C12.671606,125.51932 8.4823023,121.331798 8.4823023,116.21478 L8.4823023,48.8918122 C8.4823023,43.7731969 12.671606,39.5840774 17.7923987,39.5840774 L138.11425,39.5840774 C143.233445,39.5840774 147.422749,43.7715998 147.422749,48.8902151 L147.422749,80.0682521" id="Stroke-5-Copy-2" stroke="#697490" stroke-width="3" stroke-linecap="round" stroke-linejoin="round"></path>
                    <path d="M106.500018,125.469868 L106.500018,86.5909335 C106.500018,81.4723182 110.689321,77.2831987 115.810114,77.2831987 L147.422749,77.2831987" id="Stroke-5-Copy-3" stroke="#697490" stroke-width="3" stroke-linecap="round" stroke-linejoin="round" transform="translate(126.961383, 101.376533) rotate(-180.000000) translate(-126.961383, -101.376533) "></path>
                    <path d="M82.0041269,138.075095 C82.0041269,140.938645 79.6809967,143.260787 76.8162287,143.260787 C73.949863,143.260787 71.6283305,140.938645 71.6283305,138.075095 C71.6283305,135.211545 73.949863,132.889403 76.8162287,132.889403 C79.6809967,132.889403 82.0041269,135.211545 82.0041269,138.075095" id="Fill-11-Copy" fill="#D4D9E3"></path>
                    <path d="M82.0041269,138.075095 C82.0041269,140.938645 79.6809967,143.260787 76.8162287,143.260787 C73.949863,143.260787 71.6283305,140.938645 71.6283305,138.075095 C71.6283305,135.211545 73.949863,132.889403 76.8162287,132.889403 C79.6809967,132.889403 82.0041269,135.211545 82.0041269,138.075095 L82.0041269,138.075095 Z" id="Stroke-13-Copy" stroke="#697490" stroke-width="3" stroke-linecap="round" stroke-linejoin="round"></path>
                    <path d="M91.0407039,150.796485 C91.0407039,150.796485 89.2446363,167.209387 102.729657,167.209387 L75.7580183,167.209387 L77.4436458,167.209387 L50.8938138,167.209387 C64.3804318,167.209387 62.3718634,150.807665 62.3718634,150.807665" id="Stroke-15-Copy" stroke="#697490" stroke-width="3" stroke-linecap="round" stroke-linejoin="round"></path>
                    <g id="Group-10-Copy-2" transform="translate(148.911529, 0.000000)" stroke="#697490" stroke-width="3" stroke-linecap="round" stroke-linejoin="round">
                        <path d="M7.53982426,0 L7.53982426,14.9709517" id="Stroke-36"></path>
                        <path d="M14.9773199,7.53982426 L0,7.53982426" id="Stroke-37"></path>
                    </g>
                    <ellipse id="big-dot-copy" stroke="#697490" stroke-width="3" cx="178.128348" cy="27.331863" rx="5.6548682" ry="5.6548682"></ellipse>
                    <g id="Group-15" transform="translate(59.376116, 72.570809)" stroke-width="3">
                        <ellipse id="Oval" stroke="#697490" cx="5.72146274" cy="21.4528731" rx="5.23957062" ry="5.17996104"></ellipse>
                        <ellipse id="Oval" stroke="#D4D9E3" cx="32.1309117" cy="21.6618133" rx="5.23957062" ry="5.17996104"></ellipse>
                        <path d="M7.83817431,17.6591275 L14.0304535,9.41820131" id="Shape" stroke="#697490"></path>
                        <path d="M22.1280494,9.41820131 L28.082164,17.6591275" id="Shape" stroke="#D4D9E3"></path>
                        <ellipse id="Oval" stroke="#697490" cx="17.8410366" cy="5.17996104" rx="5.23957062" ry="5.17996104"></ellipse>
                    </g>
                </g>
            </g>
        </g>
    </symbol>
    <symbol viewBox="0 0 121 108" id="uploaded-product">
        <g id="Page-1" stroke="none" stroke-width="1" fill="none" fill-rule="evenodd">
            <g id="User's-Profile-Peers-Copy-2" transform="translate(-1007.000000, -344.000000)">
                <g id="Page-1-Copy" transform="translate(1010.000000, 345.000000)">
                    <g id="Group-20" transform="translate(0.000000, 0.609082)">
                        <path d="M87.0347461,53.2544141 L80.8188281,63.23625" id="Stroke-1" stroke="#697490" stroke-width="5" stroke-linecap="round" stroke-linejoin="round"></path>
                        <path d="M58.96875,53.3199707 L58.96875,77.2313965" id="Stroke-4" stroke="#697490" stroke-width="5" stroke-linecap="round" stroke-linejoin="round"></path>
                        <path d="M101.067217,95.2006152 C103.31624,91.946709 104.636943,87.9989551 104.636943,83.7449512 C104.636943,76.787334 101.110283,70.6527637 95.746123,67.0304004 C92.530498,64.8579395 88.6497363,63.589873 84.4770801,63.589873 C73.3420215,63.589873 64.3172168,72.6146777 64.3172168,83.7449512 C64.3172168,94.8800098 73.3420215,103.904814 84.4770801,103.904814 C87.2572559,103.904814 89.9130176,103.340166 92.3247363,102.320928" id="Stroke-8" stroke="#697490" stroke-width="5" stroke-linecap="round" stroke-linejoin="round"></path>
                        <path d="M84.21875,73.726748 L84.21875,93.7095605" id="Fill-10" fill="#5C636E"></path>
                        <path d="M84.21875,73.726748 L84.21875,93.7095605" id="Stroke-12" stroke="#697490" stroke-width="5" stroke-linecap="round" stroke-linejoin="round"></path>
                        <path d="M74.4847168,83.125 L94.4675293,83.125" id="Fill-14" fill="#5C636E"></path>
                        <polyline id="Stroke-16" stroke="#697490" stroke-width="5" stroke-linecap="round" stroke-linejoin="round" points="74.4847168 83.125 84.4761232 72.390918 94.4675293 83.125"></polyline>
                        <g id="Group-9" stroke="#697490" stroke-width="5" stroke-linecap="round" stroke-linejoin="round">
                            <path d="M96.4093457,65.243623 L103.797627,53.2903027 L104.524971,53.2903027 C110.827021,53.2903027 114.851338,49.2659863 114.851338,42.9639355 C114.851338,36.6618848 110.827021,32.6375684 104.524971,32.6375684 L57.4294629,32.6375684 L10.3291699,32.6375684 C4.02711914,32.6375684 0.00758789063,36.6618848 0.00758789063,42.9639355 C0.00758789063,49.2659863 4.02711914,53.2903027 10.3291699,53.2903027 L11.0565137,53.2903027 L35.690498,93.141084 L57.4294629,93.141084 L65.4733105,93.141084" id="Stroke-2"></path>
                            <path d="M44.0760059,77.1988574 L29.1606738,53.2539355" id="Stroke-6"></path>
                            <path d="M47.7227734,31.6987207 L47.7227734,12.170498 C47.7227734,5.93543945 51.8284375,0.901455078 58.0539258,0.901455078 L59.499043,0.901455078 C65.7245312,0.901455078 69.8301953,5.00711914 69.8301953,11.2326074 L69.8301953,30.7608301" id="Stroke-18"></path>
                        </g>
                    </g>
                </g>
            </g>
        </g>
    </symbol>
    <symbol viewBox="0 0 97 110" id="reviews">
        <g id="Page-1" stroke="none" stroke-width="1" fill="none" fill-rule="evenodd" stroke-linecap="round" stroke-linejoin="round">
            <g id="Product-view-Screenshots" transform="translate(-772.000000, -448.000000)" stroke="#697490" stroke-width="5">
                <g id="Page-1" transform="translate(774.000000, 450.000000)">
                    <path d="M76.3085593,93.2982951 L71.4727815,104.782787 L53.4474111,91.4928197 L53.4474111,91.4928197 C39.4831889,93.6614754 24.7095222,89.3849836 13.9500037,78.6442295 C-3.95177407,60.7719344 -3.95177407,31.7957049 13.9500037,13.9251475 C31.8535222,-3.94714754 60.8803741,-3.94714754 78.7838926,13.9251475 C90.4816704,25.6025246 94.5323741,42.0203607 90.9429667,56.9837377 L90.9534111,56.9733115 L90.9255593,57.058459 C90.403337,59.2236393 89.7209667,61.3558033 88.8784481,63.4410492 L81.2540037,81.5514098" id="Stroke-1"></path>
                    <path d="M27.7368444,33 L67.0532148,33" id="Stroke-3"></path>
                    <path d="M27.7368444,48 L67.0532148,48" id="Stroke-5"></path>
                    <path d="M27.7368444,63 L50.2115481,63" id="Stroke-7"></path>
                </g>
            </g>
        </g>
    </symbol>
</svg>