<svg  xmlns="http://www.w3.org/2000/svg" style="width:0; height:0; visibility:hidden;">
    <symbol viewBox="0 0 35.3 35.3" id="header-small">
        <path fill="#FFFFFF" d="M35.3,24.5c-0.6-0.4-1.3-0.7-1.9-1.1c-1.2-0.7-2.4-1.4-3.6-2.1c-0.7-0.4-1.4-0.7-2-0.7c-0.7,0-1.3,0.2-2,0.6
            l-0.6,0.3c-1.6,1-3.3,2-5.2,2.4c-0.6,0.1-1.3,0.2-1.9,0.2c-3.1,0-5.8-1.6-8.2-3.1c-0.6-0.4-1.2-0.6-1.8-0.6c-0.6,0-1.1,0.2-1.7,0.5
            c-1.3,0.8-2.6,1.5-4,2.3l-2.1,1.2C0.2,24.6,0,24.7,0,24.7l0,0.1c0,0.1,0.3,0.2,0.4,0.3c0,0,4.7,2.8,6.2,3.8C7,29.2,7.4,29.3,8,29.3
            l0.2,0c0,0,0.2,0,0.2,0c0.3,0,0.8-0.2,1.2-0.4c0.5-0.3,1.1-0.6,1.6-0.9c0.8-0.5,1.6-0.9,2.3-1.4c1.4-0.9,2.9-1.4,4.4-1.4
            c1.5,0,2.9,0.5,4.3,1.4c1.4,0.9,2.8,1.7,4,2.4c0.5,0.3,1,0.4,1.5,0.4c0.5,0,0.9-0.1,1.4-0.4c1.7-1,3.4-2,5-3l1.4-0.8
            c0.1-0.1,0.3-0.2,0.3-0.2l0-0.1c0-0.1-0.2-0.2-0.3-0.2L35.3,24.5z"/>
        <path fill="#FFFFFF" d="M23.1,32.3L22.5,32c-1.3-0.8-2.5-1.6-3.8-2.1c-0.3-0.1-0.6-0.2-0.9-0.2c-1.3,0-2.5,0.9-3.8,1.8
            c-0.5,0.3-0.9,0.7-1.4,0.9c0.4,0.2,0.8,0.5,1.1,0.8c1.4,1,2.7,1.9,4.2,2.1c1.5-0.2,2.8-1.1,4.2-2.1c0.4-0.2,0.7-0.5,1.1-0.7
            C23.2,32.5,23.2,32.4,23.1,32.3z"/>
        <path fill="#FFFFFF" d="M35.3,9.7c-0.6-0.4-1.3-0.7-1.9-1.1c-1.2-0.7-2.4-1.4-3.6-2.1c-0.7-0.4-1.4-0.7-2-0.7c-0.7,0-1.3,0.2-2,0.6
            l-0.6,0.3c-1.6,1-3.3,2-5.2,2.4c-0.6,0.1-1.3,0.2-1.9,0.2c-3.1,0-5.8-1.6-8.2-3.1C9.2,5.9,8.7,5.7,8.1,5.7C7.5,5.7,7,5.9,6.4,6.2
            C5.1,7,3.7,7.8,2.4,8.5L0.4,9.7C0.2,9.8,0,9.9,0,10l0,0.1c0,0.1,0.3,0.2,0.4,0.3c0,0,4.7,2.8,6.2,3.8C7,14.4,7.4,14.5,8,14.5l0.2,0
            c0,0,0.2,0,0.2,0c0.3,0,0.8-0.2,1.2-0.4c0.5-0.3,1.1-0.6,1.6-0.9c0.8-0.5,1.6-0.9,2.3-1.4c1.4-0.9,2.9-1.4,4.4-1.4
            c1.5,0,2.9,0.5,4.3,1.4c1.4,0.9,2.8,1.7,4,2.4c0.5,0.3,1,0.4,1.5,0.4c0.5,0,0.9-0.1,1.4-0.4c1.7-1,3.4-2,5-3l1.4-0.8
            c0.1-0.1,0.3-0.2,0.3-0.2l0-0.1c0-0.1-0.2-0.2-0.3-0.2L35.3,9.7z"/>
        <path fill="#FFFFFF" d="M13.7,18.5c1.4,1,2.7,1.9,4.2,2.1c1.5-0.2,2.8-1.1,4.2-2.1c0.4-0.2,0.7-0.5,1.1-0.7c0,0,0-0.1-0.1-0.1
            l-0.1,0c0,0,0,0,0,0l0-0.1c0-0.1-0.2-0.2-0.3-0.2l-0.6-0.4c-1-0.6-1.9-1.1-2.9-1.6c-0.4-0.2-0.9-0.3-1.3-0.3c-0.4,0-0.8,0.1-1.2,0.3
            c-1,0.5-1.9,1.1-2.9,1.6l-0.8,0.5c-0.3,0.2-0.3,0.2-0.3,0.4c0,0,0,0,0.1,0.1c-0.1,0-0.1,0.1-0.2,0.1C13,17.9,13.4,18.2,13.7,18.5z"
        />
        <path fill="#FFFFFF" d="M13.1,3c1.4,1,3,1.4,4.7,1.4l0.1,0c1.7,0,3.2-0.5,4.8-1.5c0.1-0.1,0.3-0.2,0.3-0.2l0-0.1
            c0-0.1-0.2-0.2-0.3-0.2L22.1,2c-1-0.6-1.9-1.1-2.9-1.6C18.8,0.1,18.3,0,17.9,0c-0.4,0-0.8,0.1-1.2,0.3c-1,0.5-1.9,1.1-2.9,1.6
            l-0.8,0.5c-0.3,0.2-0.3,0.2-0.3,0.4C12.8,2.8,13,2.9,13.1,3z"/>
    </symbol>


    <symbol id="header" viewBox="0 0 156 30">
        <g id="icon">
            <g id="icon-color">
                <path fill="#FFFFFF" d="M23,24.8c-0.4,0-0.8-0.1-1.3-0.3c-1-0.6-2.3-1.3-3.3-2c-1.2-0.8-2.4-1.2-3.6-1.2c-1.3,0-2.4,0.4-3.7,1.2
                    c-0.7,0.4-1.3,0.8-1.9,1.2c-0.4,0.3-0.9,0.5-1.3,0.8c-0.3,0.3-0.8,0.3-1,0.3H6.8H6.6c-0.5,0-0.8-0.1-1.1-0.3
                    c-1.3-0.8-5.2-3.2-5.2-3.2C0.2,21.3,0,21.2,0,21.1V21c0,0,0.2-0.2,0.3-0.2l1.7-1c1.1-0.7,2.2-1.3,3.3-1.9c0.5-0.3,0.9-0.4,1.4-0.4
                    s1,0.2,1.5,0.5c2,1.3,4.3,2.6,6.8,2.6c0.5,0,1.1-0.1,1.6-0.2c1.4-0.4,2.8-1.3,4.1-2.1l0.5-0.3c0.6-0.3,1.2-0.5,1.7-0.5
                    c0.6,0,1.1,0.2,1.7,0.6c1,0.6,2,1.2,3,1.8c0.5,0.3,1.1,0.6,1.6,0.9l0.1,0.1c0.1,0.1,0.3,0.2,0.3,0.2v0.1c0,0-0.2,0.1-0.3,0.2
                    l-1,0.7c-1.3,0.8-2.8,1.8-4.2,2.5C23.8,24.8,23.4,24.8,23,24.8L23,24.8z"/>
                <path fill="#FFFFFF" d="M14.8,29.8c-1.2-0.2-2.3-0.9-3.5-1.8c-0.3-0.3-0.6-0.4-0.9-0.7c0.4-0.3,0.8-0.5,1.2-0.8
                    c1.1-0.8,2.1-1.5,3.2-1.5c0.3,0,0.5,0,0.8,0.2c1.1,0.3,2.1,1,3.2,1.8l0.4,0.3l0.1,0.1c-0.3,0.2-0.6,0.4-0.9,0.6
                    C17.2,28.8,16.1,29.6,14.8,29.8L14.8,29.8z"/>
                <path fill="#FFFFFF" d="M19.2,15L19,14.9c0.1,0,0.1-0.1,0.1-0.1v-0.1c0,0-0.2-0.1-0.3-0.2l-0.5-0.3c-0.8-0.4-1.6-0.9-2.4-1.3
                    c-0.3-0.2-0.8-0.3-1.1-0.3s-0.7,0.1-1,0.3c-0.8,0.4-1.7,0.8-2.4,1.3l-0.7,0.4c-0.2,0.2-0.2,0.2-0.2,0.3c-0.1,0-0.1,0.1-0.2,0.1
                    c0.3,0.3,0.6,0.4,0.9,0.7c1.2,0.8,2.3,1.6,3.5,1.8c1.3-0.2,2.3-0.9,3.5-1.8C18.7,15.5,18.9,15.3,19.2,15L19.2,15z"/>
            </g>
            <g id="icon-white">
                <path fill="#FFFFFF" d="M23,12.5c-0.4,0-0.8-0.1-1.3-0.3c-1-0.6-2.3-1.3-3.3-2C17.3,9.4,16,9,14.8,9c-1.3,0-2.4,0.4-3.7,1.2
                    c-0.7,0.4-1.3,0.8-1.9,1.2c-0.4,0.3-0.9,0.5-1.3,0.8c-0.3,0.3-0.8,0.3-1,0.3H6.8H6.6c-0.5,0-0.8-0.1-1.1-0.3C4.2,11.3,0.3,9,0.3,9
                    C0.2,8.9,0,8.8,0,8.8V8.7c0,0,0.2-0.2,0.3-0.2l1.7-1c1.1-0.7,2.2-1.3,3.3-1.9c0.5-0.3,0.9-0.4,1.4-0.4s1,0.2,1.5,0.5
                    c2,1.3,4.3,2.6,6.8,2.6c0.5,0,1.1-0.1,1.6-0.2c1.6-0.3,3-1.2,4.3-2l0.5-0.3c0.6-0.3,1.2-0.5,1.7-0.5c0.6,0,1.1,0.2,1.7,0.6
                    c1,0.6,2,1.2,3,1.8C28.4,8,29,8.3,29.5,8.6l0.1,0.1c0.1,0.1,0.3,0.2,0.3,0.2v0.1c0,0-0.2,0.1-0.3,0.2l-1.3,0.6
                    c-1.3,0.8-2.8,1.8-4.2,2.5C23.8,12.4,23.4,12.5,23,12.5L23,12.5z"/>
                <path fill="#FFFFFF" d="M14.8,4.1c-1.5,0-2.8-0.4-3.9-1.2c-0.1-0.1-0.3-0.2-0.3-0.3c0-0.1,0-0.2,0.3-0.3l0.7-0.4
                    c0.8-0.5,1.6-0.9,2.4-1.3c0.3-0.2,0.7-0.2,1-0.2c0.3,0,0.8,0.1,1.1,0.2c0.8,0.4,1.7,0.9,2.4,1.3l0.5,0.3c0.1,0.1,0.3,0.2,0.3,0.2
                    v0.1c0,0-0.2,0.2-0.3,0.2c-1.3,0.8-2.6,1.3-4,1.3L14.8,4.1L14.8,4.1z"/>
            </g>
        </g>
        <g id="caption">
            <path fill="#FFFFFF" d="M41.2,11.8c0-0.6,0.1-1.1,0.3-1.6S42,9.3,42.4,9c0.4-0.4,0.9-0.7,1.5-0.9s1.3-0.3,2.1-0.3
                c0.4,0,0.8,0,1.2,0.1S48,7.9,48.4,8c0.4,0.1,0.8,0.2,1.1,0.3s0.7,0.2,1,0.4c0.2,0.1,0.3,0.2,0.3,0.2s0,0.2-0.1,0.4l-0.5,1.5
                C50.1,11,50,11.1,50,11.1c-0.1,0-0.2,0-0.3,0c-0.6-0.2-1.3-0.3-1.9-0.5s-1.2-0.2-1.8-0.2c-0.6,0-1,0.1-1.2,0.3
                c-0.2,0.2-0.4,0.5-0.4,0.8c0,0.2,0,0.3,0.1,0.5c0.1,0.1,0.2,0.3,0.4,0.4c0.2,0.1,0.4,0.3,0.7,0.4c0.3,0.1,0.7,0.3,1.1,0.5
                c0.7,0.3,1.3,0.5,1.9,0.8c0.6,0.3,1.1,0.6,1.5,0.9c0.4,0.3,0.7,0.8,1,1.2s0.4,1,0.4,1.7c0,0.7-0.1,1.3-0.4,1.8
                c-0.3,0.5-0.6,1-1.1,1.3c-0.5,0.3-1,0.6-1.6,0.8c-0.6,0.2-1.4,0.3-2.1,0.3c-0.4,0-0.9,0-1.3-0.1c-0.5,0-0.9-0.1-1.4-0.2
                c-0.5-0.1-0.9-0.2-1.4-0.4s-0.8-0.4-1.2-0.6c-0.1-0.1-0.2-0.1-0.2-0.2s0-0.2,0.1-0.4l0.7-1.6c0.1-0.2,0.1-0.3,0.2-0.3
                c0.1,0,0.2,0,0.3,0.1c0.3,0.1,0.6,0.2,0.9,0.3c0.3,0.1,0.6,0.2,1,0.3c0.3,0.1,0.7,0.2,1,0.2c0.4,0.1,0.7,0.1,1,0.1
                c0.4,0,0.8,0,1-0.1s0.5-0.2,0.7-0.3c0.2-0.1,0.3-0.3,0.4-0.4c0.1-0.2,0.1-0.3,0.1-0.5c0-0.2,0-0.4-0.1-0.5s-0.2-0.3-0.4-0.5
                c-0.2-0.2-0.4-0.3-0.7-0.4c-0.3-0.1-0.6-0.3-1.1-0.5c-0.7-0.3-1.3-0.5-1.9-0.8c-0.6-0.3-1.1-0.6-1.5-0.9c-0.4-0.3-0.7-0.7-1-1.1
                C41.4,12.9,41.2,12.4,41.2,11.8z"/>
            <path fill="#FFFFFF" d="M58.4,19.8c0.1,0,0.3,0,0.6,0c0.2,0,0.5,0,0.8-0.1v-7.9c0-0.1,0-0.2,0.1-0.3c0-0.1,0.2-0.1,0.4-0.1h2.1
                c0.3,0,0.4,0.1,0.4,0.4v8.5c0,0.5-0.1,0.8-0.3,1.1c-0.2,0.3-0.5,0.5-1,0.6c-0.2,0-0.4,0.1-0.6,0.1c-0.2,0-0.5,0-0.8,0.1
                c-0.3,0-0.5,0-0.8,0c-0.3,0-0.5,0-0.7,0c-1,0-1.8-0.1-2.5-0.3s-1.2-0.5-1.6-0.9c-0.4-0.4-0.7-0.9-0.9-1.6c-0.2-0.7-0.3-1.5-0.3-2.4
                v-5.2c0-0.1,0-0.2,0.1-0.3c0-0.1,0.2-0.1,0.3-0.1h2.1c0.3,0,0.4,0.1,0.4,0.4v5.4c0,0.4,0,0.8,0.1,1.2s0.2,0.6,0.3,0.8
                c0.2,0.2,0.4,0.4,0.7,0.5C57.6,19.8,58,19.8,58.4,19.8z"/>
            <path fill="#FFFFFF" d="M75.2,16.7c0,0.8-0.1,1.5-0.3,2.2c-0.2,0.7-0.5,1.3-0.9,1.8c-0.4,0.5-1,0.9-1.6,1.2s-1.5,0.4-2.4,0.4
                c-0.7,0-1.5-0.1-2.2-0.2c-0.8-0.1-1.4-0.3-2.1-0.6c-0.2-0.1-0.3-0.1-0.3-0.2c0-0.1-0.1-0.2-0.1-0.4V7.8c0-0.2,0-0.3,0.1-0.3
                c0.1-0.1,0.2-0.1,0.3-0.1h2c0.1,0,0.3,0,0.3,0.1s0.1,0.2,0.1,0.3l0,3.8c0.3-0.1,0.7-0.2,1.1-0.2c0.4-0.1,0.8-0.1,1.2-0.1
                c0.8,0,1.5,0.1,2.1,0.4c0.6,0.3,1.1,0.7,1.4,1.2c0.4,0.5,0.6,1.1,0.8,1.7C75.1,15.2,75.2,15.9,75.2,16.7z M72.2,16.7
                c0-1-0.2-1.8-0.6-2.3c-0.4-0.5-0.9-0.7-1.6-0.7c-0.2,0-0.4,0-0.8,0.1s-0.7,0.1-1,0.2v5.6c0.3,0.1,0.5,0.1,0.8,0.2
                c0.3,0,0.5,0,0.7,0c0.7,0,1.3-0.2,1.7-0.7S72.2,17.8,72.2,16.7z"/>
            <path fill="#FFFFFF" d="M82.5,19.8c0.1,0,0.3,0,0.6,0c0.2,0,0.5,0,0.8-0.1v-7.9c0-0.1,0-0.2,0.1-0.3c0-0.1,0.2-0.1,0.4-0.1h2.1
                c0.3,0,0.4,0.1,0.4,0.4v8.5c0,0.5-0.1,0.8-0.3,1.1s-0.5,0.5-1,0.6c-0.2,0-0.4,0.1-0.6,0.1c-0.2,0-0.5,0-0.8,0.1c-0.3,0-0.5,0-0.8,0
                c-0.3,0-0.5,0-0.7,0c-1,0-1.8-0.1-2.5-0.3c-0.7-0.2-1.2-0.5-1.6-0.9c-0.4-0.4-0.7-0.9-0.9-1.6c-0.2-0.7-0.3-1.5-0.3-2.4v-5.2
                c0-0.1,0-0.2,0.1-0.3c0-0.1,0.2-0.1,0.3-0.1h2.1c0.3,0,0.4,0.1,0.4,0.4v5.4c0,0.4,0,0.8,0.1,1.2c0.1,0.3,0.2,0.6,0.3,0.8
                c0.2,0.2,0.4,0.4,0.7,0.5C81.7,19.8,82,19.8,82.5,19.8z"/>
            <path fill="#FFFFFF" d="M96.3,21.7c0,0.1-0.1,0.1-0.2,0.2c-0.5,0.1-1,0.2-1.5,0.3c-0.5,0-0.9,0.1-1.3,0.1c-1.1,0-2-0.2-2.5-0.7
                c-0.5-0.5-0.7-1.2-0.7-2.2v-5.7h-1.4c-0.1,0-0.2,0-0.3-0.1s-0.1-0.2-0.1-0.3v-1.1c0-0.1,0-0.2,0-0.3s0.1-0.1,0.3-0.1l1.5-0.3
                l0.1-1.9c0-0.2,0.1-0.3,0.1-0.3c0.1-0.1,0.2-0.1,0.3-0.2l1.8-0.6c0.1,0,0.2,0,0.3,0C93,8.6,93,8.7,93,8.8v2.7h2.2
                c0.1,0,0.2,0,0.3,0.1c0,0.1,0,0.1,0,0.3v1.4c0,0.1,0,0.2,0,0.3c0,0.1-0.1,0.1-0.3,0.1H93v5.1c0,0.4,0.1,0.7,0.3,0.8
                c0.2,0.1,0.5,0.2,0.9,0.2c0.1,0,0.2,0,0.3,0c0.1,0,0.3,0,0.4,0c0.1,0,0.3,0,0.4,0c0.1,0,0.2,0,0.3,0c0.2,0,0.3,0,0.3,0.2l0.2,1.7
                C96.3,21.6,96.3,21.7,96.3,21.7z"/>
            <path fill="#FFFFFF" d="M106.7,20.7c0,0.2,0,0.3-0.1,0.4s-0.2,0.2-0.3,0.3c-0.3,0.1-0.6,0.3-1,0.4c-0.4,0.1-0.7,0.2-1.1,0.2
                c-0.4,0.1-0.7,0.1-1.1,0.1c-0.4,0-0.7,0-1.1,0c-0.9,0-1.7-0.1-2.2-0.3s-1.1-0.4-1.4-0.7s-0.6-0.7-0.8-1.1c-0.1-0.4-0.2-0.8-0.2-1.3
                c0-0.5,0.1-1,0.3-1.4c0.2-0.4,0.4-0.8,0.8-1.1c0.3-0.3,0.8-0.6,1.3-0.8c0.5-0.2,1.2-0.3,1.9-0.3h2.2V15c0-0.2,0-0.4-0.1-0.5
                c0-0.2-0.1-0.3-0.3-0.5s-0.3-0.2-0.5-0.3c-0.2-0.1-0.5-0.1-0.9-0.1c-0.2,0-0.4,0-0.7,0c-0.3,0-0.5,0-0.8,0.1
                c-0.3,0-0.5,0.1-0.7,0.1c-0.2,0-0.5,0.1-0.6,0.2c-0.2,0-0.3,0-0.4,0c-0.1,0-0.1-0.1-0.1-0.3l-0.3-1.4c0-0.1,0-0.3,0-0.3
                c0-0.1,0.1-0.1,0.2-0.1c0.6-0.2,1.2-0.4,1.9-0.5c0.7-0.1,1.3-0.1,2-0.1c1.4,0,2.5,0.3,3.2,0.9c0.7,0.6,1,1.5,1,2.8V20.7z
                 M103.8,17.2h-1.6c-0.2,0-0.4,0-0.6,0c-0.2,0-0.4,0.1-0.6,0.2c-0.2,0.1-0.3,0.2-0.5,0.4s-0.2,0.4-0.2,0.8c0,0.5,0.2,0.8,0.5,1
                c0.3,0.2,0.7,0.3,1.3,0.3c0.1,0,0.2,0,0.3,0c0.1,0,0.3,0,0.4,0c0.2,0,0.3,0,0.5-0.1c0.2,0,0.3-0.1,0.4-0.1V17.2z"/>
            <path fill="#FFFFFF" d="M112.9,8.8c0,0.5-0.2,0.9-0.5,1.2c-0.3,0.3-0.7,0.5-1.2,0.5c-0.5,0-0.8-0.2-1.2-0.5
                c-0.3-0.3-0.5-0.7-0.5-1.2c0-0.2,0-0.5,0.1-0.7c0.1-0.2,0.2-0.4,0.4-0.5s0.3-0.3,0.5-0.3c0.2-0.1,0.4-0.1,0.6-0.1s0.4,0,0.6,0.1
                c0.2,0.1,0.4,0.2,0.5,0.3s0.3,0.3,0.4,0.5C112.8,8.3,112.9,8.5,112.9,8.8z M112.6,21.6c0,0.1,0,0.2-0.1,0.3c-0.1,0-0.2,0.1-0.4,0.1
                h-2c-0.1,0-0.3,0-0.3-0.1c-0.1,0-0.1-0.1-0.1-0.3v-9.8c0-0.1,0-0.2,0.1-0.3c0.1,0,0.2-0.1,0.3-0.1h2c0.2,0,0.3,0,0.4,0.1
                c0.1,0,0.1,0.1,0.1,0.3V21.6z"/>
            <path fill="#FFFFFF" d="M127.2,21.9c-0.1,0.1-0.2,0.1-0.4,0.1h-2.1c-0.2,0-0.3,0-0.4-0.1c-0.1-0.1-0.1-0.2-0.1-0.3V16h-5.4v5.6
                c0,0.2,0,0.3-0.1,0.3c-0.1,0.1-0.2,0.1-0.4,0.1h-2.1c-0.2,0-0.3,0-0.3-0.1c-0.1-0.1-0.1-0.2-0.1-0.3V8.4c0-0.2,0-0.3,0.1-0.3
                c0.1-0.1,0.2-0.1,0.3-0.1h2.1c0.2,0,0.3,0,0.4,0.1c0.1,0.1,0.1,0.2,0.1,0.3v5h5.4v-5c0-0.2,0-0.3,0.1-0.3c0.1-0.1,0.2-0.1,0.4-0.1
                h2.1c0.2,0,0.3,0,0.4,0.1c0.1,0.1,0.1,0.2,0.1,0.3v13.2C127.3,21.8,127.2,21.9,127.2,21.9z"/>
            <path fill="#FFFFFF" d="M141.6,20.1c0,0.5-0.1,0.9-0.3,1.2c-0.2,0.3-0.6,0.6-1.2,0.7c-0.3,0.1-0.6,0.1-0.9,0.1s-0.6,0.1-1,0.1
                c-0.3,0-0.6,0-0.9,0c-0.3,0-0.5,0-0.7,0c-1.1,0-2.1-0.1-3-0.3c-0.8-0.2-1.5-0.5-2-1s-0.9-1.1-1.1-1.9c-0.2-0.8-0.4-1.7-0.4-2.9
                l0-7.8c0-0.2,0-0.3,0.1-0.3c0.1-0.1,0.2-0.1,0.3-0.1h2.1c0.2,0,0.3,0,0.4,0.1c0.1,0.1,0.1,0.2,0.1,0.3v7.9c0,0.5,0,1,0.1,1.4
                c0.1,0.4,0.3,0.7,0.5,1s0.6,0.5,1,0.6c0.4,0.1,0.9,0.2,1.6,0.2c0.1,0,0.2,0,0.4,0s0.3,0,0.5,0c0.2,0,0.4,0,0.6,0
                c0.2,0,0.4,0,0.6-0.1v-11c0-0.2,0-0.3,0.1-0.3c0.1-0.1,0.2-0.1,0.4-0.1h2.1c0.2,0,0.3,0,0.4,0.1c0,0.1,0.1,0.2,0.1,0.3V20.1z"/>
            <path fill="#FFFFFF" d="M153.5,14.3c0.4,0.1,0.7,0.3,1,0.6c0.3,0.2,0.5,0.5,0.7,0.8c0.2,0.3,0.3,0.6,0.4,1s0.1,0.7,0.1,1
                c0,0.6-0.1,1.2-0.4,1.7c-0.2,0.5-0.6,1-1,1.3c-0.4,0.4-0.9,0.7-1.5,0.9c-0.6,0.2-1.2,0.3-1.9,0.3h-5c-0.5,0-0.8-0.1-1-0.3
                s-0.2-0.5-0.2-0.9V9.2c0-0.4,0.1-0.7,0.2-0.9s0.5-0.3,1-0.3h4.9c0.6,0,1.2,0.1,1.7,0.2c0.5,0.1,1,0.3,1.4,0.6
                c0.4,0.3,0.7,0.7,0.9,1.1c0.2,0.4,0.3,1,0.3,1.6c0,0.6-0.1,1.1-0.4,1.6c-0.3,0.5-0.7,0.9-1.1,1.1V14.3z M147.7,13.3h2.7
                c0.2,0,0.3,0,0.5-0.1c0.2,0,0.3-0.1,0.5-0.2c0.1-0.1,0.3-0.2,0.4-0.4c0.1-0.2,0.1-0.4,0.1-0.7c0-0.4-0.1-0.7-0.4-0.9
                s-0.6-0.3-1-0.3h-2.8V13.3z M152.5,17.5c0-0.5-0.2-1-0.5-1.3c-0.3-0.3-0.8-0.5-1.5-0.5h-2.9v3.6h2.9c0.4,0,0.7-0.1,0.9-0.2
                c0.3-0.1,0.5-0.3,0.6-0.4c0.1-0.2,0.3-0.4,0.3-0.6C152.4,17.9,152.5,17.7,152.5,17.5z"/>
        </g>
    </symbol>

    <symbol id="header-color" viewBox="0 0 156 30">
        <g id="icon">
            <g id="icon-color">
                <path fill="#59b7ff" d="M23,24.8c-0.4,0-0.8-0.1-1.3-0.3c-1-0.6-2.3-1.3-3.3-2c-1.2-0.8-2.4-1.2-3.6-1.2c-1.3,0-2.4,0.4-3.7,1.2
                    c-0.7,0.4-1.3,0.8-1.9,1.2c-0.4,0.3-0.9,0.5-1.3,0.8c-0.3,0.3-0.8,0.3-1,0.3H6.8H6.6c-0.5,0-0.8-0.1-1.1-0.3
                    c-1.3-0.8-5.2-3.2-5.2-3.2C0.2,21.3,0,21.2,0,21.1V21c0,0,0.2-0.2,0.3-0.2l1.7-1c1.1-0.7,2.2-1.3,3.3-1.9c0.5-0.3,0.9-0.4,1.4-0.4
                    s1,0.2,1.5,0.5c2,1.3,4.3,2.6,6.8,2.6c0.5,0,1.1-0.1,1.6-0.2c1.4-0.4,2.8-1.3,4.1-2.1l0.5-0.3c0.6-0.3,1.2-0.5,1.7-0.5
                    c0.6,0,1.1,0.2,1.7,0.6c1,0.6,2,1.2,3,1.8c0.5,0.3,1.1,0.6,1.6,0.9l0.1,0.1c0.1,0.1,0.3,0.2,0.3,0.2v0.1c0,0-0.2,0.1-0.3,0.2
                    l-1,0.7c-1.3,0.8-2.8,1.8-4.2,2.5C23.8,24.8,23.4,24.8,23,24.8L23,24.8z"/>
                <path fill="#59b7ff" d="M14.8,29.8c-1.2-0.2-2.3-0.9-3.5-1.8c-0.3-0.3-0.6-0.4-0.9-0.7c0.4-0.3,0.8-0.5,1.2-0.8
                    c1.1-0.8,2.1-1.5,3.2-1.5c0.3,0,0.5,0,0.8,0.2c1.1,0.3,2.1,1,3.2,1.8l0.4,0.3l0.1,0.1c-0.3,0.2-0.6,0.4-0.9,0.6
                    C17.2,28.8,16.1,29.6,14.8,29.8L14.8,29.8z"/>
                <path fill="#59b7ff" d="M19.2,15L19,14.9c0.1,0,0.1-0.1,0.1-0.1v-0.1c0,0-0.2-0.1-0.3-0.2l-0.5-0.3c-0.8-0.4-1.6-0.9-2.4-1.3
                    c-0.3-0.2-0.8-0.3-1.1-0.3s-0.7,0.1-1,0.3c-0.8,0.4-1.7,0.8-2.4,1.3l-0.7,0.4c-0.2,0.2-0.2,0.2-0.2,0.3c-0.1,0-0.1,0.1-0.2,0.1
                    c0.3,0.3,0.6,0.4,0.9,0.7c1.2,0.8,2.3,1.6,3.5,1.8c1.3-0.2,2.3-0.9,3.5-1.8C18.7,15.5,18.9,15.3,19.2,15L19.2,15z"/>
            </g>
            <g id="icon-white">
                <path fill="#FFFFFF" d="M23,12.5c-0.4,0-0.8-0.1-1.3-0.3c-1-0.6-2.3-1.3-3.3-2C17.3,9.4,16,9,14.8,9c-1.3,0-2.4,0.4-3.7,1.2
                    c-0.7,0.4-1.3,0.8-1.9,1.2c-0.4,0.3-0.9,0.5-1.3,0.8c-0.3,0.3-0.8,0.3-1,0.3H6.8H6.6c-0.5,0-0.8-0.1-1.1-0.3C4.2,11.3,0.3,9,0.3,9
                    C0.2,8.9,0,8.8,0,8.8V8.7c0,0,0.2-0.2,0.3-0.2l1.7-1c1.1-0.7,2.2-1.3,3.3-1.9c0.5-0.3,0.9-0.4,1.4-0.4s1,0.2,1.5,0.5
                    c2,1.3,4.3,2.6,6.8,2.6c0.5,0,1.1-0.1,1.6-0.2c1.6-0.3,3-1.2,4.3-2l0.5-0.3c0.6-0.3,1.2-0.5,1.7-0.5c0.6,0,1.1,0.2,1.7,0.6
                    c1,0.6,2,1.2,3,1.8C28.4,8,29,8.3,29.5,8.6l0.1,0.1c0.1,0.1,0.3,0.2,0.3,0.2v0.1c0,0-0.2,0.1-0.3,0.2l-1.3,0.6
                    c-1.3,0.8-2.8,1.8-4.2,2.5C23.8,12.4,23.4,12.5,23,12.5L23,12.5z"/>
                <path fill="#FFFFFF" d="M14.8,4.1c-1.5,0-2.8-0.4-3.9-1.2c-0.1-0.1-0.3-0.2-0.3-0.3c0-0.1,0-0.2,0.3-0.3l0.7-0.4
                    c0.8-0.5,1.6-0.9,2.4-1.3c0.3-0.2,0.7-0.2,1-0.2c0.3,0,0.8,0.1,1.1,0.2c0.8,0.4,1.7,0.9,2.4,1.3l0.5,0.3c0.1,0.1,0.3,0.2,0.3,0.2
                    v0.1c0,0-0.2,0.2-0.3,0.2c-1.3,0.8-2.6,1.3-4,1.3L14.8,4.1L14.8,4.1z"/>
            </g>
        </g>
        <g id="caption">
            <path fill="#FFFFFF" d="M41.2,11.8c0-0.6,0.1-1.1,0.3-1.6S42,9.3,42.4,9c0.4-0.4,0.9-0.7,1.5-0.9s1.3-0.3,2.1-0.3
                c0.4,0,0.8,0,1.2,0.1S48,7.9,48.4,8c0.4,0.1,0.8,0.2,1.1,0.3s0.7,0.2,1,0.4c0.2,0.1,0.3,0.2,0.3,0.2s0,0.2-0.1,0.4l-0.5,1.5
                C50.1,11,50,11.1,50,11.1c-0.1,0-0.2,0-0.3,0c-0.6-0.2-1.3-0.3-1.9-0.5s-1.2-0.2-1.8-0.2c-0.6,0-1,0.1-1.2,0.3
                c-0.2,0.2-0.4,0.5-0.4,0.8c0,0.2,0,0.3,0.1,0.5c0.1,0.1,0.2,0.3,0.4,0.4c0.2,0.1,0.4,0.3,0.7,0.4c0.3,0.1,0.7,0.3,1.1,0.5
                c0.7,0.3,1.3,0.5,1.9,0.8c0.6,0.3,1.1,0.6,1.5,0.9c0.4,0.3,0.7,0.8,1,1.2s0.4,1,0.4,1.7c0,0.7-0.1,1.3-0.4,1.8
                c-0.3,0.5-0.6,1-1.1,1.3c-0.5,0.3-1,0.6-1.6,0.8c-0.6,0.2-1.4,0.3-2.1,0.3c-0.4,0-0.9,0-1.3-0.1c-0.5,0-0.9-0.1-1.4-0.2
                c-0.5-0.1-0.9-0.2-1.4-0.4s-0.8-0.4-1.2-0.6c-0.1-0.1-0.2-0.1-0.2-0.2s0-0.2,0.1-0.4l0.7-1.6c0.1-0.2,0.1-0.3,0.2-0.3
                c0.1,0,0.2,0,0.3,0.1c0.3,0.1,0.6,0.2,0.9,0.3c0.3,0.1,0.6,0.2,1,0.3c0.3,0.1,0.7,0.2,1,0.2c0.4,0.1,0.7,0.1,1,0.1
                c0.4,0,0.8,0,1-0.1s0.5-0.2,0.7-0.3c0.2-0.1,0.3-0.3,0.4-0.4c0.1-0.2,0.1-0.3,0.1-0.5c0-0.2,0-0.4-0.1-0.5s-0.2-0.3-0.4-0.5
                c-0.2-0.2-0.4-0.3-0.7-0.4c-0.3-0.1-0.6-0.3-1.1-0.5c-0.7-0.3-1.3-0.5-1.9-0.8c-0.6-0.3-1.1-0.6-1.5-0.9c-0.4-0.3-0.7-0.7-1-1.1
                C41.4,12.9,41.2,12.4,41.2,11.8z"/>
            <path fill="#FFFFFF" d="M58.4,19.8c0.1,0,0.3,0,0.6,0c0.2,0,0.5,0,0.8-0.1v-7.9c0-0.1,0-0.2,0.1-0.3c0-0.1,0.2-0.1,0.4-0.1h2.1
                c0.3,0,0.4,0.1,0.4,0.4v8.5c0,0.5-0.1,0.8-0.3,1.1c-0.2,0.3-0.5,0.5-1,0.6c-0.2,0-0.4,0.1-0.6,0.1c-0.2,0-0.5,0-0.8,0.1
                c-0.3,0-0.5,0-0.8,0c-0.3,0-0.5,0-0.7,0c-1,0-1.8-0.1-2.5-0.3s-1.2-0.5-1.6-0.9c-0.4-0.4-0.7-0.9-0.9-1.6c-0.2-0.7-0.3-1.5-0.3-2.4
                v-5.2c0-0.1,0-0.2,0.1-0.3c0-0.1,0.2-0.1,0.3-0.1h2.1c0.3,0,0.4,0.1,0.4,0.4v5.4c0,0.4,0,0.8,0.1,1.2s0.2,0.6,0.3,0.8
                c0.2,0.2,0.4,0.4,0.7,0.5C57.6,19.8,58,19.8,58.4,19.8z"/>
            <path fill="#FFFFFF" d="M75.2,16.7c0,0.8-0.1,1.5-0.3,2.2c-0.2,0.7-0.5,1.3-0.9,1.8c-0.4,0.5-1,0.9-1.6,1.2s-1.5,0.4-2.4,0.4
                c-0.7,0-1.5-0.1-2.2-0.2c-0.8-0.1-1.4-0.3-2.1-0.6c-0.2-0.1-0.3-0.1-0.3-0.2c0-0.1-0.1-0.2-0.1-0.4V7.8c0-0.2,0-0.3,0.1-0.3
                c0.1-0.1,0.2-0.1,0.3-0.1h2c0.1,0,0.3,0,0.3,0.1s0.1,0.2,0.1,0.3l0,3.8c0.3-0.1,0.7-0.2,1.1-0.2c0.4-0.1,0.8-0.1,1.2-0.1
                c0.8,0,1.5,0.1,2.1,0.4c0.6,0.3,1.1,0.7,1.4,1.2c0.4,0.5,0.6,1.1,0.8,1.7C75.1,15.2,75.2,15.9,75.2,16.7z M72.2,16.7
                c0-1-0.2-1.8-0.6-2.3c-0.4-0.5-0.9-0.7-1.6-0.7c-0.2,0-0.4,0-0.8,0.1s-0.7,0.1-1,0.2v5.6c0.3,0.1,0.5,0.1,0.8,0.2
                c0.3,0,0.5,0,0.7,0c0.7,0,1.3-0.2,1.7-0.7S72.2,17.8,72.2,16.7z"/>
            <path fill="#FFFFFF" d="M82.5,19.8c0.1,0,0.3,0,0.6,0c0.2,0,0.5,0,0.8-0.1v-7.9c0-0.1,0-0.2,0.1-0.3c0-0.1,0.2-0.1,0.4-0.1h2.1
                c0.3,0,0.4,0.1,0.4,0.4v8.5c0,0.5-0.1,0.8-0.3,1.1s-0.5,0.5-1,0.6c-0.2,0-0.4,0.1-0.6,0.1c-0.2,0-0.5,0-0.8,0.1c-0.3,0-0.5,0-0.8,0
                c-0.3,0-0.5,0-0.7,0c-1,0-1.8-0.1-2.5-0.3c-0.7-0.2-1.2-0.5-1.6-0.9c-0.4-0.4-0.7-0.9-0.9-1.6c-0.2-0.7-0.3-1.5-0.3-2.4v-5.2
                c0-0.1,0-0.2,0.1-0.3c0-0.1,0.2-0.1,0.3-0.1h2.1c0.3,0,0.4,0.1,0.4,0.4v5.4c0,0.4,0,0.8,0.1,1.2c0.1,0.3,0.2,0.6,0.3,0.8
                c0.2,0.2,0.4,0.4,0.7,0.5C81.7,19.8,82,19.8,82.5,19.8z"/>
            <path fill="#FFFFFF" d="M96.3,21.7c0,0.1-0.1,0.1-0.2,0.2c-0.5,0.1-1,0.2-1.5,0.3c-0.5,0-0.9,0.1-1.3,0.1c-1.1,0-2-0.2-2.5-0.7
                c-0.5-0.5-0.7-1.2-0.7-2.2v-5.7h-1.4c-0.1,0-0.2,0-0.3-0.1s-0.1-0.2-0.1-0.3v-1.1c0-0.1,0-0.2,0-0.3s0.1-0.1,0.3-0.1l1.5-0.3
                l0.1-1.9c0-0.2,0.1-0.3,0.1-0.3c0.1-0.1,0.2-0.1,0.3-0.2l1.8-0.6c0.1,0,0.2,0,0.3,0C93,8.6,93,8.7,93,8.8v2.7h2.2
                c0.1,0,0.2,0,0.3,0.1c0,0.1,0,0.1,0,0.3v1.4c0,0.1,0,0.2,0,0.3c0,0.1-0.1,0.1-0.3,0.1H93v5.1c0,0.4,0.1,0.7,0.3,0.8
                c0.2,0.1,0.5,0.2,0.9,0.2c0.1,0,0.2,0,0.3,0c0.1,0,0.3,0,0.4,0c0.1,0,0.3,0,0.4,0c0.1,0,0.2,0,0.3,0c0.2,0,0.3,0,0.3,0.2l0.2,1.7
                C96.3,21.6,96.3,21.7,96.3,21.7z"/>
            <path fill="#FFFFFF" d="M106.7,20.7c0,0.2,0,0.3-0.1,0.4s-0.2,0.2-0.3,0.3c-0.3,0.1-0.6,0.3-1,0.4c-0.4,0.1-0.7,0.2-1.1,0.2
                c-0.4,0.1-0.7,0.1-1.1,0.1c-0.4,0-0.7,0-1.1,0c-0.9,0-1.7-0.1-2.2-0.3s-1.1-0.4-1.4-0.7s-0.6-0.7-0.8-1.1c-0.1-0.4-0.2-0.8-0.2-1.3
                c0-0.5,0.1-1,0.3-1.4c0.2-0.4,0.4-0.8,0.8-1.1c0.3-0.3,0.8-0.6,1.3-0.8c0.5-0.2,1.2-0.3,1.9-0.3h2.2V15c0-0.2,0-0.4-0.1-0.5
                c0-0.2-0.1-0.3-0.3-0.5s-0.3-0.2-0.5-0.3c-0.2-0.1-0.5-0.1-0.9-0.1c-0.2,0-0.4,0-0.7,0c-0.3,0-0.5,0-0.8,0.1
                c-0.3,0-0.5,0.1-0.7,0.1c-0.2,0-0.5,0.1-0.6,0.2c-0.2,0-0.3,0-0.4,0c-0.1,0-0.1-0.1-0.1-0.3l-0.3-1.4c0-0.1,0-0.3,0-0.3
                c0-0.1,0.1-0.1,0.2-0.1c0.6-0.2,1.2-0.4,1.9-0.5c0.7-0.1,1.3-0.1,2-0.1c1.4,0,2.5,0.3,3.2,0.9c0.7,0.6,1,1.5,1,2.8V20.7z
                 M103.8,17.2h-1.6c-0.2,0-0.4,0-0.6,0c-0.2,0-0.4,0.1-0.6,0.2c-0.2,0.1-0.3,0.2-0.5,0.4s-0.2,0.4-0.2,0.8c0,0.5,0.2,0.8,0.5,1
                c0.3,0.2,0.7,0.3,1.3,0.3c0.1,0,0.2,0,0.3,0c0.1,0,0.3,0,0.4,0c0.2,0,0.3,0,0.5-0.1c0.2,0,0.3-0.1,0.4-0.1V17.2z"/>
            <path fill="#FFFFFF" d="M112.9,8.8c0,0.5-0.2,0.9-0.5,1.2c-0.3,0.3-0.7,0.5-1.2,0.5c-0.5,0-0.8-0.2-1.2-0.5
                c-0.3-0.3-0.5-0.7-0.5-1.2c0-0.2,0-0.5,0.1-0.7c0.1-0.2,0.2-0.4,0.4-0.5s0.3-0.3,0.5-0.3c0.2-0.1,0.4-0.1,0.6-0.1s0.4,0,0.6,0.1
                c0.2,0.1,0.4,0.2,0.5,0.3s0.3,0.3,0.4,0.5C112.8,8.3,112.9,8.5,112.9,8.8z M112.6,21.6c0,0.1,0,0.2-0.1,0.3c-0.1,0-0.2,0.1-0.4,0.1
                h-2c-0.1,0-0.3,0-0.3-0.1c-0.1,0-0.1-0.1-0.1-0.3v-9.8c0-0.1,0-0.2,0.1-0.3c0.1,0,0.2-0.1,0.3-0.1h2c0.2,0,0.3,0,0.4,0.1
                c0.1,0,0.1,0.1,0.1,0.3V21.6z"/>
            <path fill="#FFFFFF" d="M127.2,21.9c-0.1,0.1-0.2,0.1-0.4,0.1h-2.1c-0.2,0-0.3,0-0.4-0.1c-0.1-0.1-0.1-0.2-0.1-0.3V16h-5.4v5.6
                c0,0.2,0,0.3-0.1,0.3c-0.1,0.1-0.2,0.1-0.4,0.1h-2.1c-0.2,0-0.3,0-0.3-0.1c-0.1-0.1-0.1-0.2-0.1-0.3V8.4c0-0.2,0-0.3,0.1-0.3
                c0.1-0.1,0.2-0.1,0.3-0.1h2.1c0.2,0,0.3,0,0.4,0.1c0.1,0.1,0.1,0.2,0.1,0.3v5h5.4v-5c0-0.2,0-0.3,0.1-0.3c0.1-0.1,0.2-0.1,0.4-0.1
                h2.1c0.2,0,0.3,0,0.4,0.1c0.1,0.1,0.1,0.2,0.1,0.3v13.2C127.3,21.8,127.2,21.9,127.2,21.9z"/>
            <path fill="#FFFFFF" d="M141.6,20.1c0,0.5-0.1,0.9-0.3,1.2c-0.2,0.3-0.6,0.6-1.2,0.7c-0.3,0.1-0.6,0.1-0.9,0.1s-0.6,0.1-1,0.1
                c-0.3,0-0.6,0-0.9,0c-0.3,0-0.5,0-0.7,0c-1.1,0-2.1-0.1-3-0.3c-0.8-0.2-1.5-0.5-2-1s-0.9-1.1-1.1-1.9c-0.2-0.8-0.4-1.7-0.4-2.9
                l0-7.8c0-0.2,0-0.3,0.1-0.3c0.1-0.1,0.2-0.1,0.3-0.1h2.1c0.2,0,0.3,0,0.4,0.1c0.1,0.1,0.1,0.2,0.1,0.3v7.9c0,0.5,0,1,0.1,1.4
                c0.1,0.4,0.3,0.7,0.5,1s0.6,0.5,1,0.6c0.4,0.1,0.9,0.2,1.6,0.2c0.1,0,0.2,0,0.4,0s0.3,0,0.5,0c0.2,0,0.4,0,0.6,0
                c0.2,0,0.4,0,0.6-0.1v-11c0-0.2,0-0.3,0.1-0.3c0.1-0.1,0.2-0.1,0.4-0.1h2.1c0.2,0,0.3,0,0.4,0.1c0,0.1,0.1,0.2,0.1,0.3V20.1z"/>
            <path fill="#FFFFFF" d="M153.5,14.3c0.4,0.1,0.7,0.3,1,0.6c0.3,0.2,0.5,0.5,0.7,0.8c0.2,0.3,0.3,0.6,0.4,1s0.1,0.7,0.1,1
                c0,0.6-0.1,1.2-0.4,1.7c-0.2,0.5-0.6,1-1,1.3c-0.4,0.4-0.9,0.7-1.5,0.9c-0.6,0.2-1.2,0.3-1.9,0.3h-5c-0.5,0-0.8-0.1-1-0.3
                s-0.2-0.5-0.2-0.9V9.2c0-0.4,0.1-0.7,0.2-0.9s0.5-0.3,1-0.3h4.9c0.6,0,1.2,0.1,1.7,0.2c0.5,0.1,1,0.3,1.4,0.6
                c0.4,0.3,0.7,0.7,0.9,1.1c0.2,0.4,0.3,1,0.3,1.6c0,0.6-0.1,1.1-0.4,1.6c-0.3,0.5-0.7,0.9-1.1,1.1V14.3z M147.7,13.3h2.7
                c0.2,0,0.3,0,0.5-0.1c0.2,0,0.3-0.1,0.5-0.2c0.1-0.1,0.3-0.2,0.4-0.4c0.1-0.2,0.1-0.4,0.1-0.7c0-0.4-0.1-0.7-0.4-0.9
                s-0.6-0.3-1-0.3h-2.8V13.3z M152.5,17.5c0-0.5-0.2-1-0.5-1.3c-0.3-0.3-0.8-0.5-1.5-0.5h-2.9v3.6h2.9c0.4,0,0.7-0.1,0.9-0.2
                c0.3-0.1,0.5-0.3,0.6-0.4c0.1-0.2,0.3-0.4,0.3-0.6C152.4,17.9,152.5,17.7,152.5,17.5z"/>
        </g>
    </symbol>

</svg>