<svg  xmlns="http://www.w3.org/2000/svg" style="width:0; height:0; visibility:hidden;">
    <symbol viewBox="0 0 101 35.3" id="header">
        <path fill="#FFFFFF" d="M35.3,24.5c-0.6-0.4-1.3-0.7-1.9-1.1c-1.2-0.7-2.4-1.4-3.6-2.1c-0.7-0.4-1.4-0.7-2-0.7c-0.7,0-1.3,0.2-2,0.6
            l-0.6,0.3c-1.6,1-3.3,2-5.2,2.4c-0.6,0.1-1.3,0.2-1.9,0.2c-3.1,0-5.8-1.6-8.2-3.1c-0.6-0.4-1.2-0.6-1.8-0.6c-0.6,0-1.1,0.2-1.7,0.5
            c-1.3,0.8-2.6,1.5-4,2.3l-2.1,1.2C0.2,24.6,0,24.7,0,24.7l0,0.1c0,0.1,0.3,0.2,0.4,0.3c0,0,4.7,2.8,6.2,3.8C7,29.2,7.4,29.3,8,29.3
            l0.2,0c0,0,0.2,0,0.2,0c0.3,0,0.8-0.2,1.2-0.4c0.5-0.3,1.1-0.6,1.6-0.9c0.8-0.5,1.6-0.9,2.3-1.4c1.4-0.9,2.9-1.4,4.4-1.4
            c1.5,0,2.9,0.5,4.3,1.4c1.4,0.9,2.8,1.7,4,2.4c0.5,0.3,1,0.4,1.5,0.4c0.5,0,0.9-0.1,1.4-0.4c1.7-1,3.4-2,5-3l1.4-0.8
            c0.1-0.1,0.3-0.2,0.3-0.2l0-0.1c0-0.1-0.2-0.2-0.3-0.2L35.3,24.5z"/>
        <path fill="#FFFFFF" d="M23.1,32.3L22.5,32c-1.3-0.8-2.5-1.6-3.8-2.1c-0.3-0.1-0.6-0.2-0.9-0.2c-1.3,0-2.5,0.9-3.8,1.8
            c-0.5,0.3-0.9,0.7-1.4,0.9c0.4,0.2,0.8,0.5,1.1,0.8c1.4,1,2.7,1.9,4.2,2.1c1.5-0.2,2.8-1.1,4.2-2.1c0.4-0.2,0.7-0.5,1.1-0.7
            C23.2,32.5,23.2,32.4,23.1,32.3z"/>
        <path fill="#FFFFFF" d="M35.3,9.7c-0.6-0.4-1.3-0.7-1.9-1.1c-1.2-0.7-2.4-1.4-3.6-2.1c-0.7-0.4-1.4-0.7-2-0.7c-0.7,0-1.3,0.2-2,0.6
            l-0.6,0.3c-1.6,1-3.3,2-5.2,2.4c-0.6,0.1-1.3,0.2-1.9,0.2c-3.1,0-5.8-1.6-8.2-3.1C9.2,5.9,8.7,5.7,8.1,5.7C7.5,5.7,7,5.9,6.4,6.2
            C5.1,7,3.7,7.8,2.4,8.5L0.4,9.7C0.2,9.8,0,9.9,0,10l0,0.1c0,0.1,0.3,0.2,0.4,0.3c0,0,4.7,2.8,6.2,3.8C7,14.4,7.4,14.5,8,14.5l0.2,0
            c0,0,0.2,0,0.2,0c0.3,0,0.8-0.2,1.2-0.4c0.5-0.3,1.1-0.6,1.6-0.9c0.8-0.5,1.6-0.9,2.3-1.4c1.4-0.9,2.9-1.4,4.4-1.4
            c1.5,0,2.9,0.5,4.3,1.4c1.4,0.9,2.8,1.7,4,2.4c0.5,0.3,1,0.4,1.5,0.4c0.5,0,0.9-0.1,1.4-0.4c1.7-1,3.4-2,5-3l1.4-0.8
            c0.1-0.1,0.3-0.2,0.3-0.2l0-0.1c0-0.1-0.2-0.2-0.3-0.2L35.3,9.7z"/>
        <path fill="#FFFFFF" d="M13.7,18.5c1.4,1,2.7,1.9,4.2,2.1c1.5-0.2,2.8-1.1,4.2-2.1c0.4-0.2,0.7-0.5,1.1-0.7c0,0,0-0.1-0.1-0.1
            l-0.1,0c0,0,0,0,0,0l0-0.1c0-0.1-0.2-0.2-0.3-0.2l-0.6-0.4c-1-0.6-1.9-1.1-2.9-1.6c-0.4-0.2-0.9-0.3-1.3-0.3c-0.4,0-0.8,0.1-1.2,0.3
            c-1,0.5-1.9,1.1-2.9,1.6l-0.8,0.5c-0.3,0.2-0.3,0.2-0.3,0.4c0,0,0,0,0.1,0.1c-0.1,0-0.1,0.1-0.2,0.1C13,17.9,13.4,18.2,13.7,18.5z"
            />
        <path fill="#FFFFFF" d="M13.1,3c1.4,1,3,1.4,4.7,1.4l0.1,0c1.7,0,3.2-0.5,4.8-1.5c0.1-0.1,0.3-0.2,0.3-0.2l0-0.1
            c0-0.1-0.2-0.2-0.3-0.2L22.1,2c-1-0.6-1.9-1.1-2.9-1.6C18.8,0.1,18.3,0,17.9,0c-0.4,0-0.8,0.1-1.2,0.3c-1,0.5-1.9,1.1-2.9,1.6
            l-0.8,0.5c-0.3,0.2-0.3,0.2-0.3,0.4C12.8,2.8,13,2.9,13.1,3z"/>
        <path fill="#FFFFFF" d="M55.8,17.3h-1.8c-0.5,0-0.7,0.2-0.7,0.7v3.5h-3.1V18c0-0.5-0.2-0.7-0.7-0.7h-1.8c-0.5,0-0.7,0.2-0.7,0.7v10
            c0,0.5,0.2,0.7,0.7,0.7h1.8c0.5,0,0.7-0.2,0.7-0.7v-3.7h3.1V28c0,0.5,0.2,0.7,0.7,0.7h1.8c0.5,0,0.7-0.2,0.7-0.7V18
            C56.4,17.5,56.3,17.3,55.8,17.3z"/>
        <path fill="#FFFFFF" d="M66.9,17.3h-1.8c-0.5,0-0.7,0.2-0.7,0.7v6.7c0,0.9-0.6,1.5-1.7,1.5s-1.6-0.5-1.6-1.5V18
            c0-0.5-0.2-0.7-0.7-0.7h-1.8c-0.5,0-0.7,0.2-0.7,0.7v6.5c0,2.7,1.7,4.4,4.8,4.4c3.2,0,4.8-1.7,4.8-4.4V18
            C67.6,17.5,67.4,17.3,66.9,17.3z"/>
        <path fill="#FFFFFF" d="M76.9,22.7L76.9,22.7c0.8-0.6,1.2-1.3,1.2-2.4c0-2-1.3-3-3.5-3h-4.7c-0.5,0-0.7,0.2-0.7,0.7v10
            c0,0.5,0.2,0.7,0.7,0.7h4.8c2.3,0,3.9-1.1,3.9-3.2C78.5,24.1,77.9,23.2,76.9,22.7z M72.3,19.9h1.6c0.6,0,1,0.3,1,0.9s-0.3,0.9-1,0.9
            h-1.6V19.9z M74.1,26.1h-1.9v-1.9h1.9c0.7,0,1,0.3,1,0.9C75.2,25.8,74.8,26.1,74.1,26.1z"/>
        <path fill="#FFFFFF" d="M51.5,11.4c0-1.4-1.2-1.6-2.3-1.8c-1-0.1-1.9-0.3-1.9-1.2c0-0.8,0.6-1.2,1.7-1.2c0.9,0,1.4,0.4,1.8,1
            c0.1,0.1,0.1,0.1,0.2,0.1l0.3-0.1c0.1-0.1,0.2-0.1,0.1-0.2c-0.5-0.9-1.1-1.4-2.4-1.4c-1.5,0-2.3,0.7-2.3,1.8c0,1.5,1.3,1.6,2.4,1.8
            c0.9,0.1,1.8,0.2,1.8,1.2c0,0.8-0.6,1.3-1.8,1.3c-0.9,0-1.5-0.4-1.8-1.2c-0.1-0.1-0.1-0.2-0.2-0.1l-0.3,0.1
            c-0.1,0.1-0.2,0.1-0.1,0.2c0.4,1,1.1,1.5,2.4,1.5C50.6,13.3,51.5,12.6,51.5,11.4z"/>
        <path fill="#FFFFFF" d="M54.1,13.3c0.8,0,1.3-0.2,1.7-0.3c0.3-0.1,0.3-0.2,0.3-0.5V8.7c0-0.1-0.1-0.2-0.2-0.2h-0.3
            c-0.1,0-0.2,0-0.2,0.2v3.6c0,0.1,0,0.2-0.2,0.3c-0.3,0.1-0.7,0.2-1.2,0.2c-0.9,0-1.3-0.4-1.3-1.2V8.7c0-0.1,0-0.2-0.2-0.2h-0.3
            c-0.1,0-0.2,0-0.2,0.2v2.8C52.4,12.6,52.9,13.3,54.1,13.3z"/>
        <path fill="#FFFFFF" d="M61.1,11.5v-1.3c0-1.1-0.5-1.8-1.8-1.8c-0.7,0-1.2,0.2-1.4,0.3v-2c0-0.1,0-0.2-0.2-0.2h-0.3
            c-0.1,0-0.2,0-0.2,0.2v5.9c0,0.3,0.1,0.4,0.4,0.5c0.3,0.1,0.8,0.3,1.5,0.3C60.5,13.3,61.1,12.6,61.1,11.5z M58.1,12.6
            c-0.2-0.1-0.2-0.1-0.2-0.2V9.3C58.1,9.2,58.7,9,59.3,9c0.8,0,1.3,0.4,1.3,1.2v1.3c0,0.9-0.4,1.3-1.4,1.3
            C58.7,12.7,58.3,12.7,58.1,12.6z"/>
        <path fill="#FFFFFF" d="M63.9,13.3c0.8,0,1.3-0.2,1.7-0.3c0.3-0.1,0.3-0.2,0.3-0.5V8.7c0-0.1-0.1-0.2-0.2-0.2h-0.3
            c-0.1,0-0.2,0-0.2,0.2v3.6c0,0.1,0,0.2-0.2,0.3c-0.3,0.1-0.7,0.2-1.2,0.2c-0.9,0-1.3-0.4-1.3-1.2V8.7c0-0.1,0-0.2-0.2-0.2h-0.3
            c-0.1,0-0.2,0-0.2,0.2v2.8C62.1,12.6,62.7,13.3,63.9,13.3z"/>
        <path fill="#FFFFFF" d="M69.6,13.1v-0.2c0-0.1,0-0.2-0.2-0.2c-1,0-1.3-0.2-1.3-1.3V9.1h1.3c0.1,0,0.2,0,0.2-0.2V8.7
            c0-0.1,0-0.2-0.2-0.2h-1.3V7.6c0-0.1,0-0.2-0.2-0.2h-0.3c-0.1,0-0.2,0-0.2,0.2v0.9h-0.9c-0.1,0-0.2,0-0.2,0.2v0.2
            c0,0.1,0,0.2,0.2,0.2h0.9v2.4c0,1.5,0.5,1.9,1.9,1.8C69.6,13.3,69.6,13.3,69.6,13.1z"/>
        <path fill="#FFFFFF" d="M72.1,10.5c-1.4,0-2,0.4-2,1.4c0,0.9,0.4,1.4,1.9,1.4c0.7,0,1.2-0.1,1.5-0.2c0.3-0.1,0.3-0.2,0.3-0.5v-2.4
            c0-1-0.4-1.8-1.8-1.8c-0.9,0-1.5,0.4-1.8,0.9c-0.1,0.1,0,0.2,0.1,0.2l0.2,0.1c0.1,0.1,0.2,0,0.2-0.1C71,9.2,71.4,8.9,72,8.9
            c1,0,1.2,0.5,1.2,1.2v0.4C73.1,10.6,72.6,10.5,72.1,10.5z M73.2,12.4c0,0.2,0,0.2-0.2,0.3c-0.3,0.1-0.6,0.1-1.1,0.1
            c-1.1,0-1.3-0.3-1.3-0.9c0-0.6,0.3-0.9,1.3-0.9c0.5,0,1.1,0.1,1.2,0.1V12.4z"/>
        <path fill="#FFFFFF" d="M75.2,7.6L75.2,7.6c0.3,0,0.4-0.1,0.4-0.3V7.2c0-0.3-0.1-0.3-0.3-0.3h-0.1c-0.3,0-0.3,0.1-0.3,0.3v0.1
            C74.9,7.5,75,7.6,75.2,7.6z"/>
        <path fill="#FFFFFF" d="M75.4,8.5h-0.3c-0.1,0-0.2,0-0.2,0.2V13c0,0.1,0,0.2,0.2,0.2h0.3c0.1,0,0.2,0,0.2-0.2V8.7
            C75.6,8.6,75.5,8.5,75.4,8.5z"/>
        <path fill="#FFFFFF" d="M81.3,9.6c-1-0.1-1.9-0.3-1.9-1.2c0-0.8,0.6-1.2,1.7-1.2c0.9,0,1.4,0.4,1.8,1c0.1,0.1,0.1,0.1,0.2,0.1
            l0.3-0.1c0.1-0.1,0.2-0.1,0.1-0.2c-0.5-0.9-1.1-1.4-2.4-1.4c-1.5,0-2.3,0.7-2.3,1.8c0,1.5,1.3,1.6,2.4,1.8c0.9,0.1,1.8,0.2,1.8,1.2
            c0,0.8-0.6,1.3-1.8,1.3c-0.9,0-1.5-0.4-1.8-1.2c-0.1-0.1-0.1-0.2-0.2-0.1l-0.3,0.1c-0.1,0.1-0.2,0.1-0.1,0.2c0.4,1,1.1,1.5,2.4,1.5
            c1.6,0,2.4-0.7,2.4-1.9C83.5,10,82.4,9.8,81.3,9.6z"/>
        <path fill="#FFFFFF" d="M86.3,8.4c-1.2,0-2,0.6-2,1.7v1.6c0,1,0.7,1.6,2,1.6c1.2,0,2-0.6,2-1.6v-1.6C88.3,9,87.5,8.4,86.3,8.4z
             M87.7,11.7c0,0.7-0.5,1.1-1.4,1.1c-0.8,0-1.4-0.4-1.4-1.1v-1.6c0-0.7,0.5-1.1,1.4-1.1c0.8,0,1.4,0.4,1.4,1.1V11.7z"/>
        <path fill="#FFFFFF" d="M92.7,11.7c-0.1,0-0.2,0-0.2,0.1c-0.2,0.6-0.6,0.9-1.3,0.9c-0.9,0-1.3-0.5-1.3-1.2v-1.4
            c0-0.8,0.5-1.2,1.3-1.2c0.8,0,1.1,0.3,1.3,0.9c0,0.1,0.1,0.2,0.2,0.1l0.2-0.1c0.1,0,0.2-0.1,0.1-0.2c-0.2-0.7-0.8-1.2-1.9-1.2
            c-1.3,0-2,0.7-2,1.8v1.3c0,1.1,0.6,1.8,1.9,1.8c1.1,0,1.7-0.4,1.9-1.3c0.1-0.1,0-0.2-0.1-0.2L92.7,11.7z"/>
        <path fill="#FFFFFF" d="M94.4,8.5h-0.3c-0.1,0-0.2,0-0.2,0.2V13c0,0.1,0,0.2,0.2,0.2h0.3c0.1,0,0.2,0,0.2-0.2V8.7
            C94.6,8.6,94.5,8.5,94.4,8.5z"/>
        <path fill="#FFFFFF" d="M94.3,6.9L94.3,6.9c-0.3,0-0.4,0.1-0.4,0.3v0.1c0,0.3,0.1,0.3,0.3,0.3h0.1c0.3,0,0.3-0.1,0.3-0.3V7.2
            C94.6,7,94.6,6.9,94.3,6.9z"/>
        <path fill="#FFFFFF" d="M97.5,8.4c-0.9,0-1.5,0.4-1.8,0.9c-0.1,0.1,0,0.2,0.1,0.2L96,9.7c0.1,0.1,0.2,0,0.2-0.1
            c0.2-0.4,0.6-0.7,1.3-0.7c1,0,1.2,0.5,1.2,1.2v0.4c-0.2,0-0.6-0.1-1.2-0.1c-1.4,0-2,0.4-2,1.4c0,0.9,0.4,1.4,1.9,1.4
            c0.7,0,1.2-0.1,1.5-0.2c0.3-0.1,0.3-0.2,0.3-0.5v-2.4C99.3,9.2,98.9,8.4,97.5,8.4z M98.7,12.4c0,0.2,0,0.2-0.2,0.3
            c-0.3,0.1-0.6,0.1-1.1,0.1c-1.1,0-1.3-0.3-1.3-0.9c0-0.6,0.3-0.9,1.3-0.9c0.5,0,1.1,0.1,1.2,0.1V12.4z"/>
        <path fill="#FFFFFF" d="M100.8,6.5h-0.3c-0.1,0-0.2,0-0.2,0.2V13c0,0.1,0,0.2,0.2,0.2h0.3c0.1,0,0.2,0,0.2-0.2V6.7
            C101,6.5,101,6.5,100.8,6.5z"/>
    </symbol>
    <symbol viewBox="0 0 35.3 35.3" id="header-small">
        <path fill="#FFFFFF" d="M35.3,24.5c-0.6-0.4-1.3-0.7-1.9-1.1c-1.2-0.7-2.4-1.4-3.6-2.1c-0.7-0.4-1.4-0.7-2-0.7c-0.7,0-1.3,0.2-2,0.6
            l-0.6,0.3c-1.6,1-3.3,2-5.2,2.4c-0.6,0.1-1.3,0.2-1.9,0.2c-3.1,0-5.8-1.6-8.2-3.1c-0.6-0.4-1.2-0.6-1.8-0.6c-0.6,0-1.1,0.2-1.7,0.5
            c-1.3,0.8-2.6,1.5-4,2.3l-2.1,1.2C0.2,24.6,0,24.7,0,24.7l0,0.1c0,0.1,0.3,0.2,0.4,0.3c0,0,4.7,2.8,6.2,3.8C7,29.2,7.4,29.3,8,29.3
            l0.2,0c0,0,0.2,0,0.2,0c0.3,0,0.8-0.2,1.2-0.4c0.5-0.3,1.1-0.6,1.6-0.9c0.8-0.5,1.6-0.9,2.3-1.4c1.4-0.9,2.9-1.4,4.4-1.4
            c1.5,0,2.9,0.5,4.3,1.4c1.4,0.9,2.8,1.7,4,2.4c0.5,0.3,1,0.4,1.5,0.4c0.5,0,0.9-0.1,1.4-0.4c1.7-1,3.4-2,5-3l1.4-0.8
            c0.1-0.1,0.3-0.2,0.3-0.2l0-0.1c0-0.1-0.2-0.2-0.3-0.2L35.3,24.5z"/>
        <path fill="#FFFFFF" d="M23.1,32.3L22.5,32c-1.3-0.8-2.5-1.6-3.8-2.1c-0.3-0.1-0.6-0.2-0.9-0.2c-1.3,0-2.5,0.9-3.8,1.8
            c-0.5,0.3-0.9,0.7-1.4,0.9c0.4,0.2,0.8,0.5,1.1,0.8c1.4,1,2.7,1.9,4.2,2.1c1.5-0.2,2.8-1.1,4.2-2.1c0.4-0.2,0.7-0.5,1.1-0.7
            C23.2,32.5,23.2,32.4,23.1,32.3z"/>
        <path fill="#FFFFFF" d="M35.3,9.7c-0.6-0.4-1.3-0.7-1.9-1.1c-1.2-0.7-2.4-1.4-3.6-2.1c-0.7-0.4-1.4-0.7-2-0.7c-0.7,0-1.3,0.2-2,0.6
            l-0.6,0.3c-1.6,1-3.3,2-5.2,2.4c-0.6,0.1-1.3,0.2-1.9,0.2c-3.1,0-5.8-1.6-8.2-3.1C9.2,5.9,8.7,5.7,8.1,5.7C7.5,5.7,7,5.9,6.4,6.2
            C5.1,7,3.7,7.8,2.4,8.5L0.4,9.7C0.2,9.8,0,9.9,0,10l0,0.1c0,0.1,0.3,0.2,0.4,0.3c0,0,4.7,2.8,6.2,3.8C7,14.4,7.4,14.5,8,14.5l0.2,0
            c0,0,0.2,0,0.2,0c0.3,0,0.8-0.2,1.2-0.4c0.5-0.3,1.1-0.6,1.6-0.9c0.8-0.5,1.6-0.9,2.3-1.4c1.4-0.9,2.9-1.4,4.4-1.4
            c1.5,0,2.9,0.5,4.3,1.4c1.4,0.9,2.8,1.7,4,2.4c0.5,0.3,1,0.4,1.5,0.4c0.5,0,0.9-0.1,1.4-0.4c1.7-1,3.4-2,5-3l1.4-0.8
            c0.1-0.1,0.3-0.2,0.3-0.2l0-0.1c0-0.1-0.2-0.2-0.3-0.2L35.3,9.7z"/>
        <path fill="#FFFFFF" d="M13.7,18.5c1.4,1,2.7,1.9,4.2,2.1c1.5-0.2,2.8-1.1,4.2-2.1c0.4-0.2,0.7-0.5,1.1-0.7c0,0,0-0.1-0.1-0.1
            l-0.1,0c0,0,0,0,0,0l0-0.1c0-0.1-0.2-0.2-0.3-0.2l-0.6-0.4c-1-0.6-1.9-1.1-2.9-1.6c-0.4-0.2-0.9-0.3-1.3-0.3c-0.4,0-0.8,0.1-1.2,0.3
            c-1,0.5-1.9,1.1-2.9,1.6l-0.8,0.5c-0.3,0.2-0.3,0.2-0.3,0.4c0,0,0,0,0.1,0.1c-0.1,0-0.1,0.1-0.2,0.1C13,17.9,13.4,18.2,13.7,18.5z"
        />
        <path fill="#FFFFFF" d="M13.1,3c1.4,1,3,1.4,4.7,1.4l0.1,0c1.7,0,3.2-0.5,4.8-1.5c0.1-0.1,0.3-0.2,0.3-0.2l0-0.1
            c0-0.1-0.2-0.2-0.3-0.2L22.1,2c-1-0.6-1.9-1.1-2.9-1.6C18.8,0.1,18.3,0,17.9,0c-0.4,0-0.8,0.1-1.2,0.3c-1,0.5-1.9,1.1-2.9,1.6
            l-0.8,0.5c-0.3,0.2-0.3,0.2-0.3,0.4C12.8,2.8,13,2.9,13.1,3z"/>
    </symbol>
</svg>